{
.appVersion = "1111";
DisplayStrings = (
O,
SHT,
t,
"/boxLightVertical",
a,
$,
"/s.ss20"
);
classes = (
{
automatic = 1;
code = "A Aacute Abreve Acircumflex Adieresis Agrave Amacron Aogonek Aring Aringacute Atilde AE AEacute B C Cacute Ccaron Ccedilla Ccircumflex Cdotaccent D Eth Dcaron Dcroat E Eacute Ebreve Ecaron Ecircumflex Edieresis Edotaccent Egrave Emacron Eogonek F G Gbreve Gcircumflex Gcommaaccent Gdotaccent H Hbar Hcircumflex I IJ Iacute Ibreve Icircumflex Idieresis Idotaccent Igrave Imacron Iogonek Itilde J Jcircumflex K Kcommaaccent L Lacute Lcaron Lcommaaccent Ldot Lslash M N Nacute Ncaron Ncommaaccent Eng Ntilde O Oacute Obreve Ocircumflex Odieresis Ograve Ohungarumlaut Omacron Oslash Oslashacute Otilde OE P Thorn Q R Racute Rcaron Rcommaaccent S Sacute Scaron Scedilla Scircumflex Scommaaccent Germandbls Schwa T Tbar Tcaron Tcedilla Tcommaaccent U Uacute Ubreve Ucircumflex Udieresis Ugrave Uhungarumlaut Umacron Uogonek Uring Utilde V W Wacute Wcircumflex Wdieresis Wgrave X Y Yacute Ycircumflex Ydieresis Ygrave Z Zacute Zcaron Zdotaccent A-cy Be-cy Ve-cy Ge-cy Gje-cy Gheupturn-cy De-cy Ie-cy Iegrave-cy Io-cy Zhe-cy Ze-cy Ii-cy Iishort-cy Iigrave-cy Ka-cy Kje-cy El-cy Em-cy En-cy O-cy Pe-cy Er-cy Es-cy Te-cy U-cy Ushort-cy Ef-cy Ha-cy Che-cy Tse-cy Sha-cy Shcha-cy Dzhe-cy Softsign-cy Hardsign-cy Yeru-cy Lje-cy Nje-cy Dze-cy E-cy Ereversed-cy I-cy Yi-cy Je-cy Tshe-cy Iu-cy Ia-cy Dje-cy Alpha Beta Gamma Delta Epsilon Zeta Eta Theta Iota Kappa Lambda Mu Nu Xi Omicron Pi Rho Sigma Tau Upsilon Phi Chi Psi Omega Alphatonos Epsilontonos Etatonos Iotatonos Omicrontonos Upsilontonos Omegatonos Iotadieresis Upsilondieresis UpsilonhookSymbol";
name = Uppercase;
}
);
copyright = "2009 by Jens Kutilek";
customParameters = (
{
name = openTypeHeadLowestRecPPEM;
value = 9;
},
{
name = openTypeNameLicense;
value = "This Font Software is licensed under the SIL Open Font License, Version 1.1. This license is available with a FAQ at: http://scripts.sil.org/OFL";
},
{

glyphs = (
{
glyphname = A;
layers = (
{
anchors = (
{
name = topUC;
position = "{224, 640}";
}
);
background = {
paths = (
{
closed = 1;
nodes = (
"110 -2 LINE",
"131 237 OFFCURVE",
"175 439 OFFCURVE",
"235 577 CURVE",
"213 577 LINE",
"273 439 OFFCURVE",
"317 237 OFFCURVE",
"338 -2 CURVE",
"412 3 LINE",
"392 245 OFFCURVE",
"339 477 OFFCURVE",
"256 643 CURVE",
"192 643 LINE",
"109 477 OFFCURVE",
"56 245 OFFCURVE",
"36 3 CURVE"
);
},
{
closed = 1;
nodes = (
"97 192 LINE",
"353 192 LINE",
"353 256 LINE",
"97 256 LINE"
);
}
);
};
hints = (
{
horizontal = 1;
origin = "{0, 15}";
type = Anchor;
stem = 6;
},
{
horizontal = 1;
origin = "{0, 12}";
type = Anchor;
stem = 0;
},
{
horizontal = 1;
origin = "{0, 15}";
target = "{0, 12}";
other1 = "{0, 3, 0, 7}";
type = Interpolate;
options = 8;
},
{
horizontal = 1;
origin = "{0, 15}";
target = "{0, 8}";
type = Align;
options = 4;
},
{
horizontal = 1;
origin = "{0, 3, 1, 1}";
type = Anchor;
},
{
horizontal = 1;
origin = "{0, 3, 1, 1}";
target = "{0, 3, 1, 3}";
type = TTStem;
options = 4;
}
);
layerId = "95FB0C11-C828-4064-8966-34220AA4D426";
paths = (
{
closed = 1;
nodes = (
"110 -2 LINE",
"131 237 OFFCURVE",
"175 439 OFFCURVE",
"235 577 CURVE",
"213 577 LINE",
"273 439 OFFCURVE",
"317 237 OFFCURVE",
"338 -2 CURVE",
"412 3 LINE",
"392 245 OFFCURVE",
"339 477 OFFCURVE",
"256 643 CURVE",
"192 643 LINE",
"109 477 OFFCURVE",
"56 245 OFFCURVE",
"36 3 CURVE"
);
},
{
closed = 1;
nodes = (
"97 192 LINE",
"353 192 LINE",
"353 256 LINE",
"97 256 LINE"
);
}
);
width = 448;
},
{
anchors = (
{
name = topUC;
position = "{224, 640}";
}
);
background = {
paths = (
{
closed = 1;
nodes = (
"140 -2 LINE",
"158 237 OFFCURVE",
"194 439 OFFCURVE",
"243 577 CURVE",
"205 577 LINE",
"254 439 OFFCURVE",
"290 237 OFFCURVE",
"308 -2 CURVE",
"422 3 LINE",
"403 245 OFFCURVE",
"354 477 OFFCURVE",
"276 643 CURVE",
"172 643 LINE",
"94 477 OFFCURVE",
"45 245 OFFCURVE",
"26 3 CURVE"
);
},
{
closed = 1;
nodes = (
"97 160 LINE",
"353 160 LINE",
"353 240 LINE",
"97 240 LINE"
);
}
);
};
layerId = "92967D72-867E-4A8B-929F-F44D834DD4C9";
paths = (
{
closed = 1;
nodes = (
"140 -2 LINE",
"158 237 OFFCURVE",
"194 439 OFFCURVE",
"243 577 CURVE",
"205 577 LINE",
"254 439 OFFCURVE",
"290 237 OFFCURVE",
"308 -2 CURVE",
"422 3 LINE",
"403 245 OFFCURVE",
"354 477 OFFCURVE",
"276 643 CURVE",
"172 643 LINE",
"94 477 OFFCURVE",
"45 245 OFFCURVE",
"26 3 CURVE"
);
},
{
closed = 1;
nodes = (
"97 160 LINE",
"353 160 LINE",
"353 240 LINE",
"97 240 LINE"
);
}
);
width = 448;
},
{
anchors = (
{
name = topUC;
position = "{224, 640}";
}
);
layerId = "7DDCEF54-C770-4FAD-B154-EE8058BAA7E5";
paths = (
{
closed = 1;
nodes = (
"92 -2 LINE",
"115 237 OFFCURVE",
"164 439 OFFCURVE",
"230 577 CURVE",
"218 577 LINE",
"284 439 OFFCURVE",
"333 237 OFFCURVE",
"356 -2 CURVE",
"406 3 LINE",
"385 245 OFFCURVE",
"330 477 OFFCURVE",
"244 643 CURVE",
"204 643 LINE",
"118 477 OFFCURVE",
"63 245 OFFCURVE",
"42 3 CURVE"
);
},
{
closed = 1;
nodes = (
"97 211 LINE",
"353 211 LINE",
"353 266 LINE",
"97 266 LINE"
);
}
);
width = 448;
}
);
leftKerningGroup = A;
rightKerningGroup = A;
unicode = 0041;
},
{
glyphname = AE;
layers = (
{
background = {
paths = (
{
closed = 1;
nodes = (
"56 -2 LINE",
"77 237 OFFCURVE",
"121 439 OFFCURVE",
"181 576 CURVE",
"448 576 LINE",
"448 640 LINE",
"136 640 LINE",
"55 476 OFFCURVE",
"2 245 OFFCURVE",
"-18 3 CURVE"
);
},
{
closed = 1;
nodes = (
"43 192 LINE",
"234 192 LINE",
"234 256 LINE",
"43 256 LINE"
);
},
{
closed = 1;
nodes = (
"199 0 LINE",
"271 0 LINE",
"271 576 LINE",
"199 576 LINE"
);
},
{
closed = 1;
nodes = (
"266 0 LINE",
"458 0 LINE",
"458 64 LINE",
"266 64 LINE"
);
},
{
closed = 1;
nodes = (
"266 256 LINE",
"394 256 LINE",
"394 320 LINE",
"266 320 LINE"
);
}
);
};
hints = (
{
horizontal = 1;
origin = "{0, 10}";
type = Anchor;
stem = 6;
},
{
horizontal = 1;
origin = "{0, 7}";
target = "{0, 15}";
type = TTStem;
options = 4;
},
{
horizontal = 1;
origin = "{0, 15}";
target = "{0, 4}";
type = Align;
options = 4;
},
{
horizontal = 1;
origin = "{0, 16}";
target = "{0, 19}";
type = TTStem;
options = 4;
},
{
horizontal = 1;
origin = "{0, 14, 1, 1}";
type = Anchor;
},
{
horizontal = 1;
origin = "{0, 14, 1, 1}";
target = "{0, 14, 1, 3}";
type = TTStem;
options = 4;
},
{
horizontal = 1;
origin = "{0, 0}";
type = Anchor;
},
{
horizontal = 1;
origin = "{0, 0}";
target = "{0, 3}";
type = TTStem;
options = 4;
}
);
layerId = "95FB0C11-C828-4064-8966-34220AA4D426";
paths = (
{
closed = 1;
nodes = (
"271 256 LINE",
"394 256 LINE",
"394 320 LINE",
"271 320 LINE",
"271 576 LINE",
"448 576 LINE",
"448 640 LINE",
"136 640 LINE",
"55 476 OFFCURVE",
"2 245 OFFCURVE",
"-18 3 CURVE",
"56 -2 LINE",
"77 237 OFFCURVE",
"121 439 OFFCURVE",
"181 576 CURVE",
"199 576 LINE",
"199 0 LINE",
"458 0 LINE",
"458 64 LINE",
"271 64 LINE"
);
},
{
closed = 1;
nodes = (
"43 192 LINE",
"234 192 LINE",
"234 256 LINE",
"43 256 LINE"
);
}
);
width = 448;
},
{
background = {
paths = (
{
closed = 1;
nodes = (
"56 -2 LINE",
"77 237 OFFCURVE",
"121 439 OFFCURVE",
"181 576 CURVE",
"448 576 LINE",
"448 640 LINE",
"136 640 LINE",
"55 476 OFFCURVE",
"2 245 OFFCURVE",
"-18 3 CURVE"
);
},
{
closed = 1;
nodes = (
"43 192 LINE",
"234 192 LINE",
"234 256 LINE",
"43 256 LINE"
);
},
{
closed = 1;
nodes = (
"199 0 LINE",
"271 0 LINE",
"271 576 LINE",
"199 576 LINE"
);
},
{
closed = 1;
nodes = (
"266 0 LINE",
"458 0 LINE",
"458 64 LINE",
"266 64 LINE"
);
},
{
closed = 1;
nodes = (
"266 256 LINE",
"394 256 LINE",
"394 320 LINE",
"266 320 LINE"
);
}
);
};
color = 1;
layerId = "92967D72-867E-4A8B-929F-F44D834DD4C9";
paths = (
{
closed = 1;
nodes = (
"271 256 LINE",
"394 256 LINE",
"394 320 LINE",
"271 320 LINE",
"271 576 LINE",
"448 576 LINE",
"448 640 LINE",
"136 640 LINE",
"55 476 OFFCURVE",
"2 245 OFFCURVE",
"-18 3 CURVE",
"56 -2 LINE",
"77 237 OFFCURVE",
"121 439 OFFCURVE",
"181 576 CURVE",
"199 576 LINE",
"199 0 LINE",
"458 0 LINE",
"458 64 LINE",
"271 64 LINE"
);
},
{
closed = 1;
nodes = (
"43 192 LINE",
"234 192 LINE",
"234 256 LINE",
"43 256 LINE"
);
}
);
width = 448;
},
{
layerId = "7DDCEF54-C770-4FAD-B154-EE8058BAA7E5";
paths = (
{
closed = 1;
nodes = (
"271 256 LINE",
"394 256 LINE",
"394 320 LINE",
"271 320 LINE",
"271 576 LINE",
"448 576 LINE",
"448 640 LINE",
"136 640 LINE",
"55 476 OFFCURVE",
"2 245 OFFCURVE",
"-18 3 CURVE",
"56 -2 LINE",
"77 237 OFFCURVE",
"121 439 OFFCURVE",
"181 576 CURVE",
"199 576 LINE",
"199 0 LINE",
"458 0 LINE",
"458 64 LINE",
"271 64 LINE"
);
},
{
closed = 1;
nodes = (
"43 192 LINE",
"234 192 LINE",
"234 256 LINE",
"43 256 LINE"
);
}
);
width = 448;
}
);
leftKerningGroup = A;
unicode = 00C6;
},
{
color = 3;
glyphname = B;
layers = (
{
background = {
paths = (
{
closed = 1;
nodes = (
"60 0 LINE",
"132 0 LINE",
"132 640 LINE",
"60 640 LINE"
);
},
{
closed = 1;
nodes = (
"128 272 LINE",
"202 272 LINE SMOOTH",
"301 272 OFFCURVE",
"335 232 OFFCURVE",
"335 170 CURVE SMOOTH",
"335 100 OFFCURVE",
"302 64 OFFCURVE",
"202 64 CURVE SMOOTH",
"128 64 LINE",
"128 0 LINE",
"212 0 LINE SMOOTH",
"331 0 OFFCURVE",
"411 59 OFFCURVE",
"411 168 CURVE SMOOTH",
"411 250 OFFCURVE",
"363 299 OFFCURVE",
"292 315 CURVE",
"251 336 LINE",
"128 336 LINE"
);
},
{
closed = 1;
nodes = (
"128 576 LINE",
"184 576 LINE SMOOTH",
"280 576 OFFCURVE",
"312 541 OFFCURVE",
"312 476 CURVE SMOOTH",
"312 423 OFFCURVE",
"286 363 OFFCURVE",
"232 329 CURVE",
"264 282 LINE",
"355 344 OFFCURVE",
"390 408 OFFCURVE",
"390 476 CURVE SMOOTH",
"390 586 OFFCURVE",
"315 640 OFFCURVE",
"192 640 CURVE SMOOTH",
"128 640 LINE"
);
}
);
};
hints = (
{
horizontal = 1;
origin = "{0, 0}";
target = "{1, 7}";
type = TTStem;
options = 4;
},
{
horizontal = 1;
origin = "{0, 23}";
target = "{0, 10}";
type = TTStem;
options = 4;
},
{
horizontal = 1;
origin = "{1, 0}";
type = Anchor;
},
{
horizontal = 1;
origin = "{1, 0}";
target = "{0, 8}";
type = TTStem;
options = 4;
},
{
horizontal = 1;
origin = "{1, 0}";
target = "{0, 8}";
other1 = "{0, 6, 0, 20}";
type = Interpolate;
options = 4;
}
);
layerId = "95FB0C11-C828-4064-8966-34220AA4D426";
paths = (
{
closed = 1;
nodes = (
"212 0 LINE SMOOTH",
"331 0 OFFCURVE",
"411 59 OFFCURVE",
"411 168 CURVE SMOOTH",
"411 250 OFFCURVE",
"363 299 OFFCURVE",
"292 315 CURVE",
"251 336 LINE",
"132 336 LINE",
"132 576 LINE",
"184 576 LINE SMOOTH",
"280 576 OFFCURVE",
"312 541 OFFCURVE",
"312 476 CURVE SMOOTH",
"312 423 OFFCURVE",
"286 363 OFFCURVE",
"232 329 CURVE",
"264 282 LINE",
"355 344 OFFCURVE",
"390 408 OFFCURVE",
"390 476 CURVE SMOOTH",
"390 586 OFFCURVE",
"315 640 OFFCURVE",
"192 640 CURVE SMOOTH",
"60 640 LINE",
"60 0 LINE"
);
},
{
closed = 1;
nodes = (
"132 272 LINE",
"202 272 LINE SMOOTH",
"301 272 OFFCURVE",
"335 232 OFFCURVE",
"335 170 CURVE SMOOTH",
"335 100 OFFCURVE",
"302 64 OFFCURVE",
"202 64 CURVE SMOOTH",
"132 64 LINE"
);
}
);
width = 448;
},
{
background = {
paths = (
{
closed = 1;
nodes = (
"50 0 LINE",
"162 0 LINE",
"162 640 LINE",
"50 640 LINE"
);
},
{
closed = 1;
nodes = (
"128 264 LINE",
"191 264 LINE SMOOTH",
"276 264 OFFCURVE",
"305 229 OFFCURVE",
"305 174 CURVE SMOOTH",
"305 112 OFFCURVE",
"277 80 OFFCURVE",
"191 80 CURVE SMOOTH",
"128 80 LINE",
"128 0 LINE",
"215 0 LINE SMOOTH",
"338 0 OFFCURVE",
"421 61 OFFCURVE",
"421 172 CURVE SMOOTH",
"421 256 OFFCURVE",
"372 306 OFFCURVE",
"298 322 CURVE",
"256 344 LINE",
"128 344 LINE"
);
},
{
closed = 1;
nodes = (
"128 560 LINE",
"175 560 LINE SMOOTH",
"255 560 OFFCURVE",
"282 527 OFFCURVE",
"282 466 CURVE SMOOTH",
"282 419 OFFCURVE",
"262 366 OFFCURVE",
"224 336 CURVE",
"272 276 LINE",
"364 340 OFFCURVE",
"400 406 OFFCURVE",
"400 476 CURVE SMOOTH",
"400 586 OFFCURVE",
"322 640 OFFCURVE",
"195 640 CURVE SMOOTH",
"128 640 LINE"
);
}
);
};
layerId = "92967D72-867E-4A8B-929F-F44D834DD4C9";
paths = (
{
closed = 1;
nodes = (
"215 0 LINE SMOOTH",
"338 0 OFFCURVE",
"421 61 OFFCURVE",
"421 172 CURVE SMOOTH",
"421 256 OFFCURVE",
"372 306 OFFCURVE",
"298 322 CURVE",
"256 344 LINE",
"162 344 LINE",
"162 560 LINE",
"175 560 LINE SMOOTH",
"255 560 OFFCURVE",
"282 527 OFFCURVE",
"282 466 CURVE SMOOTH",
"282 419 OFFCURVE",
"262 366 OFFCURVE",
"224 336 CURVE",
"272 276 LINE",
"364 340 OFFCURVE",
"400 406 OFFCURVE",
"400 476 CURVE SMOOTH",
"400 586 OFFCURVE",
"322 640 OFFCURVE",
"195 640 CURVE SMOOTH",
"50 640 LINE",
"50 0 LINE"
);
},
{
closed = 1;
nodes = (
"162 264 LINE",
"191 264 LINE SMOOTH",
"276 264 OFFCURVE",
"305 229 OFFCURVE",
"305 174 CURVE SMOOTH",
"305 112 OFFCURVE",
"277 80 OFFCURVE",
"191 80 CURVE SMOOTH",
"162 80 LINE"
);
}
);
width = 448;
},
{
background = {
paths = (
{
closed = 1;
nodes = (
"66 0 LINE",
"114 0 LINE",
"114 640 LINE",
"66 640 LINE"
);
},
{
closed = 0;
nodes = (
"128 0 LINE",
"210 0 LINE SMOOTH",
"327 0 OFFCURVE",
"405 58 OFFCURVE",
"405 166 CURVE SMOOTH",
"405 246 OFFCURVE",
"358 295 OFFCURVE",
"288 311 CURVE",
"248 331 LINE",
"128 331 LINE"
);
},
{
closed = 0;
nodes = (
"128 586 LINE",
"189 586 LINE SMOOTH",
"295 586 OFFCURVE",
"330 549 OFFCURVE",
"330 482 CURVE SMOOTH",
"330 425 OFFCURVE",
"300 361 OFFCURVE",
"237 325 CURVE",
"259 286 LINE",
"350 346 OFFCURVE",
"384 409 OFFCURVE",
"384 476 CURVE SMOOTH",
"384 586 OFFCURVE",
"311 640 OFFCURVE",
"190 640 CURVE SMOOTH",
"128 640 LINE"
);
},
{
closed = 0;
nodes = (
"128 277 LINE",
"209 277 LINE SMOOTH",
"316 277 OFFCURVE",
"353 234 OFFCURVE",
"353 168 CURVE SMOOTH",
"353 93 OFFCURVE",
"317 54 OFFCURVE",
"209 54 CURVE SMOOTH",
"128 54 LINE"
);
}
);
};
layerId = "7DDCEF54-C770-4FAD-B154-EE8058BAA7E5";
paths = (
{
closed = 1;
nodes = (
"210 0 LINE SMOOTH",
"327 0 OFFCURVE",
"405 57 OFFCURVE",
"405 164 CURVE SMOOTH",
"405 245 OFFCURVE",
"356 295 OFFCURVE",
"284 311 CURVE",
"248 326 LINE",
"114 326 LINE",
"114 596 LINE",
"189 596 LINE SMOOTH",
"289 596 OFFCURVE",
"330 556 OFFCURVE",
"330 483 CURVE SMOOTH",
"330 424 OFFCURVE",
"300 357 OFFCURVE",
"237 320 CURVE",
"259 291 LINE",
"350 350 OFFCURVE",
"384 412 OFFCURVE",
"384 478 CURVE SMOOTH",
"384 587 OFFCURVE",
"311 640 OFFCURVE",
"190 640 CURVE SMOOTH",
"66 640 LINE",
"66 0 LINE"
);
},
{
closed = 1;
nodes = (
"114 282 LINE",
"209 282 LINE SMOOTH",
"316 282 OFFCURVE",
"353 235 OFFCURVE",
"353 164 CURVE SMOOTH",
"353 85 OFFCURVE",
"309 44 OFFCURVE",
"209 44 CURVE SMOOTH",
"114 44 LINE"
);
}
);
width = 448;
}
);
unicode = 0042;
},
{
glyphname = C;
layers = (
{
anchors = (
{
name = bottom;
position = "{224, 0}";
},
{
name = topUC;
position = "{256, 640}";
}
);
background = {
paths = (
{
closed = 1;
nodes = (
"138 319 CURVE SMOOTH",
"138 507 OFFCURVE",
"149 583 OFFCURVE",
"280 583 CURVE SMOOTH",
"305 583 OFFCURVE",
"335 580 OFFCURVE",
"364 574 CURVE",
"378 635 LINE",
"345 643 OFFCURVE",
"305 647 OFFCURVE",
"274 647 CURVE SMOOTH",
"118 647 OFFCURVE",
"60 560 OFFCURVE",
"60 319 CURVE SMOOTH",
"60 78 OFFCURVE",
"118 -9 OFFCURVE",
"274 -9 CURVE SMOOTH",
"309 -9 OFFCURVE",
"351 -4 OFFCURVE",
"384 5 CURVE",
"370 66 LINE",
"337 58 OFFCURVE",
"306 55 OFFCURVE",
"280 55 CURVE SMOOTH",
"149 55 OFFCURVE",
"138 131 OFFCURVE"
);
}
);
};
hints = (
{
horizontal = 1;
origin = "{0, 16}";
target = "{0, 23}";
type = TTStem;
options = 4;
},
{
horizontal = 1;
origin = "{0, 10}";
target = "{0, 3}";
type = TTStem;
options = 4;
}
);
layerId = "95FB0C11-C828-4064-8966-34220AA4D426";
paths = (
{
closed = 1;
nodes = (
"138 319 CURVE SMOOTH",
"138 507 OFFCURVE",
"149 583 OFFCURVE",
"280 583 CURVE SMOOTH",
"305 583 OFFCURVE",
"335 580 OFFCURVE",
"364 574 CURVE",
"378 635 LINE",
"345 643 OFFCURVE",
"305 647 OFFCURVE",
"274 647 CURVE SMOOTH",
"118 647 OFFCURVE",
"60 560 OFFCURVE",
"60 319 CURVE SMOOTH",
"60 78 OFFCURVE",
"118 -9 OFFCURVE",
"274 -9 CURVE SMOOTH",
"309 -9 OFFCURVE",
"351 -4 OFFCURVE",
"384 5 CURVE",
"370 66 LINE",
"337 58 OFFCURVE",
"306 55 OFFCURVE",
"280 55 CURVE SMOOTH",
"149 55 OFFCURVE",
"138 131 OFFCURVE"
);
}
);
width = 448;
},
{
anchors = (
{
name = bottom;
position = "{224, 0}";
},
{
name = topUC;
position = "{256, 640}";
}
);
background = {
paths = (
{
closed = 1;
nodes = (
"168 319 CURVE SMOOTH",
"168 496 OFFCURVE",
"178 567 OFFCURVE",
"297 567 CURVE SMOOTH",
"320 567 OFFCURVE",
"348 564 OFFCURVE",
"374 558 CURVE",
"388 632 LINE",
"353 642 OFFCURVE",
"310 647 OFFCURVE",
"277 647 CURVE SMOOTH",
"112 647 OFFCURVE",
"50 560 OFFCURVE",
"50 319 CURVE SMOOTH",
"50 78 OFFCURVE",
"112 -9 OFFCURVE",
"277 -9 CURVE SMOOTH",
"314 -9 OFFCURVE",
"359 -3 OFFCURVE",
"394 8 CURVE",
"380 82 LINE",
"350 74 OFFCURVE",
"322 71 OFFCURVE",
"298 71 CURVE SMOOTH",
"178 71 OFFCURVE",
"168 142 OFFCURVE"
);
}
);
};
layerId = "92967D72-867E-4A8B-929F-F44D834DD4C9";
paths = (
{
closed = 1;
nodes = (
"168 319 CURVE SMOOTH",
"168 496 OFFCURVE",
"178 567 OFFCURVE",
"297 567 CURVE SMOOTH",
"320 567 OFFCURVE",
"348 564 OFFCURVE",
"374 558 CURVE",
"388 632 LINE",
"353 642 OFFCURVE",
"310 647 OFFCURVE",
"277 647 CURVE SMOOTH",
"112 647 OFFCURVE",
"50 560 OFFCURVE",
"50 319 CURVE SMOOTH",
"50 78 OFFCURVE",
"112 -9 OFFCURVE",
"277 -9 CURVE SMOOTH",
"314 -9 OFFCURVE",
"359 -3 OFFCURVE",
"394 8 CURVE",
"380 82 LINE",
"350 74 OFFCURVE",
"322 71 OFFCURVE",
"298 71 CURVE SMOOTH",
"178 71 OFFCURVE",
"168 142 OFFCURVE"
);
}
);
width = 448;
},
{
anchors = (
{
name = bottom;
position = "{224, 0}";
},
{
name = topUC;
position = "{256, 640}";
}
);
layerId = "7DDCEF54-C770-4FAD-B154-EE8058BAA7E5";
paths = (
{
closed = 1;
nodes = (
"120 319 CURVE SMOOTH",
"120 514 OFFCURVE",
"132 593 OFFCURVE",
"270 593 CURVE SMOOTH",
"296 593 OFFCURVE",
"327 590 OFFCURVE",
"358 584 CURVE",
"372 637 LINE",
"340 644 OFFCURVE",
"302 647 OFFCURVE",
"272 647 CURVE SMOOTH",
"122 647 OFFCURVE",
"66 560 OFFCURVE",
"66 319 CURVE SMOOTH",
"66 78 OFFCURVE",
"122 -9 OFFCURVE",
"272 -9 CURVE SMOOTH",
"306 -9 OFFCURVE",
"346 -5 OFFCURVE",
"378 3 CURVE",
"364 56 LINE",
"329 48 OFFCURVE",
"296 45 OFFCURVE",
"269 45 CURVE SMOOTH",
"132 45 OFFCURVE",
"120 124 OFFCURVE"
);
}
);
width = 448;
}
);
leftKerningGroup = O;
rightKerningGroup = C;
unicode = 0043;
},
{
color = 3;
glyphname = D;
layers = (
{
anchors = (
{
name = stemUC;
position = "{227, 362}";
},
{
name = topUC;
position = "{212, 640}";
}
);
background = {
paths = (
{
closed = 1;
nodes = (
"60 0 LINE",
"132 0 LINE",
"132 640 LINE",
"60 640 LINE"
);
},
{
closed = 1;
nodes = (
"107 640 LINE",
"107 576 LINE",
"174 576 LINE SMOOTH",
"301 576 OFFCURVE",
"316 500 OFFCURVE",
"316 317 CURVE SMOOTH",
"316 140 OFFCURVE",
"303 64 OFFCURVE",
"174 64 CURVE SMOOTH",
"105 64 LINE",
"105 0 LINE",
"181 0 LINE SMOOTH",
"333 0 OFFCURVE",
"394 86 OFFCURVE",
"394 317 CURVE SMOOTH",
"394 547 OFFCURVE",
"333 640 OFFCURVE",
"180 640 CURVE SMOOTH"
);
}
);
};
hints = (
{
horizontal = 1;
origin = "{0, 8}";
target = "{1, 2}";
type = TTStem;
options = 4;
},
{
horizontal = 1;
origin = "{0, 2}";
target = "{1, 8}";
type = TTStem;
options = 4;
}
);
layerId = "95FB0C11-C828-4064-8966-34220AA4D426";
paths = (
{
closed = 1;
nodes = (
"60 640 LINE",
"60 0 LINE",
"181 0 LINE SMOOTH",
"333 0 OFFCURVE",
"394 86 OFFCURVE",
"394 317 CURVE SMOOTH",
"394 547 OFFCURVE",
"333 640 OFFCURVE",
"180 640 CURVE SMOOTH"
);
},
{
closed = 1;
nodes = (
"132 64 LINE",
"132 576 LINE",
"174 576 LINE SMOOTH",
"301 576 OFFCURVE",
"316 500 OFFCURVE",
"316 317 CURVE SMOOTH",
"316 140 OFFCURVE",
"303 64 OFFCURVE",
"174 64 CURVE SMOOTH"
);
}
);
width = 448;
},
{
anchors = (
{
name = stemUC;
position = "{227, 362}";
},
{
name = topUC;
position = "{212, 640}";
}
);
background = {
paths = (
{
closed = 1;
nodes = (
"50 0 LINE",
"162 0 LINE",
"162 640 LINE",
"50 640 LINE"
);
},
{
closed = 1;
nodes = (
"107 640 LINE",
"107 560 LINE",
"176 560 LINE SMOOTH",
"273 560 OFFCURVE",
"286 489 OFFCURVE",
"286 317 CURVE SMOOTH",
"286 151 OFFCURVE",
"275 80 OFFCURVE",
"176 80 CURVE SMOOTH",
"105 80 LINE",
"105 0 LINE",
"183 0 LINE SMOOTH",
"341 0 OFFCURVE",
"404 86 OFFCURVE",
"404 317 CURVE SMOOTH",
"404 547 OFFCURVE",
"341 640 OFFCURVE",
"182 640 CURVE SMOOTH"
);
}
);
};
layerId = "92967D72-867E-4A8B-929F-F44D834DD4C9";
paths = (
{
closed = 1;
nodes = (
"50 640 LINE",
"50 0 LINE",
"183 0 LINE SMOOTH",
"341 0 OFFCURVE",
"404 86 OFFCURVE",
"404 317 CURVE SMOOTH",
"404 547 OFFCURVE",
"341 640 OFFCURVE",
"182 640 CURVE SMOOTH"
);
},
{
closed = 1;
nodes = (
"162 80 LINE",
"162 560 LINE",
"176 560 LINE SMOOTH",
"273 560 OFFCURVE",
"286 489 OFFCURVE",
"286 317 CURVE SMOOTH",
"286 151 OFFCURVE",
"275 80 OFFCURVE",
"176 80 CURVE SMOOTH"
);
}
);
width = 448;
},
{
anchors = (
{
name = stemUC;
position = "{227, 362}";
},
{
name = topUC;
position = "{212, 640}";
}
);
background = {
paths = (
{
closed = 1;
nodes = (
"66 640 LINE",
"66 0 LINE",
"180 0 LINE SMOOTH",
"328 0 OFFCURVE",
"388 86 OFFCURVE",
"388 317 CURVE SMOOTH",
"388 547 OFFCURVE",
"328 640 OFFCURVE",
"179 640 CURVE SMOOTH"
);
},
{
closed = 1;
nodes = (
"114 54 LINE",
"114 586 LINE",
"173 586 LINE SMOOTH",
"318 586 OFFCURVE",
"334 507 OFFCURVE",
"334 317 CURVE SMOOTH",
"334 133 OFFCURVE",
"320 54 OFFCURVE",
"173 54 CURVE SMOOTH"
);
}
);
};
layerId = "7DDCEF54-C770-4FAD-B154-EE8058BAA7E5";
paths = (
{
closed = 1;
nodes = (
"66 640 LINE",
"66 0 LINE",
"180 0 LINE SMOOTH",
"328 0 OFFCURVE",
"388 86 OFFCURVE",
"388 317 CURVE SMOOTH",
"388 547 OFFCURVE",
"328 640 OFFCURVE",
"179 640 CURVE SMOOTH"
);
},
{
closed = 1;
nodes = (
"114 44 LINE",
"114 596 LINE",
"173 596 LINE SMOOTH",
"314 596 OFFCURVE",
"334 507 OFFCURVE",
"334 317 CURVE SMOOTH",
"334 133 OFFCURVE",
"316 44 OFFCURVE",
"173 44 CURVE SMOOTH"
);
}
);
width = 448;
}
);
rightKerningGroup = O;
unicode = 0044;
},
{
color = 7;
glyphname = Eth;
layers = (
{
background = {
components = (
{
name = D;
}
);
paths = (
{
closed = 1;
nodes = (
"5 256 LINE",
"236 256 LINE",
"236 320 LINE",
"5 320 LINE"
);
}
);
};
components = (
{
name = D;
}
);
layerId = "95FB0C11-C828-4064-8966-34220AA4D426";
paths = (
{
closed = 1;
nodes = (
"5 256 LINE",
"236 256 LINE",
"236 320 LINE",
"5 320 LINE"
);
}
);
width = 448;
},
{
background = {
components = (
{
name = D;
}
);
paths = (
{
closed = 1;
nodes = (
"-5 248 LINE",
"246 248 LINE",
"246 328 LINE",
"-5 328 LINE"
);
}
);
};
components = (
{
name = D;
}
);
layerId = "92967D72-867E-4A8B-929F-F44D834DD4C9";
paths = (
{
closed = 1;
nodes = (
"-5 248 LINE",
"246 248 LINE",
"246 328 LINE",
"-5 328 LINE"
);
}
);
width = 448;
},
{
components = (
{
name = D;
}
);
layerId = "7DDCEF54-C770-4FAD-B154-EE8058BAA7E5";
paths = (
{
closed = 1;
nodes = (
"11 266 LINE",
"230 266 LINE",
"230 310 LINE",
"11 310 LINE"
);
}
);
width = 448;
}
);
rightKerningGroup = O;
unicode = 00D0;
},
{
color = 6;
glyphname = Dcroat;
layers = (
{
background = {
components = (
{
name = D;
}
);
paths = (
{
closed = 1;
nodes = (
"5 256 LINE",
"236 256 LINE",
"236 320 LINE",
"5 320 LINE"
);
}
);
};
components = (
{
name = Eth;
}
);
layerId = "95FB0C11-C828-4064-8966-34220AA4D426";
width = 448;
},
{
background = {
components = (
{
name = D;
}
);
paths = (
{
closed = 1;
nodes = (
"-5 248 LINE",
"246 248 LINE",
"246 328 LINE",
"-5 328 LINE"
);
}
);
};
components = (
{
name = Eth;
}
);
layerId = "92967D72-867E-4A8B-929F-F44D834DD4C9";
width = 448;
},
{
components = (
{
name = Eth;
}
);
layerId = "7DDCEF54-C770-4FAD-B154-EE8058BAA7E5";
width = 448;
}
);
rightKerningGroup = O;
unicode = 0110;
},
{
color = 3;
glyphname = E;
layers = (
{
anchors = (
{
name = bottom;
position = "{224, 0}";
},
{
name = bottomAttach;
position = "{350, 0}";
},
{
name = topUC;
position = "{220, 640}";
}
);
background = {
paths = (
{
closed = 1;
nodes = (
"374 640 LINE",
"60 640 LINE",
"60 0 LINE",
"384 0 LINE",
"384 64 LINE",
"132 64 LINE",
"132 256 LINE",
"320 256 LINE",
"320 320 LINE",
"132 320 LINE",
"132 576 LINE",
"374 576 LINE"
);
}
);
};
hints = (
{
horizontal = 1;
origin = "{0, 11}";
target = "{0, 2}";
type = TTStem;
options = 4;
},
{
horizontal = 1;
origin = "{0, 10}";
target = "{0, 7}";
type = TTStem;
options = 4;
},
{
horizontal = 1;
origin = "{0, 3}";
type = Anchor;
},
{
horizontal = 1;
origin = "{0, 3}";
target = "{0, 6}";
type = TTStem;
options = 4;
}
);
layerId = "95FB0C11-C828-4064-8966-34220AA4D426";
paths = (
{
closed = 1;
nodes = (
"384 0 LINE",
"384 64 LINE",
"132 64 LINE",
"132 256 LINE",
"320 256 LINE",
"320 320 LINE",
"132 320 LINE",
"132 576 LINE",
"374 576 LINE",
"374 640 LINE",
"60 640 LINE",
"60 0 LINE"
);
}
);
width = 448;
},
{
anchors = (
{
name = bottom;
position = "{224, 0}";
},
{
name = bottomAttach;
position = "{350, 0}";
},
{
name = topUC;
position = "{220, 640}";
}
);
background = {
paths = (
{
closed = 1;
nodes = (
"394 640 LINE",
"50 640 LINE",
"50 0 LINE",
"404 0 LINE",
"404 80 LINE",
"162 80 LINE",
"162 248 LINE",
"340 248 LINE",
"340 328 LINE",
"162 328 LINE",
"162 560 LINE",
"394 560 LINE"
);
}
);
};
layerId = "92967D72-867E-4A8B-929F-F44D834DD4C9";
paths = (
{
closed = 1;
nodes = (
"404 0 LINE",
"404 80 LINE",
"162 80 LINE",
"162 248 LINE",
"340 248 LINE",
"340 328 LINE",
"162 328 LINE",
"162 560 LINE",
"394 560 LINE",
"394 640 LINE",
"50 640 LINE",
"50 0 LINE"
);
}
);
width = 448;
},
{
anchors = (
{
name = bottom;
position = "{224, 0}";
},
{
name = bottomAttach;
position = "{350, 0}";
},
{
name = topUC;
position = "{220, 640}";
}
);
layerId = "7DDCEF54-C770-4FAD-B154-EE8058BAA7E5";
paths = (
{
closed = 1;
nodes = (
"372 0 LINE",
"372 44 LINE",
"114 44 LINE",
"114 266 LINE",
"308 266 LINE",
"308 310 LINE",
"114 310 LINE",
"114 596 LINE",
"362 596 LINE",
"362 640 LINE",
"66 640 LINE",
"66 0 LINE"
);
}
);
width = 448;
}
);
unicode = 0045;
},
{
color = 3;
glyphname = F;
layers = (
{
background = {
paths = (
{
closed = 1;
nodes = (
"384 640 LINE",
"60 640 LINE",
"60 0 LINE",
"132 0 LINE",
"132 256 LINE",
"320 256 LINE",
"320 320 LINE",
"132 320 LINE",
"132 576 LINE",
"384 576 LINE"
);
}
);
};
hints = (
{
horizontal = 1;
origin = "{0, 0}";
type = Anchor;
},
{
horizontal = 1;
origin = "{0, 8}";
target = "{0, 5}";
type = TTStem;
options = 4;
},
{
horizontal = 1;
origin = "{0, 1}";
type = Anchor;
},
{
horizontal = 1;
origin = "{0, 1}";
target = "{0, 4}";
type = TTStem;
options = 4;
}
);
layerId = "95FB0C11-C828-4064-8966-34220AA4D426";
paths = (
{
closed = 1;
nodes = (
"132 0 LINE",
"132 256 LINE",
"320 256 LINE",
"320 320 LINE",
"132 320 LINE",
"132 576 LINE",
"384 576 LINE",
"384 640 LINE",
"60 640 LINE",
"60 0 LINE"
);
}
);
width = 448;
},
{
background = {
paths = (
{
closed = 1;
nodes = (
"404 640 LINE",
"48 640 LINE",
"48 0 LINE",
"160 0 LINE",
"160 248 LINE",
"340 248 LINE",
"340 328 LINE",
"160 328 LINE",
"160 560 LINE",
"404 560 LINE"
);
}
);
};
layerId = "92967D72-867E-4A8B-929F-F44D834DD4C9";
paths = (
{
closed = 1;
nodes = (
"160 0 LINE",
"160 248 LINE",
"340 248 LINE",
"340 328 LINE",
"160 328 LINE",
"160 560 LINE",
"404 560 LINE",
"404 640 LINE",
"48 640 LINE",
"48 0 LINE"
);
}
);
width = 448;
},
{
layerId = "7DDCEF54-C770-4FAD-B154-EE8058BAA7E5";
paths = (
{
closed = 1;
nodes = (
"115 0 LINE",
"115 266 LINE",
"308 266 LINE",
"308 310 LINE",
"115 310 LINE",
"115 596 LINE",
"372 596 LINE",
"372 640 LINE",
"67 640 LINE",
"67 0 LINE"
);
}
);
width = 448;
}
);
unicode = 0046;
},
{
glyphname = G;
layers = (
{
anchors = (
{
name = bottom;
position = "{207, -40}";
},
{
name = topUC;
position = "{244, 640}";
}
);
background = {
paths = (
{
closed = 1;
nodes = (
"132 319 CURVE SMOOTH",
"132 507 OFFCURVE",
"143 583 OFFCURVE",
"274 583 CURVE SMOOTH",
"296 583 OFFCURVE",
"333 580 OFFCURVE",
"371 571 CURVE",
"385 632 LINE",
"347 642 OFFCURVE",
"301 647 OFFCURVE",
"268 647 CURVE SMOOTH",
"112 647 OFFCURVE",
"54 560 OFFCURVE",
"54 319 CURVE SMOOTH",
"54 78 OFFCURVE",
"112 -9 OFFCURVE",
"268 -9 CURVE SMOOTH",
"301 -9 OFFCURVE",
"350 -4 OFFCURVE",
"388 7 CURVE",
"371 67 LINE",
"333 58 OFFCURVE",
"296 55 OFFCURVE",
"274 55 CURVE SMOOTH",
"143 55 OFFCURVE",
"132 131 OFFCURVE"
);
},
{
closed = 1;
nodes = (
"226 256 LINE",
"316 256 LINE",
"316 7 LINE",
"388 7 LINE",
"388 320 LINE",
"226 320 LINE"
);
}
);
};
hints = (
{
horizontal = 1;
origin = "{0, 16}";
target = "{0, 23}";
type = TTStem;
options = 4;
},
{
horizontal = 1;
origin = "{0, 10}";
target = "{0, 3}";
type = TTStem;
options = 4;
},
{
horizontal = 1;
origin = "{0, 16}";
target = "{0, 10}";
other1 = "{1, 1}";
type = Interpolate;
},
{
horizontal = 1;
origin = "{1, 1}";
target = "{1, 4}";
type = TTStem;
options = 4;
}
);
layerId = "95FB0C11-C828-4064-8966-34220AA4D426";
paths = (
{
closed = 1;
nodes = (
"132 319 CURVE SMOOTH",
"132 507 OFFCURVE",
"143 583 OFFCURVE",
"274 583 CURVE SMOOTH",
"296 583 OFFCURVE",
"333 580 OFFCURVE",
"371 571 CURVE",
"385 632 LINE",
"347 642 OFFCURVE",
"301 647 OFFCURVE",
"268 647 CURVE SMOOTH",
"112 647 OFFCURVE",
"54 560 OFFCURVE",
"54 319 CURVE SMOOTH",
"54 78 OFFCURVE",
"112 -9 OFFCURVE",
"268 -9 CURVE SMOOTH",
"301 -9 OFFCURVE",
"350 -4 OFFCURVE",
"388 7 CURVE",
"371 67 LINE",
"333 58 OFFCURVE",
"296 55 OFFCURVE",
"274 55 CURVE SMOOTH",
"143 55 OFFCURVE",
"132 131 OFFCURVE"
);
},
{
closed = 1;
nodes = (
"226 256 LINE",
"316 256 LINE",
"316 7 LINE",
"388 7 LINE",
"388 320 LINE",
"226 320 LINE"
);
}
);
width = 448;
},
{
anchors = (
{
name = bottom;
position = "{207, -40}";
},
{
name = topUC;
position = "{244, 640}";
}
);
background = {
paths = (
{
closed = 1;
nodes = (
"162 319 CURVE SMOOTH",
"162 496 OFFCURVE",
"172 567 OFFCURVE",
"292 567 CURVE SMOOTH",
"312 567 OFFCURVE",
"346 564 OFFCURVE",
"381 555 CURVE",
"395 629 LINE",
"355 641 OFFCURVE",
"306 647 OFFCURVE",
"271 647 CURVE SMOOTH",
"106 647 OFFCURVE",
"44 560 OFFCURVE",
"44 319 CURVE SMOOTH",
"44 78 OFFCURVE",
"106 -9 OFFCURVE",
"272 -9 CURVE SMOOTH",
"307 -9 OFFCURVE",
"359 -4 OFFCURVE",
"398 7 CURVE",
"381 83 LINE",
"346 77 OFFCURVE",
"309 71 OFFCURVE",
"275 71 CURVE SMOOTH",
"172 71 OFFCURVE",
"162 142 OFFCURVE"
);
},
{
closed = 1;
nodes = (
"211 248 LINE",
"286 248 LINE",
"286 7 LINE",
"398 7 LINE",
"398 328 LINE",
"211 328 LINE"
);
}
);
};
layerId = "92967D72-867E-4A8B-929F-F44D834DD4C9";
paths = (
{
closed = 1;
nodes = (
"162 319 CURVE SMOOTH",
"162 496 OFFCURVE",
"172 567 OFFCURVE",
"292 567 CURVE SMOOTH",
"312 567 OFFCURVE",
"346 564 OFFCURVE",
"381 555 CURVE",
"395 629 LINE",
"355 641 OFFCURVE",
"306 647 OFFCURVE",
"271 647 CURVE SMOOTH",
"106 647 OFFCURVE",
"44 560 OFFCURVE",
"44 319 CURVE SMOOTH",
"44 78 OFFCURVE",
"106 -9 OFFCURVE",
"272 -9 CURVE SMOOTH",
"307 -9 OFFCURVE",
"359 -4 OFFCURVE",
"398 7 CURVE",
"381 83 LINE",
"346 77 OFFCURVE",
"309 71 OFFCURVE",
"275 71 CURVE SMOOTH",
"172 71 OFFCURVE",
"162 142 OFFCURVE"
);
},
{
closed = 1;
nodes = (
"211 248 LINE",
"286 248 LINE",
"286 7 LINE",
"398 7 LINE",
"398 328 LINE",
"211 328 LINE"
);
}
);
width = 448;
},
{
anchors = (
{
name = bottom;
position = "{207, -40}";
},
{
name = topUC;
position = "{244, 640}";
}
);
layerId = "7DDCEF54-C770-4FAD-B154-EE8058BAA7E5";
paths = (
{
closed = 1;
nodes = (
"114 319 CURVE SMOOTH",
"114 514 OFFCURVE",
"126 593 OFFCURVE",
"263 593 CURVE SMOOTH",
"286 593 OFFCURVE",
"325 590 OFFCURVE",
"365 581 CURVE",
"379 634 LINE",
"342 643 OFFCURVE",
"298 647 OFFCURVE",
"266 647 CURVE SMOOTH",
"116 647 OFFCURVE",
"60 560 OFFCURVE",
"60 319 CURVE SMOOTH",
"60 78 OFFCURVE",
"116 -9 OFFCURVE",
"266 -9 CURVE SMOOTH",
"297 -9 OFFCURVE",
"345 -4 OFFCURVE",
"382 7 CURVE",
"365 57 LINE",
"325 47 OFFCURVE",
"288 45 OFFCURVE",
"273 45 CURVE SMOOTH",
"126 45 OFFCURVE",
"114 124 OFFCURVE"
);
},
{
closed = 1;
nodes = (
"235 261 LINE",
"334 261 LINE",
"334 7 LINE",
"382 7 LINE",
"382 315 LINE",
"235 315 LINE"
);
}
);
width = 448;
}
);
leftKerningGroup = O;
rightKerningGroup = G;
unicode = 0047;
},
{
color = 3;
glyphname = H;
layers = (
{
background = {
paths = (
{
closed = 1;
nodes = (
"132 256 LINE",
"316 256 LINE",
"316 0 LINE",
"388 0 LINE",
"388 640 LINE",
"316 640 LINE",
"316 320 LINE",
"132 320 LINE",
"132 640 LINE",
"60 640 LINE",
"60 0 LINE",
"132 0 LINE"
);
}
);
};
hints = (
{
horizontal = 1;
origin = "{0, 0}";
type = Anchor;
},
{
horizontal = 1;
origin = "{0, 3}";
type = Anchor;
},
{
horizontal = 1;
origin = "{0, 6}";
type = Anchor;
},
{
horizontal = 1;
origin = "{0, 9}";
type = Anchor;
},
{
horizontal = 1;
origin = "{0, 1}";
type = Anchor;
},
{
horizontal = 1;
origin = "{0, 1}";
target = "{0, 8}";
type = TTStem;
options = 4;
}
);
layerId = "95FB0C11-C828-4064-8966-34220AA4D426";
paths = (
{
closed = 1;
nodes = (
"132 0 LINE",
"132 256 LINE",
"316 256 LINE",
"316 0 LINE",
"388 0 LINE",
"388 640 LINE",
"316 640 LINE",
"316 320 LINE",
"132 320 LINE",
"132 640 LINE",
"60 640 LINE",
"60 0 LINE"
);
}
);
width = 448;
},
{
background = {
paths = (
{
closed = 1;
nodes = (
"162 248 LINE",
"286 248 LINE",
"286 0 LINE",
"398 0 LINE",
"398 640 LINE",
"286 640 LINE",
"286 328 LINE",
"162 328 LINE",
"162 640 LINE",
"50 640 LINE",
"50 0 LINE",
"162 0 LINE"
);
}
);
};
layerId = "92967D72-867E-4A8B-929F-F44D834DD4C9";
paths = (
{
closed = 1;
nodes = (
"162 0 LINE",
"162 248 LINE",
"286 248 LINE",
"286 0 LINE",
"398 0 LINE",
"398 640 LINE",
"286 640 LINE",
"286 328 LINE",
"162 328 LINE",
"162 640 LINE",
"50 640 LINE",
"50 0 LINE"
);
}
);
width = 448;
},
{
layerId = "7DDCEF54-C770-4FAD-B154-EE8058BAA7E5";
paths = (
{
closed = 1;
nodes = (
"114 0 LINE",
"114 266 LINE",
"334 266 LINE",
"334 0 LINE",
"382 0 LINE",
"382 640 LINE",
"334 640 LINE",
"334 310 LINE",
"114 310 LINE",
"114 640 LINE",
"66 640 LINE",
"66 0 LINE"
);
}
);
width = 448;
}
);
unicode = 0048;
},
{
color = 7;
glyphname = Hbar;
layers = (
{
background = {
components = (
{
name = H;
}
);
paths = (
{
closed = 1;
nodes = (
"10 440 LINE",
"438 440 LINE",
"438 500 LINE",
"10 500 LINE"
);
}
);
};
components = (
{
name = H;
}
);
layerId = "95FB0C11-C828-4064-8966-34220AA4D426";
paths = (
{
closed = 1;
nodes = (
"10 440 LINE",
"438 440 LINE",
"438 500 LINE",
"10 500 LINE"
);
}
);
width = 448;
},
{
background = {
components = (
{
name = H;
}
);
paths = (
{
closed = 1;
nodes = (
"0 440 LINE",
"448 440 LINE",
"448 516 LINE",
"0 516 LINE"
);
}
);
};
components = (
{
name = H;
}
);
layerId = "92967D72-867E-4A8B-929F-F44D834DD4C9";
paths = (
{
closed = 1;
nodes = (
"0 440 LINE",
"448 440 LINE",
"448 516 LINE",
"0 516 LINE"
);
}
);
width = 448;
},
{
components = (
{
name = H;
}
);
layerId = "7DDCEF54-C770-4FAD-B154-EE8058BAA7E5";
paths = (
{
closed = 1;
nodes = (
"10 452 LINE",
"438 452 LINE",
"438 496 LINE",
"10 496 LINE"
);
}
);
width = 448;
}
);
unicode = 0126;
},
{
color = 3;
glyphname = I;
layers = (
{
anchors = (
{
name = bottomAttach;
position = "{350, 0}";
},
{
name = topUC;
position = "{224, 640}";
}
);
background = {
paths = (
{
closed = 1;
nodes = (
"68 576 LINE",
"188 576 LINE",
"188 64 LINE",
"64 64 LINE",
"64 0 LINE",
"384 0 LINE",
"384 64 LINE",
"260 64 LINE",
"260 576 LINE",
"380 576 LINE",
"380 640 LINE",
"68 640 LINE"
);
}
);
};
hints = (
{
horizontal = 1;
origin = "{0, 6}";
target = "{0, 8}";
type = TTStem;
options = 4;
},
{
horizontal = 1;
origin = "{0, 11}";
target = "{0, 9}";
type = TTStem;
options = 4;
},
{
horizontal = 1;
origin = "{0, 9}";
target = "{0, 2}";
type = Align;
options = 4;
},
{
horizontal = 1;
origin = "{0, 8}";
target = "{0, 3}";
type = Align;
options = 4;
}
);
layerId = "95FB0C11-C828-4064-8966-34220AA4D426";
paths = (
{
closed = 1;
nodes = (
"384 0 LINE",
"384 64 LINE",
"260 64 LINE",
"260 576 LINE",
"380 576 LINE",
"380 640 LINE",
"68 640 LINE",
"68 576 LINE",
"188 576 LINE",
"188 64 LINE",
"64 64 LINE",
"64 0 LINE"
);
}
);
width = 448;
},
{
anchors = (
{
name = bottomAttach;
position = "{350, 0}";
},
{
name = topUC;
position = "{224, 640}";
}
);
background = {
paths = (
{
closed = 1;
nodes = (
"48 560 LINE",
"168 560 LINE",
"168 80 LINE",
"44 80 LINE",
"44 0 LINE",
"404 0 LINE",
"404 80 LINE",
"280 80 LINE",
"280 560 LINE",
"400 560 LINE",
"400 640 LINE",
"48 640 LINE"
);
}
);
};
layerId = "92967D72-867E-4A8B-929F-F44D834DD4C9";
paths = (
{
closed = 1;
nodes = (
"404 0 LINE",
"404 80 LINE",
"280 80 LINE",
"280 560 LINE",
"400 560 LINE",
"400 640 LINE",
"48 640 LINE",
"48 560 LINE",
"168 560 LINE",
"168 80 LINE",
"44 80 LINE",
"44 0 LINE"
);
}
);
width = 448;
},
{
anchors = (
{
name = bottomAttach;
position = "{350, 0}";
},
{
name = topUC;
position = "{224, 640}";
}
);
layerId = "7DDCEF54-C770-4FAD-B154-EE8058BAA7E5";
paths = (
{
closed = 1;
nodes = (
"372 0 LINE",
"372 40 LINE",
"248 42 LINE",
"248 598 LINE",
"368 600 LINE",
"368 640 LINE",
"80 640 LINE",
"80 600 LINE",
"200 598 LINE",
"200 42 LINE",
"76 40 LINE",
"76 0 LINE"
);
}
);
width = 448;
}
);
unicode = 0049;
},
{
color = 1;
glyphname = IJ;
layers = (
{
background = {
paths = (
{
closed = 1;
nodes = (
"288 0 LINE SMOOTH",
"384 0 OFFCURVE",
"452 51 OFFCURVE",
"452 181 CURVE SMOOTH",
"452 640 LINE",
"276 640 LINE",
"276 576 LINE",
"380 576 LINE",
"380 177 LINE SMOOTH",
"380 108 OFFCURVE",
"361 64 OFFCURVE",
"288 64 CURVE SMOOTH",
"132 64 LINE",
"132 576 LINE",
"188 576 LINE",
"188 640 LINE",
"4 640 LINE",
"4 576 LINE",
"60 576 LINE",
"60 64 LINE",
"0 64 LINE",
"0 0 LINE"
);
}
);
};
hints = (
{
horizontal = 1;
origin = "{0, 0}";
target = "{0, 11}";
type = TTStem;
options = 4;
},
{
horizontal = 1;
origin = "{0, 11}";
target = "{0, 19}";
type = Align;
options = 4;
},
{
horizontal = 1;
origin = "{0, 15}";
target = "{0, 18}";
type = TTStem;
options = 4;
},
{
horizontal = 1;
origin = "{0, 18}";
target = "{0, 13}";
type = Align;
options = 4;
},
{
horizontal = 1;
origin = "{0, 15}";
target = "{0, 5}";
type = Align;
options = 4;
},
{
horizontal = 1;
origin = "{0, 13}";
target = "{0, 6}";
type = Align;
options = 4;
}
);
layerId = "95FB0C11-C828-4064-8966-34220AA4D426";
paths = (
{
closed = 1;
nodes = (
"288 0 LINE SMOOTH",
"384 0 OFFCURVE",
"452 51 OFFCURVE",
"452 181 CURVE SMOOTH",
"452 640 LINE",
"276 640 LINE",
"276 576 LINE",
"380 576 LINE",
"380 177 LINE SMOOTH",
"380 108 OFFCURVE",
"361 64 OFFCURVE",
"288 64 CURVE SMOOTH",
"132 64 LINE",
"132 576 LINE",
"188 576 LINE",
"188 640 LINE",
"4 640 LINE",
"4 576 LINE",
"60 576 LINE",
"60 64 LINE",
"0 64 LINE",
"0 0 LINE"
);
}
);
width = 448;
},
{
background = {
paths = (
{
closed = 1;
nodes = (
"288 0 LINE SMOOTH",
"384 0 OFFCURVE",
"452 51 OFFCURVE",
"452 181 CURVE SMOOTH",
"452 640 LINE",
"276 640 LINE",
"276 576 LINE",
"380 576 LINE",
"380 177 LINE SMOOTH",
"380 108 OFFCURVE",
"361 64 OFFCURVE",
"288 64 CURVE SMOOTH",
"132 64 LINE",
"132 576 LINE",
"188 576 LINE",
"188 640 LINE",
"4 640 LINE",
"4 576 LINE",
"60 576 LINE",
"60 64 LINE",
"0 64 LINE",
"0 0 LINE"
);
}
);
};
layerId = "92967D72-867E-4A8B-929F-F44D834DD4C9";
paths = (
{
closed = 1;
nodes = (
"288 0 LINE SMOOTH",
"384 0 OFFCURVE",
"452 51 OFFCURVE",
"452 181 CURVE SMOOTH",
"452 640 LINE",
"276 640 LINE",
"276 576 LINE",
"380 576 LINE",
"380 177 LINE SMOOTH",
"380 108 OFFCURVE",
"361 64 OFFCURVE",
"288 64 CURVE SMOOTH",
"132 64 LINE",
"132 576 LINE",
"188 576 LINE",
"188 640 LINE",
"4 640 LINE",
"4 576 LINE",
"60 576 LINE",
"60 64 LINE",
"0 64 LINE",
"0 0 LINE"
);
}
);
width = 448;
},
{
layerId = "7DDCEF54-C770-4FAD-B154-EE8058BAA7E5";
paths = (
{
closed = 1;
nodes = (
"288 0 LINE SMOOTH",
"384 0 OFFCURVE",
"452 51 OFFCURVE",
"452 181 CURVE SMOOTH",
"452 640 LINE",
"276 640 LINE",
"276 576 LINE",
"380 576 LINE",
"380 177 LINE SMOOTH",
"380 108 OFFCURVE",
"361 64 OFFCURVE",
"288 64 CURVE SMOOTH",
"132 64 LINE",
"132 576 LINE",
"188 576 LINE",
"188 640 LINE",
"4 640 LINE",
"4 576 LINE",
"60 576 LINE",
"60 64 LINE",
"0 64 LINE",
"0 0 LINE"
);
}
);
width = 448;
}
);
unicode = 0132;
},
{
color = 3;
glyphname = J;
layers = (
{
anchors = (
{
name = topUC;
position = "{270, 640}";
}
);
background = {
paths = (
{
closed = 1;
nodes = (
"79 43 OFFCURVE",
"128 -8 OFFCURVE",
"224 -8 CURVE SMOOTH",
"320 -8 OFFCURVE",
"388 43 OFFCURVE",
"388 173 CURVE SMOOTH",
"388 640 LINE",
"162 640 LINE",
"162 576 LINE",
"316 576 LINE",
"316 169 LINE SMOOTH",
"316 100 OFFCURVE",
"297 56 OFFCURVE",
"224 56 CURVE SMOOTH",
"166 56 OFFCURVE",
"143 86 OFFCURVE",
"130 137 CURVE",
"62 120 LINE"
);
}
);
};
hints = (
{
horizontal = 1;
origin = "{0, 2}";
target = "{0, 13}";
type = TTStem;
options = 4;
},
{
horizontal = 1;
origin = "{0, 6}";
target = "{0, 9}";
type = TTStem;
options = 4;
}
);
layerId = "95FB0C11-C828-4064-8966-34220AA4D426";
paths = (
{
closed = 1;
nodes = (
"79 43 OFFCURVE",
"128 -8 OFFCURVE",
"224 -8 CURVE SMOOTH",
"320 -8 OFFCURVE",
"388 43 OFFCURVE",
"388 173 CURVE SMOOTH",
"388 640 LINE",
"162 640 LINE",
"162 576 LINE",
"316 576 LINE",
"316 169 LINE SMOOTH",
"316 100 OFFCURVE",
"297 56 OFFCURVE",
"224 56 CURVE SMOOTH",
"166 56 OFFCURVE",
"143 86 OFFCURVE",
"130 137 CURVE",
"62 120 LINE"
);
}
);
width = 448;
},
{
anchors = (
{
name = topUC;
position = "{270, 640}";
}
);
background = {
paths = (
{
closed = 1;
nodes = (
"70 49 OFFCURVE",
"122 -8 OFFCURVE",
"224 -8 CURVE SMOOTH",
"326 -8 OFFCURVE",
"398 43 OFFCURVE",
"398 173 CURVE SMOOTH",
"398 640 LINE",
"132 640 LINE",
"132 552 LINE",
"286 552 LINE",
"286 169 LINE SMOOTH",
"286 110 OFFCURVE",
"273 72 OFFCURVE",
"224 72 CURVE SMOOTH",
"189 72 OFFCURVE",
"169 101 OFFCURVE",
"155 160 CURVE",
"52 136 LINE"
);
}
);
};
layerId = "92967D72-867E-4A8B-929F-F44D834DD4C9";
paths = (
{
closed = 1;
nodes = (
"70 49 OFFCURVE",
"122 -8 OFFCURVE",
"224 -8 CURVE SMOOTH",
"326 -8 OFFCURVE",
"398 43 OFFCURVE",
"398 173 CURVE SMOOTH",
"398 640 LINE",
"132 640 LINE",
"132 552 LINE",
"286 552 LINE",
"286 169 LINE SMOOTH",
"286 110 OFFCURVE",
"273 72 OFFCURVE",
"224 72 CURVE SMOOTH",
"189 72 OFFCURVE",
"169 101 OFFCURVE",
"155 160 CURVE",
"52 136 LINE"
);
}
);
width = 448;
},
{
anchors = (
{
name = topUC;
position = "{270, 640}";
}
);
layerId = "7DDCEF54-C770-4FAD-B154-EE8058BAA7E5";
paths = (
{
closed = 1;
nodes = (
"86 41 OFFCURVE",
"132 -8 OFFCURVE",
"224 -8 CURVE SMOOTH",
"316 -8 OFFCURVE",
"382 43 OFFCURVE",
"382 173 CURVE SMOOTH",
"382 640 LINE",
"180 640 LINE",
"180 596 LINE",
"334 596 LINE",
"334 169 LINE SMOOTH",
"334 81 OFFCURVE",
"299 36 OFFCURVE",
"224 36 CURVE SMOOTH",
"155 36 OFFCURVE",
"127 71 OFFCURVE",
"111 123 CURVE",
"68 110 LINE"
);
}
);
width = 448;
}
);
unicode = 004A;
},
{
glyphname = K;
layers = (
{
anchors = (
{
name = bottom;
position = "{224, 0}";
}
);
background = {
paths = (
{
closed = 1;
nodes = (
"372 465 OFFCURVE",
"401 640 QCURVE",
"325 640 LINE",
"308 544 OFFCURVE",
"239 399 OFFCURVE",
"181 325 QCURVE",
"180 325 LINE",
"132 325 LINE",
"132 640 LINE",
"60 640 LINE",
"60 0 LINE",
"132 0 LINE",
"132 261 LINE",
"185 261 LINE SMOOTH",
"236 261 OFFCURVE",
"290 240 OFFCURVE",
"313 191 OFFCURVE",
"316 146 QCURVE SMOOTH",
"324 0 LINE",
"401 0 LINE",
"390 151 LINE SMOOTH",
"385 225 OFFCURVE",
"317 306 OFFCURVE",
"254 319 QCURVE"
);
}
);
};
hints = (
{
horizontal = 1;
origin = "{0, 0}";
target = "{0, 6}";
type = TTStem;
options = 4;
},
{
horizontal = 1;
origin = "{0, 13}";
target = "{1, 3}";
type = TTStem;
options = 4;
},
{
horizontal = 1;
origin = "{0, 1}";
target = "{0, 12}";
type = TTStem;
options = 4;
},
{
horizontal = 1;
origin = "{0, 1}";
type = Anchor;
},
{
horizontal = 1;
origin = "{0, 12}";
target = "{0, 11, 1, 2}";
type = Align;
options = 4;
}
);
layerId = "95FB0C11-C828-4064-8966-34220AA4D426";
paths = (
{
closed = 1;
nodes = (
"132 0 LINE",
"132 261 LINE",
"199 261 LINE SMOOTH",
"283 261 OFFCURVE",
"311 231 OFFCURVE",
"316 146 CURVE SMOOTH",
"324 0 LINE",
"399 0 LINE",
"388 151 LINE SMOOTH",
"380 266 OFFCURVE",
"323 325 OFFCURVE",
"202 325 CURVE SMOOTH",
"132 325 LINE",
"132 640 LINE",
"60 640 LINE",
"60 0 LINE"
);
},
{
closed = 1;
nodes = (
"326 409 OFFCURVE",
"378 508 OFFCURVE",
"400 640 CURVE",
"325 640 LINE",
"303 504 OFFCURVE",
"253 413 OFFCURVE",
"178 322 CURVE",
"236 302 LINE"
);
}
);
width = 448;
},
{
anchors = (
{
name = bottom;
position = "{224, 0}";
}
);
background = {
paths = (
{
closed = 1;
nodes = (
"50 0 LINE",
"162 0 LINE",
"162 640 LINE",
"50 640 LINE"
);
},
{
closed = 1;
nodes = (
"284 282 LINE",
"352 387 OFFCURVE",
"386 484 OFFCURVE",
"411 627 CURVE",
"295 643 LINE",
"272 508 OFFCURVE",
"244 420 OFFCURVE",
"183 328 CURVE"
);
},
{
closed = 1;
nodes = (
"295 -5 LINE",
"413 3 LINE",
"399 155 LINE SMOOTH",
"388 288 OFFCURVE",
"313 333 OFFCURVE",
"180 333 CURVE SMOOTH",
"121 333 LINE",
"121 253 LINE",
"185 253 LINE SMOOTH",
"264 253 OFFCURVE",
"284 226 OFFCURVE",
"288 141 CURVE SMOOTH"
);
}
);
};
layerId = "92967D72-867E-4A8B-929F-F44D834DD4C9";
paths = (
{
closed = 1;
nodes = (
"162 0 LINE",
"162 253 LINE",
"185 253 LINE SMOOTH",
"264 253 OFFCURVE",
"284 226 OFFCURVE",
"288 141 CURVE SMOOTH",
"295 -5 LINE",
"413 3 LINE",
"399 155 LINE SMOOTH",
"388 288 OFFCURVE",
"313 333 OFFCURVE",
"180 333 CURVE SMOOTH",
"162 333 LINE",
"162 640 LINE",
"50 640 LINE",
"50 0 LINE"
);
},
{
closed = 1;
nodes = (
"352 387 OFFCURVE",
"386 484 OFFCURVE",
"411 627 CURVE",
"295 643 LINE",
"272 508 OFFCURVE",
"244 420 OFFCURVE",
"183 328 CURVE",
"284 282 LINE"
);
}
);
width = 448;
},
{
anchors = (
{
name = bottom;
position = "{224, 0}";
}
);
layerId = "7DDCEF54-C770-4FAD-B154-EE8058BAA7E5";
paths = (
{
closed = 1;
nodes = (
"114 0 LINE",
"114 266 LINE",
"185 266 LINE SMOOTH",
"299 266 OFFCURVE",
"327 237 OFFCURVE",
"333 149 CURVE SMOOTH",
"343 -2 LINE",
"397 3 LINE",
"385 149 LINE SMOOTH",
"374 277 OFFCURVE",
"303 320 OFFCURVE",
"180 320 CURVE SMOOTH",
"114 320 LINE",
"114 640 LINE",
"66 640 LINE",
"66 0 LINE"
);
},
{
closed = 1;
nodes = (
"331 392 OFFCURVE",
"372 494 OFFCURVE",
"395 627 CURVE",
"343 643 LINE",
"320 508 OFFCURVE",
"290 415 OFFCURVE",
"231 315 CURVE",
"268 295 LINE"
);
}
);
width = 448;
}
);
unicode = 004B;
},
{
color = 3;
glyphname = L;
layers = (
{
anchors = (
{
name = bottom;
position = "{229, -17}";
}
);
background = {
paths = (
{
closed = 1;
nodes = (
"384 0 LINE",
"384 64 LINE",
"132 64 LINE",
"132 640 LINE",
"60 640 LINE",
"60 0 LINE"
);
}
);
};
hints = (
{
horizontal = 1;
origin = "{0, 5}";
target = "{0, 2}";
type = TTStem;
options = 4;
},
{
horizontal = 1;
origin = "{0, 3}";
type = Anchor;
}
);
layerId = "95FB0C11-C828-4064-8966-34220AA4D426";
paths = (
{
closed = 1;
nodes = (
"384 0 LINE",
"384 64 LINE",
"132 64 LINE",
"132 640 LINE",
"60 640 LINE",
"60 0 LINE"
);
}
);
width = 448;
},
{
anchors = (
{
name = bottom;
position = "{229, -17}";
}
);
background = {
paths = (
{
closed = 1;
nodes = (
"394 0 LINE",
"394 88 LINE",
"162 88 LINE",
"162 640 LINE",
"50 640 LINE",
"50 0 LINE"
);
}
);
};
layerId = "92967D72-867E-4A8B-929F-F44D834DD4C9";
paths = (
{
closed = 1;
nodes = (
"394 0 LINE",
"394 88 LINE",
"162 88 LINE",
"162 640 LINE",
"50 640 LINE",
"50 0 LINE"
);
}
);
width = 448;
},
{
anchors = (
{
name = bottom;
position = "{229, -17}";
}
);
layerId = "7DDCEF54-C770-4FAD-B154-EE8058BAA7E5";
paths = (
{
closed = 1;
nodes = (
"378 0 LINE",
"378 44 LINE",
"114 44 LINE",
"114 640 LINE",
"66 640 LINE",
"66 0 LINE"
);
}
);
width = 448;
}
);
rightKerningGroup = L;
unicode = 004C;
},
{
glyphname = M;
layers = (
{
background = {
paths = (
{
closed = 1;
nodes = (
"56 0 LINE",
"128 0 LINE",
"128 128 LINE",
"120 576 LINE",
"56 576 LINE"
);
},
{
closed = 1;
nodes = (
"320 128 LINE",
"320 0 LINE",
"392 0 LINE",
"392 576 LINE",
"328 576 LINE"
);
},
{
closed = 1;
nodes = (
"192 128 LINE",
"256 128 LINE",
"256 512 LINE",
"192 512 LINE"
);
},
{
closed = 1;
nodes = (
"242 512 LINE",
"242 601 OFFCURVE",
"201 640 OFFCURVE",
"107 640 CURVE SMOOTH",
"56 640 LINE",
"56 576 LINE",
"128 576 LINE",
"181 576 OFFCURVE",
"192 559 OFFCURVE",
"192 512 CURVE"
);
},
{
closed = 1;
nodes = (
"256 512 LINE",
"256 559 OFFCURVE",
"267 576 OFFCURVE",
"320 576 CURVE SMOOTH",
"392 576 LINE",
"392 640 LINE",
"341 640 LINE SMOOTH",
"247 640 OFFCURVE",
"206 601 OFFCURVE",
"206 512 CURVE"
);
}
);
};
hints = (
{
horizontal = 1;
origin = "{3, 3}";
target = "{0, 3}";
type = TTStem;
options = 4;
},
{
horizontal = 1;
origin = "{0, 3}";
target = "{1, 4}";
type = Align;
options = 4;
},
{
horizontal = 1;
origin = "{0, 1}";
type = Anchor;
},
{
horizontal = 1;
origin = "{1, 1}";
type = Anchor;
},
{
horizontal = 1;
origin = "{2, 1}";
type = Anchor;
}
);
layerId = "95FB0C11-C828-4064-8966-34220AA4D426";
paths = (
{
closed = 1;
nodes = (
"56 0 LINE",
"128 0 LINE",
"128 128 LINE",
"120 576 LINE",
"56 576 LINE"
);
},
{
closed = 1;
nodes = (
"320 128 LINE",
"320 0 LINE",
"392 0 LINE",
"392 576 LINE",
"328 576 LINE"
);
},
{
closed = 1;
nodes = (
"192 128 LINE",
"256 128 LINE",
"256 512 LINE",
"192 512 LINE"
);
},
{
closed = 1;
nodes = (
"242 512 LINE",
"242 601 OFFCURVE",
"201 640 OFFCURVE",
"107 640 CURVE SMOOTH",
"56 640 LINE",
"56 576 LINE",
"128 576 LINE",
"181 576 OFFCURVE",
"192 559 OFFCURVE",
"192 512 CURVE"
);
},
{
closed = 1;
nodes = (
"256 512 LINE",
"256 559 OFFCURVE",
"267 576 OFFCURVE",
"320 576 CURVE SMOOTH",
"392 576 LINE",
"392 640 LINE",
"341 640 LINE SMOOTH",
"247 640 OFFCURVE",
"206 601 OFFCURVE",
"206 512 CURVE"
);
}
);
width = 448;
},
{
background = {
paths = (
{
closed = 1;
nodes = (
"36 0 LINE",
"148 0 LINE",
"148 128 LINE",
"140 576 LINE",
"36 576 LINE"
);
},
{
closed = 1;
nodes = (
"300 128 LINE",
"300 0 LINE",
"412 0 LINE",
"412 576 LINE",
"308 576 LINE"
);
},
{
closed = 1;
nodes = (
"182 148 LINE",
"266 148 LINE",
"266 512 LINE",
"182 512 LINE"
);
},
{
closed = 1;
nodes = (
"252 512 LINE",
"252 601 OFFCURVE",
"208 640 OFFCURVE",
"107 640 CURVE SMOOTH",
"36 640 LINE",
"36 560 LINE",
"122 560 LINE",
"172 560 OFFCURVE",
"182 547 OFFCURVE",
"182 512 CURVE"
);
},
{
closed = 1;
nodes = (
"266 512 LINE",
"266 547 OFFCURVE",
"276 560 OFFCURVE",
"326 560 CURVE SMOOTH",
"412 560 LINE",
"412 640 LINE",
"341 640 LINE SMOOTH",
"240 640 OFFCURVE",
"196 601 OFFCURVE",
"196 512 CURVE"
);
}
);
};
layerId = "92967D72-867E-4A8B-929F-F44D834DD4C9";
paths = (
{
closed = 1;
nodes = (
"36 0 LINE",
"148 0 LINE",
"148 128 LINE",
"140 576 LINE",
"36 576 LINE"
);
},
{
closed = 1;
nodes = (
"300 128 LINE",
"300 0 LINE",
"412 0 LINE",
"412 576 LINE",
"308 576 LINE"
);
},
{
closed = 1;
nodes = (
"182 148 LINE",
"266 148 LINE",
"266 512 LINE",
"182 512 LINE"
);
},
{
closed = 1;
nodes = (
"252 512 LINE",
"252 601 OFFCURVE",
"208 640 OFFCURVE",
"107 640 CURVE SMOOTH",
"36 640 LINE",
"36 560 LINE",
"122 560 LINE",
"172 560 OFFCURVE",
"182 547 OFFCURVE",
"182 512 CURVE"
);
},
{
closed = 1;
nodes = (
"266 512 LINE",
"266 547 OFFCURVE",
"276 560 OFFCURVE",
"326 560 CURVE SMOOTH",
"412 560 LINE",
"412 640 LINE",
"341 640 LINE SMOOTH",
"240 640 OFFCURVE",
"196 601 OFFCURVE",
"196 512 CURVE"
);
}
);
width = 448;
},
{
layerId = "7DDCEF54-C770-4FAD-B154-EE8058BAA7E5";
paths = (
{
closed = 1;
nodes = (
"68 0 LINE",
"116 0 LINE",
"116 128 LINE",
"108 576 LINE",
"68 576 LINE"
);
},
{
closed = 1;
nodes = (
"332 128 LINE",
"332 0 LINE",
"380 0 LINE",
"380 576 LINE",
"340 576 LINE"
);
},
{
closed = 1;
nodes = (
"198 116 LINE",
"250 116 LINE",
"250 512 LINE",
"198 512 LINE"
);
},
{
closed = 1;
nodes = (
"236 512 LINE",
"236 601 OFFCURVE",
"197 640 OFFCURVE",
"107 640 CURVE SMOOTH",
"68 640 LINE",
"68 586 LINE",
"132 586 LINE",
"186 586 OFFCURVE",
"198 566 OFFCURVE",
"198 512 CURVE"
);
},
{
closed = 1;
nodes = (
"250 512 LINE",
"250 566 OFFCURVE",
"262 586 OFFCURVE",
"316 586 CURVE SMOOTH",
"380 586 LINE",
"380 640 LINE",
"341 640 LINE SMOOTH",
"251 640 OFFCURVE",
"212 601 OFFCURVE",
"212 512 CURVE"
);
}
);
width = 448;
}
);
unicode = 004D;
},
{
color = 3;
glyphname = N;
layers = (
{
background = {
paths = (
{
closed = 1;
nodes = (
"60 0 LINE",
"132 0 LINE",
"132 608 LINE",
"142 640 LINE",
"60 640 LINE"
);
},
{
closed = 1;
nodes = (
"316 31 LINE",
"306 0 LINE",
"388 0 LINE",
"388 640 LINE",
"316 640 LINE"
);
},
{
closed = 1;
nodes = (
"306 0 LINE",
"342 25 LINE",
"286 256 LINE",
"142 640 LINE",
"105 615 LINE",
"162 384 LINE"
);
}
);
};
hints = (
{
horizontal = 1;
origin = "{0, 4}";
type = Anchor;
},
{
horizontal = 1;
origin = "{0, 1}";
type = Anchor;
},
{
horizontal = 1;
origin = "{1, 2}";
type = Anchor;
},
{
horizontal = 1;
origin = "{1, 4}";
type = Anchor;
},
{
horizontal = 1;
origin = "{0, 4}";
target = "{0, 1}";
other1 = "{0, 2, 2, 5}";
type = Interpolate;
options = 4;
},
{
horizontal = 1;
origin = "{1, 2}";
target = "{1, 4}";
other1 = "{1, 0, 2, 2}";
type = Interpolate;
options = 4;
}
);
layerId = "95FB0C11-C828-4064-8966-34220AA4D426";
paths = (
{
closed = 1;
nodes = (
"60 0 LINE",
"132 0 LINE",
"132 608 LINE",
"142 640 LINE",
"60 640 LINE"
);
},
{
closed = 1;
nodes = (
"316 31 LINE",
"306 0 LINE",
"388 0 LINE",
"388 640 LINE",
"316 640 LINE"
);
},
{
closed = 1;
nodes = (
"306 0 LINE",
"342 25 LINE",
"286 256 LINE",
"142 640 LINE",
"105 615 LINE",
"162 384 LINE"
);
}
);
width = 448;
},
{
background = {
paths = (
{
closed = 1;
nodes = (
"50 0 LINE",
"152 0 LINE",
"142 608 LINE",
"162 640 LINE",
"50 640 LINE"
);
},
{
closed = 1;
nodes = (
"306 31 LINE",
"286 0 LINE",
"398 0 LINE",
"398 640 LINE",
"296 640 LINE"
);
},
{
closed = 1;
nodes = (
"286 0 LINE",
"332 25 LINE",
"282 272 LINE",
"162 640 LINE",
"115 615 LINE",
"166 368 LINE"
);
}
);
};
layerId = "92967D72-867E-4A8B-929F-F44D834DD4C9";
paths = (
{
closed = 1;
nodes = (
"50 0 LINE",
"152 0 LINE",
"142 608 LINE",
"162 640 LINE",
"50 640 LINE"
);
},
{
closed = 1;
nodes = (
"306 31 LINE",
"286 0 LINE",
"398 0 LINE",
"398 640 LINE",
"296 640 LINE"
);
},
{
closed = 1;
nodes = (
"286 0 LINE",
"332 25 LINE",
"282 272 LINE",
"162 640 LINE",
"115 615 LINE",
"166 368 LINE"
);
}
);
width = 448;
},
{
layerId = "7DDCEF54-C770-4FAD-B154-EE8058BAA7E5";
paths = (
{
closed = 1;
nodes = (
"66 0 LINE",
"114 0 LINE",
"114 608 LINE",
"130 640 LINE",
"66 640 LINE"
);
},
{
closed = 1;
nodes = (
"334 31 LINE",
"318 0 LINE",
"382 0 LINE",
"382 640 LINE",
"334 640 LINE"
);
},
{
closed = 1;
nodes = (
"318 0 LINE",
"364 0 LINE",
"274 257 LINE",
"130 640 LINE",
"84 640 LINE",
"174 384 LINE"
);
}
);
width = 448;
}
);
unicode = 004E;
},
{
glyphname = Eng;
layers = (
{
background = {
paths = (
{
closed = 1;
nodes = (
"60 0 LINE",
"132 0 LINE",
"132 608 LINE",
"121 640 LINE",
"60 640 LINE"
);
},
{
closed = 1;
nodes = (
"388 640 LINE",
"316 640 LINE",
"316 -13 LINE SMOOTH",
"316 -83 OFFCURVE",
"299 -111 OFFCURVE",
"239 -136 CURVE",
"268 -196 LINE",
"358 -158 OFFCURVE",
"388 -98 OFFCURVE",
"388 -5 CURVE SMOOTH"
);
},
{
closed = 1;
nodes = (
"327 0 LINE",
"386 43 LINE",
"121 640 LINE",
"61 599 LINE"
);
}
);
};
hints = (
{
horizontal = 1;
origin = "{1, 4}";
type = Anchor;
},
{
horizontal = 1;
origin = "{1, 1}";
type = Anchor;
},
{
horizontal = 1;
origin = "{0, 6}";
type = Anchor;
stem = 8;
},
{
horizontal = 1;
origin = "{1, 1}";
target = "{2, 1}";
type = Align;
options = 4;
},
{
horizontal = 1;
origin = "{1, 4}";
target = "{1, 1}";
other1 = "{2, 5}";
type = Interpolate;
options = 4;
},
{
horizontal = 1;
origin = "{1, 4}";
target = "{1, 1}";
other1 = "{2, 2}";
type = Interpolate;
options = 4;
},
{
horizontal = 1;
origin = "{0, 1}";
type = Anchor;
}
);
layerId = "95FB0C11-C828-4064-8966-34220AA4D426";
paths = (
{
closed = 1;
nodes = (
"388 640 LINE",
"316 640 LINE",
"316 -13 LINE SMOOTH",
"316 -83 OFFCURVE",
"299 -111 OFFCURVE",
"239 -136 CURVE",
"268 -196 LINE",
"358 -158 OFFCURVE",
"388 -98 OFFCURVE",
"388 -5 CURVE SMOOTH"
);
},
{
closed = 1;
nodes = (
"60 0 LINE",
"132 0 LINE",
"132 608 LINE",
"142 640 LINE",
"60 640 LINE"
);
},
{
closed = 1;
nodes = (
"306 0 LINE",
"342 25 LINE",
"286 256 LINE",
"142 640 LINE",
"105 615 LINE",
"162 384 LINE"
);
}
);
width = 448;
},
{
background = {
paths = (
{
closed = 1;
nodes = (
"60 0 LINE",
"132 0 LINE",
"132 608 LINE",
"121 640 LINE",
"60 640 LINE"
);
},
{
closed = 1;
nodes = (
"388 640 LINE",
"316 640 LINE",
"316 -13 LINE SMOOTH",
"316 -83 OFFCURVE",
"299 -111 OFFCURVE",
"239 -136 CURVE",
"268 -196 LINE",
"358 -158 OFFCURVE",
"388 -98 OFFCURVE",
"388 -5 CURVE SMOOTH"
);
},
{
closed = 1;
nodes = (
"327 0 LINE",
"386 43 LINE",
"121 640 LINE",
"61 599 LINE"
);
}
);
};
color = 1;
layerId = "92967D72-867E-4A8B-929F-F44D834DD4C9";
paths = (
{
closed = 1;
nodes = (
"388 640 LINE",
"316 640 LINE",
"316 -13 LINE SMOOTH",
"316 -83 OFFCURVE",
"299 -111 OFFCURVE",
"239 -136 CURVE",
"268 -196 LINE",
"358 -158 OFFCURVE",
"388 -98 OFFCURVE",
"388 -5 CURVE SMOOTH"
);
},
{
closed = 1;
nodes = (
"50 0 LINE",
"152 0 LINE",
"142 608 LINE",
"162 640 LINE",
"50 640 LINE"
);
},
{
closed = 1;
nodes = (
"286 0 LINE",
"332 25 LINE",
"282 272 LINE",
"162 640 LINE",
"115 615 LINE",
"166 368 LINE"
);
}
);
width = 448;
},
{
layerId = "7DDCEF54-C770-4FAD-B154-EE8058BAA7E5";
paths = (
{
closed = 1;
nodes = (
"388 640 LINE",
"316 640 LINE",
"316 -13 LINE SMOOTH",
"316 -83 OFFCURVE",
"299 -111 OFFCURVE",
"239 -136 CURVE",
"268 -196 LINE",
"358 -158 OFFCURVE",
"388 -98 OFFCURVE",
"388 -5 CURVE SMOOTH"
);
},
{
closed = 1;
nodes = (
"66 0 LINE",
"114 0 LINE",
"114 608 LINE",
"130 640 LINE",
"66 640 LINE"
);
},
{
closed = 1;
nodes = (
"318 0 LINE",
"364 0 LINE",
"274 257 LINE",
"130 640 LINE",
"84 640 LINE",
"174 384 LINE"
);
}
);
width = 448;
}
);
unicode = 014A;
},
{
color = 3;
glyphname = O;
layers = (
{
anchors = (
{
name = center;
position = "{224, 319}";
},
{
name = topUC;
position = "{224, 640}";
}
);
background = {
paths = (
{
closed = 1;
nodes = (
"37 319 CURVE SMOOTH",
"37 102 OFFCURVE",
"98 -10 OFFCURVE",
"224 -10 CURVE SMOOTH",
"353 -10 OFFCURVE",
"411 102 OFFCURVE",
"411 319 CURVE SMOOTH",
"411 541 OFFCURVE",
"353 650 OFFCURVE",
"224 650 CURVE SMOOTH",
"98 650 OFFCURVE",
"37 541 OFFCURVE"
);
},
{
closed = 1;
nodes = (
"113 319 CURVE SMOOTH",
"113 512 OFFCURVE",
"143 584 OFFCURVE",
"224 584 CURVE SMOOTH",
"305 584 OFFCURVE",
"335 512 OFFCURVE",
"335 319 CURVE SMOOTH",
"335 128 OFFCURVE",
"305 56 OFFCURVE",
"224 56 CURVE SMOOTH",
"143 56 OFFCURVE",
"113 128 OFFCURVE"
);
}
);
};
hints = (
{
horizontal = 1;
origin = "{0, 11}";
target = "{1, 11}";
type = TTStem;
options = 4;
},
{
horizontal = 1;
origin = "{0, 5}";
target = "{1, 5}";
type = TTStem;
options = 4;
}
);
layerId = "95FB0C11-C828-4064-8966-34220AA4D426";
paths = (
{
closed = 1;
nodes = (
"353 -10 OFFCURVE",
"411 102 OFFCURVE",
"411 319 CURVE SMOOTH",
"411 541 OFFCURVE",
"353 650 OFFCURVE",
"224 650 CURVE SMOOTH",
"98 650 OFFCURVE",
"37 541 OFFCURVE",
"37 319 CURVE SMOOTH",
"37 102 OFFCURVE",
"98 -10 OFFCURVE",
"224 -10 CURVE SMOOTH"
);
},
{
closed = 1;
nodes = (
"143 56 OFFCURVE",
"113 128 OFFCURVE",
"113 319 CURVE SMOOTH",
"113 512 OFFCURVE",
"143 584 OFFCURVE",
"224 584 CURVE SMOOTH",
"305 584 OFFCURVE",
"335 512 OFFCURVE",
"335 319 CURVE SMOOTH",
"335 128 OFFCURVE",
"305 56 OFFCURVE",
"224 56 CURVE SMOOTH"
);
}
);
width = 448;
},
{
anchors = (
{
name = center;
position = "{224, 319}";
},
{
name = topUC;
position = "{224, 640}";
}
);
background = {
paths = (
{
closed = 1;
nodes = (
"27 319 CURVE SMOOTH",
"27 102 OFFCURVE",
"92 -10 OFFCURVE",
"224 -10 CURVE SMOOTH",
"360 -10 OFFCURVE",
"421 102 OFFCURVE",
"421 319 CURVE SMOOTH",
"421 541 OFFCURVE",
"360 650 OFFCURVE",
"224 650 CURVE SMOOTH",
"92 650 OFFCURVE",
"27 541 OFFCURVE"
);
},
{
closed = 1;
nodes = (
"143 319 CURVE SMOOTH",
"143 500 OFFCURVE",
"165 568 OFFCURVE",
"224 568 CURVE SMOOTH",
"283 568 OFFCURVE",
"305 500 OFFCURVE",
"305 319 CURVE SMOOTH",
"305 140 OFFCURVE",
"283 72 OFFCURVE",
"224 72 CURVE SMOOTH",
"165 72 OFFCURVE",
"143 140 OFFCURVE"
);
}
);
};
layerId = "92967D72-867E-4A8B-929F-F44D834DD4C9";
paths = (
{
closed = 1;
nodes = (
"360 -10 OFFCURVE",
"421 102 OFFCURVE",
"421 319 CURVE SMOOTH",
"421 541 OFFCURVE",
"360 650 OFFCURVE",
"224 650 CURVE SMOOTH",
"92 650 OFFCURVE",
"27 541 OFFCURVE",
"27 319 CURVE SMOOTH",
"27 102 OFFCURVE",
"92 -10 OFFCURVE",
"224 -10 CURVE SMOOTH"
);
},
{
closed = 1;
nodes = (
"165 72 OFFCURVE",
"143 140 OFFCURVE",
"143 319 CURVE SMOOTH",
"143 500 OFFCURVE",
"165 568 OFFCURVE",
"224 568 CURVE SMOOTH",
"283 568 OFFCURVE",
"305 500 OFFCURVE",
"305 319 CURVE SMOOTH",
"305 140 OFFCURVE",
"283 72 OFFCURVE",
"224 72 CURVE SMOOTH"
);
}
);
width = 448;
},
{
anchors = (
{
name = center;
position = "{224, 319}";
},
{
name = topUC;
position = "{224, 640}";
}
);
background = {
paths = (
{
closed = 1;
nodes = (
"349 -10 OFFCURVE",
"405 102 OFFCURVE",
"405 319 CURVE SMOOTH",
"405 541 OFFCURVE",
"349 650 OFFCURVE",
"224 650 CURVE SMOOTH",
"102 650 OFFCURVE",
"43 541 OFFCURVE",
"43 319 CURVE SMOOTH",
"43 102 OFFCURVE",
"102 -10 OFFCURVE",
"224 -10 CURVE SMOOTH"
);
},
{
closed = 1;
nodes = (
"130 46 OFFCURVE",
"95 121 OFFCURVE",
"95 319 CURVE SMOOTH",
"95 519 OFFCURVE",
"130 594 OFFCURVE",
"224 594 CURVE SMOOTH",
"318 594 OFFCURVE",
"353 519 OFFCURVE",
"353 319 CURVE SMOOTH",
"353 121 OFFCURVE",
"318 46 OFFCURVE",
"224 46 CURVE SMOOTH"
);
}
);
};
layerId = "7DDCEF54-C770-4FAD-B154-EE8058BAA7E5";
paths = (
{
closed = 1;
nodes = (
"349 -10 OFFCURVE",
"405 102 OFFCURVE",
"405 319 CURVE SMOOTH",
"405 541 OFFCURVE",
"349 650 OFFCURVE",
"224 650 CURVE SMOOTH",
"102 650 OFFCURVE",
"43 541 OFFCURVE",
"43 319 CURVE SMOOTH",
"43 102 OFFCURVE",
"102 -10 OFFCURVE",
"224 -10 CURVE SMOOTH"
);
},
{
closed = 1;
nodes = (
"132 34 OFFCURVE",
"95 121 OFFCURVE",
"95 319 CURVE SMOOTH",
"95 519 OFFCURVE",
"132 606 OFFCURVE",
"224 606 CURVE SMOOTH",
"316 606 OFFCURVE",
"353 519 OFFCURVE",
"353 319 CURVE SMOOTH",
"353 121 OFFCURVE",
"316 34 OFFCURVE",
"224 34 CURVE SMOOTH"
);
}
);
width = 448;
}
);
leftKerningGroup = O;
rightKerningGroup = O;
unicode = 004F;
},
{
color = 7;
glyphname = Oslash;
layers = (
{
background = {
components = (
{
name = O;
}
);
paths = (
{
closed = 1;
nodes = (
"34 15 LINE",
"93 -16 LINE",
"414 626 LINE",
"355 656 LINE"
);
}
);
};
components = (
{
name = O;
}
);
layerId = "95FB0C11-C828-4064-8966-34220AA4D426";
paths = (
{
closed = 1;
nodes = (
"34 15 LINE",
"93 -16 LINE",
"414 626 LINE",
"355 656 LINE"
);
}
);
width = 448;
},
{
background = {
components = (
{
name = O;
}
);
paths = (
{
closed = 1;
nodes = (
"22 15 LINE",
"101 -26 LINE",
"426 626 LINE",
"348 666 LINE"
);
}
);
};
components = (
{
name = O;
}
);
layerId = "92967D72-867E-4A8B-929F-F44D834DD4C9";
paths = (
{
closed = 1;
nodes = (
"22 15 LINE",
"101 -26 LINE",
"426 626 LINE",
"348 666 LINE"
);
}
);
width = 448;
},
{
components = (
{
name = O;
}
);
layerId = "7DDCEF54-C770-4FAD-B154-EE8058BAA7E5";
paths = (
{
closed = 1;
nodes = (
"41 15 LINE",
"88 -10 LINE",
"407 626 LINE",
"359 650 LINE"
);
}
);
width = 448;
}
);
leftKerningGroup = O;
rightKerningGroup = O;
unicode = 00D8;
},
{
color = 6;
glyphname = Oslashacute;
layers = (
{
background = {
components = (
{
name = O;
},
{
name = acutecomb.case;
}
);
paths = (
{
closed = 1;
nodes = (
"34 15 LINE",
"93 -16 LINE",
"414 626 LINE",
"355 656 LINE"
);
}
);
};
components = (
{
name = Oslash;
},
{
name = acutecomb.case;
}
);
layerId = "95FB0C11-C828-4064-8966-34220AA4D426";
width = 448;
},
{
background = {
components = (
{
name = O;
},
{
name = acutecomb.case;
}
);
paths = (
{
closed = 1;
nodes = (
"22 15 LINE",
"101 -26 LINE",
"426 626 LINE",
"348 666 LINE"
);
}
);
};
components = (
{
name = Oslash;
},
{
name = acutecomb.case;
}
);
layerId = "92967D72-867E-4A8B-929F-F44D834DD4C9";
width = 448;
},
{
components = (
{
name = Oslash;
},
{
name = acutecomb.case;
}
);
layerId = "7DDCEF54-C770-4FAD-B154-EE8058BAA7E5";
width = 448;
}
);
leftKerningGroup = O;
rightKerningGroup = O;
unicode = 01FE;
},
{
color = 0;
glyphname = OE;
layers = (
{
anchors = (
{
name = bottom;
position = "{224, 0}";
},
{
name = top;
position = "{224, 640}";
}
);
background = {
paths = (
{
closed = 1;
nodes = (
"128 576 LINE",
"192 576 LINE",
"192 640 LINE",
"128 640 LINE"
);
},
{
closed = 1;
nodes = (
"256 0 LINE",
"320 0 LINE",
"320 64 LINE",
"256 64 LINE"
);
},
{
closed = 1;
nodes = (
"192 512 LINE",
"256 512 LINE",
"256 576 LINE",
"192 576 LINE"
);
},
{
closed = 1;
nodes = (
"192 448 LINE",
"256 448 LINE",
"256 512 LINE",
"192 512 LINE"
);
},
{
closed = 1;
nodes = (
"192 384 LINE",
"256 384 LINE",
"256 448 LINE",
"192 448 LINE"
);
},
{
closed = 1;
nodes = (
"192 192 LINE",
"256 192 LINE",
"256 256 LINE",
"192 256 LINE"
);
},
{
closed = 1;
nodes = (
"192 576 LINE",
"256 576 LINE",
"256 640 LINE",
"192 640 LINE"
);
},
{
closed = 1;
nodes = (
"256 576 LINE",
"320 576 LINE",
"320 640 LINE",
"256 640 LINE"
);
},
{
closed = 1;
nodes = (
"192 320 LINE",
"256 320 LINE",
"256 384 LINE",
"192 384 LINE"
);
},
{
closed = 1;
nodes = (
"192 256 LINE",
"256 256 LINE",
"256 320 LINE",
"192 320 LINE"
);
},
{
closed = 1;
nodes = (
"192 128 LINE",
"256 128 LINE",
"256 192 LINE",
"192 192 LINE"
);
},
{
closed = 1;
nodes = (
"192 64 LINE",
"256 64 LINE",
"256 128 LINE",
"192 128 LINE"
);
},
{
closed = 1;
nodes = (
"192 0 LINE",
"256 0 LINE",
"256 64 LINE",
"192 64 LINE"
);
},
{
closed = 1;
nodes = (
"256 256 LINE",
"320 256 LINE",
"320 320 LINE",
"256 320 LINE"
);
},
{
closed = 1;
nodes = (
"320 0 LINE",
"384 0 LINE",
"384 64 LINE",
"320 64 LINE"
);
},
{
closed = 1;
nodes = (
"320 256 LINE",
"384 256 LINE",
"384 320 LINE",
"320 320 LINE"
);
},
{
closed = 1;
nodes = (
"320 576 LINE",
"384 576 LINE",
"384 640 LINE",
"320 640 LINE"
);
},
{
closed = 1;
nodes = (
"384 576 LINE",
"448 576 LINE",
"448 640 LINE",
"384 640 LINE"
);
},
{
closed = 1;
nodes = (
"384 0 LINE",
"448 0 LINE",
"448 64 LINE",
"384 64 LINE"
);
},
{
closed = 1;
nodes = (
"128 0 LINE",
"192 0 LINE",
"192 64 LINE",
"128 64 LINE"
);
},
{
closed = 1;
nodes = (
"64 0 LINE",
"128 0 LINE",
"128 64 LINE",
"64 64 LINE"
);
},
{
closed = 1;
nodes = (
"0 64 LINE",
"64 64 LINE",
"64 128 LINE",
"0 128 LINE"
);
},
{
closed = 1;
nodes = (
"0 128 LINE",
"64 128 LINE",
"64 192 LINE",
"0 192 LINE"
);
},
{
closed = 1;
nodes = (
"0 192 LINE",
"64 192 LINE",
"64 256 LINE",
"0 256 LINE"
);
},
{
closed = 1;
nodes = (
"0 256 LINE",
"64 256 LINE",
"64 320 LINE",
"0 320 LINE"
);
},
{
closed = 1;
nodes = (
"0 320 LINE",
"64 320 LINE",
"64 384 LINE",
"0 384 LINE"
);
},
{
closed = 1;
nodes = (
"0 384 LINE",
"64 384 LINE",
"64 448 LINE",
"0 448 LINE"
);
},
{
closed = 1;
nodes = (
"0 448 LINE",
"64 448 LINE",
"64 512 LINE",
"0 512 LINE"
);
},
{
closed = 1;
nodes = (
"0 512 LINE",
"64 512 LINE",
"64 576 LINE",
"0 576 LINE"
);
},
{
closed = 1;
nodes = (
"64 576 LINE",
"128 576 LINE",
"128 640 LINE",
"64 640 LINE"
);
}
);
};
hints = (
{
horizontal = 1;
origin = "{0, 10}";
target = "{1, 5}";
type = TTStem;
options = 4;
},
{
horizontal = 1;
origin = "{1, 5}";
target = "{0, 7}";
type = Align;
options = 4;
},
{
horizontal = 1;
origin = "{0, 16}";
target = "{1, 8}";
type = TTStem;
options = 4;
},
{
horizontal = 1;
origin = "{1, 8}";
target = "{0, 2}";
type = Align;
options = 4;
},
{
horizontal = 1;
origin = "{0, 3}";
type = Anchor;
},
{
horizontal = 1;
origin = "{0, 3}";
target = "{0, 6}";
type = TTStem;
options = 4;
}
);
layerId = "95FB0C11-C828-4064-8966-34220AA4D426";
paths = (
{
closed = 1;
nodes = (
"448 0 LINE",
"448 64 LINE",
"270 64 LINE",
"270 256 LINE",
"400 256 LINE",
"400 320 LINE",
"270 320 LINE",
"270 576 LINE",
"438 576 LINE",
"438 640 LINE",
"170 640 LINE SMOOTH",
"54 640 OFFCURVE",
"-2 534 OFFCURVE",
"-2 319 CURVE SMOOTH",
"-2 109 OFFCURVE",
"54 0 OFFCURVE",
"170 0 CURVE SMOOTH"
);
},
{
closed = 1;
nodes = (
"100 64 OFFCURVE",
"74 134 OFFCURVE",
"74 319 CURVE SMOOTH",
"74 506 OFFCURVE",
"100 576 OFFCURVE",
"170 576 CURVE SMOOTH",
"198 576 LINE",
"198 64 LINE",
"170 64 LINE SMOOTH"
);
}
);
width = 448;
},
{
anchors = (
{
name = bottom;
position = "{224, 0}";
},
{
name = top;
position = "{224, 640}";
}
);
background = {
paths = (
{
closed = 1;
nodes = (
"128 576 LINE",
"192 576 LINE",
"192 640 LINE",
"128 640 LINE"
);
},
{
closed = 1;
nodes = (
"256 0 LINE",
"320 0 LINE",
"320 64 LINE",
"256 64 LINE"
);
},
{
closed = 1;
nodes = (
"192 512 LINE",
"256 512 LINE",
"256 576 LINE",
"192 576 LINE"
);
},
{
closed = 1;
nodes = (
"192 448 LINE",
"256 448 LINE",
"256 512 LINE",
"192 512 LINE"
);
},
{
closed = 1;
nodes = (
"192 384 LINE",
"256 384 LINE",
"256 448 LINE",
"192 448 LINE"
);
},
{
closed = 1;
nodes = (
"192 192 LINE",
"256 192 LINE",
"256 256 LINE",
"192 256 LINE"
);
},
{
closed = 1;
nodes = (
"192 576 LINE",
"256 576 LINE",
"256 640 LINE",
"192 640 LINE"
);
},
{
closed = 1;
nodes = (
"256 576 LINE",
"320 576 LINE",
"320 640 LINE",
"256 640 LINE"
);
},
{
closed = 1;
nodes = (
"192 320 LINE",
"256 320 LINE",
"256 384 LINE",
"192 384 LINE"
);
},
{
closed = 1;
nodes = (
"192 256 LINE",
"256 256 LINE",
"256 320 LINE",
"192 320 LINE"
);
},
{
closed = 1;
nodes = (
"192 128 LINE",
"256 128 LINE",
"256 192 LINE",
"192 192 LINE"
);
},
{
closed = 1;
nodes = (
"192 64 LINE",
"256 64 LINE",
"256 128 LINE",
"192 128 LINE"
);
},
{
closed = 1;
nodes = (
"192 0 LINE",
"256 0 LINE",
"256 64 LINE",
"192 64 LINE"
);
},
{
closed = 1;
nodes = (
"256 256 LINE",
"320 256 LINE",
"320 320 LINE",
"256 320 LINE"
);
},
{
closed = 1;
nodes = (
"320 0 LINE",
"384 0 LINE",
"384 64 LINE",
"320 64 LINE"
);
},
{
closed = 1;
nodes = (
"320 256 LINE",
"384 256 LINE",
"384 320 LINE",
"320 320 LINE"
);
},
{
closed = 1;
nodes = (
"320 576 LINE",
"384 576 LINE",
"384 640 LINE",
"320 640 LINE"
);
},
{
closed = 1;
nodes = (
"384 576 LINE",
"448 576 LINE",
"448 640 LINE",
"384 640 LINE"
);
},
{
closed = 1;
nodes = (
"384 0 LINE",
"448 0 LINE",
"448 64 LINE",
"384 64 LINE"
);
},
{
closed = 1;
nodes = (
"128 0 LINE",
"192 0 LINE",
"192 64 LINE",
"128 64 LINE"
);
},
{
closed = 1;
nodes = (
"64 0 LINE",
"128 0 LINE",
"128 64 LINE",
"64 64 LINE"
);
},
{
closed = 1;
nodes = (
"0 64 LINE",
"64 64 LINE",
"64 128 LINE",
"0 128 LINE"
);
},
{
closed = 1;
nodes = (
"0 128 LINE",
"64 128 LINE",
"64 192 LINE",
"0 192 LINE"
);
},
{
closed = 1;
nodes = (
"0 192 LINE",
"64 192 LINE",
"64 256 LINE",
"0 256 LINE"
);
},
{
closed = 1;
nodes = (
"0 256 LINE",
"64 256 LINE",
"64 320 LINE",
"0 320 LINE"
);
},
{
closed = 1;
nodes = (
"0 320 LINE",
"64 320 LINE",
"64 384 LINE",
"0 384 LINE"
);
},
{
closed = 1;
nodes = (
"0 384 LINE",
"64 384 LINE",
"64 448 LINE",
"0 448 LINE"
);
},
{
closed = 1;
nodes = (
"0 448 LINE",
"64 448 LINE",
"64 512 LINE",
"0 512 LINE"
);
},
{
closed = 1;
nodes = (
"0 512 LINE",
"64 512 LINE",
"64 576 LINE",
"0 576 LINE"
);
},
{
closed = 1;
nodes = (
"64 576 LINE",
"128 576 LINE",
"128 640 LINE",
"64 640 LINE"
);
}
);
};
layerId = "92967D72-867E-4A8B-929F-F44D834DD4C9";
paths = (
{
closed = 1;
nodes = (
"448 0 LINE",
"448 64 LINE",
"270 64 LINE",
"270 256 LINE",
"400 256 LINE",
"400 320 LINE",
"270 320 LINE",
"270 576 LINE",
"438 576 LINE",
"438 640 LINE",
"170 640 LINE SMOOTH",
"54 640 OFFCURVE",
"-2 534 OFFCURVE",
"-2 319 CURVE SMOOTH",
"-2 109 OFFCURVE",
"54 0 OFFCURVE",
"170 0 CURVE SMOOTH"
);
},
{
closed = 1;
nodes = (
"100 64 OFFCURVE",
"74 134 OFFCURVE",
"74 319 CURVE SMOOTH",
"74 506 OFFCURVE",
"100 576 OFFCURVE",
"170 576 CURVE SMOOTH",
"198 576 LINE",
"198 64 LINE",
"170 64 LINE SMOOTH"
);
}
);
width = 448;
},
{
anchors = (
{
name = bottom;
position = "{224, 0}";
},
{
name = top;
position = "{224, 640}";
}
);
layerId = "7DDCEF54-C770-4FAD-B154-EE8058BAA7E5";
paths = (
{
closed = 1;
nodes = (
"448 0 LINE",
"448 64 LINE",
"270 64 LINE",
"270 256 LINE",
"400 256 LINE",
"400 320 LINE",
"270 320 LINE",
"270 576 LINE",
"438 576 LINE",
"438 640 LINE",
"170 640 LINE SMOOTH",
"54 640 OFFCURVE",
"-2 534 OFFCURVE",
"-2 319 CURVE SMOOTH",
"-2 109 OFFCURVE",
"54 0 OFFCURVE",
"170 0 CURVE SMOOTH"
);
},
{
closed = 1;
nodes = (
"100 64 OFFCURVE",
"74 134 OFFCURVE",
"74 319 CURVE SMOOTH",
"74 506 OFFCURVE",
"100 576 OFFCURVE",
"170 576 CURVE SMOOTH",
"198 576 LINE",
"198 64 LINE",
"170 64 LINE SMOOTH"
);
}
);
width = 448;
}
);
leftKerningGroup = O;
unicode = 0152;
},
{
color = 3;
glyphname = P;
layers = (
{
background = {
paths = (
{
closed = 1;
nodes = (
"60 0 LINE",
"132 0 LINE",
"132 640 LINE",
"60 640 LINE"
);
},
{
closed = 1;
nodes = (
"107 640 LINE",
"107 576 LINE",
"208 576 LINE SMOOTH",
"301 576 OFFCURVE",
"325 512 OFFCURVE",
"325 414 CURVE SMOOTH",
"325 320 OFFCURVE",
"303 256 OFFCURVE",
"208 256 CURVE SMOOTH",
"105 256 LINE",
"105 192 LINE",
"215 192 LINE SMOOTH",
"327 192 OFFCURVE",
"401 267 OFFCURVE",
"401 414 CURVE SMOOTH",
"401 560 OFFCURVE",
"327 640 OFFCURVE",
"215 640 CURVE SMOOTH"
);
}
);
};
hints = (
{
horizontal = 1;
origin = "{0, 0}";
type = Anchor;
},
{
horizontal = 1;
origin = "{0, 8}";
target = "{1, 1}";
type = TTStem;
options = 4;
},
{
horizontal = 1;
origin = "{0, 2}";
type = Anchor;
},
{
horizontal = 1;
origin = "{0, 2}";
target = "{1, 7}";
type = TTStem;
options = 4;
}
);
layerId = "95FB0C11-C828-4064-8966-34220AA4D426";
paths = (
{
closed = 1;
nodes = (
"132 0 LINE",
"132 192 LINE",
"215 192 LINE SMOOTH",
"327 192 OFFCURVE",
"401 267 OFFCURVE",
"401 414 CURVE SMOOTH",
"401 560 OFFCURVE",
"327 640 OFFCURVE",
"215 640 CURVE SMOOTH",
"60 640 LINE",
"60 0 LINE"
);
},
{
closed = 1;
nodes = (
"132 576 LINE",
"208 576 LINE SMOOTH",
"301 576 OFFCURVE",
"325 512 OFFCURVE",
"325 414 CURVE SMOOTH",
"325 320 OFFCURVE",
"303 256 OFFCURVE",
"208 256 CURVE SMOOTH",
"132 256 LINE"
);
}
);
width = 448;
},
{
background = {
paths = (
{
closed = 1;
nodes = (
"50 0 LINE",
"162 0 LINE",
"162 640 LINE",
"50 640 LINE"
);
},
{
closed = 1;
nodes = (
"107 640 LINE",
"107 560 LINE",
"194 560 LINE SMOOTH",
"274 560 OFFCURVE",
"295 501 OFFCURVE",
"295 409 CURVE SMOOTH",
"295 322 OFFCURVE",
"276 263 OFFCURVE",
"194 263 CURVE SMOOTH",
"105 263 LINE",
"105 184 LINE",
"218 184 LINE SMOOTH",
"334 184 OFFCURVE",
"411 261 OFFCURVE",
"411 410 CURVE SMOOTH",
"411 558 OFFCURVE",
"335 640 OFFCURVE",
"218 640 CURVE SMOOTH"
);
}
);
};
layerId = "92967D72-867E-4A8B-929F-F44D834DD4C9";
paths = (
{
closed = 1;
nodes = (
"162 0 LINE",
"162 184 LINE",
"218 184 LINE SMOOTH",
"334 184 OFFCURVE",
"411 261 OFFCURVE",
"411 410 CURVE SMOOTH",
"411 558 OFFCURVE",
"335 640 OFFCURVE",
"218 640 CURVE SMOOTH",
"50 640 LINE",
"50 0 LINE"
);
},
{
closed = 1;
nodes = (
"162 560 LINE",
"194 560 LINE SMOOTH",
"274 560 OFFCURVE",
"295 501 OFFCURVE",
"295 409 CURVE SMOOTH",
"295 322 OFFCURVE",
"276 263 OFFCURVE",
"194 263 CURVE SMOOTH",
"162 263 LINE"
);
}
);
width = 448;
},
{
layerId = "7DDCEF54-C770-4FAD-B154-EE8058BAA7E5";
paths = (
{
closed = 1;
nodes = (
"114 0 LINE",
"114 202 LINE",
"213 202 LINE SMOOTH",
"321 202 OFFCURVE",
"395 275 OFFCURVE",
"395 419 CURVE SMOOTH",
"395 562 OFFCURVE",
"322 640 OFFCURVE",
"213 640 CURVE SMOOTH",
"66 640 LINE",
"66 0 LINE"
);
},
{
closed = 1;
nodes = (
"114 596 LINE",
"210 596 LINE SMOOTH",
"306 596 OFFCURVE",
"343 526 OFFCURVE",
"343 419 CURVE SMOOTH",
"343 316 OFFCURVE",
"308 246 OFFCURVE",
"211 246 CURVE SMOOTH",
"114 246 LINE"
);
}
);
width = 448;
}
);
unicode = 0050;
},
{
glyphname = Thorn;
layers = (
{
background = {
paths = (
{
closed = 1;
nodes = (
"60 0 LINE",
"132 0 LINE",
"132 640 LINE",
"60 640 LINE"
);
},
{
closed = 1;
nodes = (
"107 512 LINE",
"107 448 LINE",
"208 448 LINE SMOOTH",
"301 448 OFFCURVE",
"327 399 OFFCURVE",
"327 318 CURVE SMOOTH",
"327 241 OFFCURVE",
"303 192 OFFCURVE",
"208 192 CURVE SMOOTH",
"105 192 LINE",
"105 128 LINE",
"215 128 LINE SMOOTH",
"327 128 OFFCURVE",
"401 192 OFFCURVE",
"401 318 CURVE SMOOTH",
"401 443 OFFCURVE",
"327 512 OFFCURVE",
"215 512 CURVE SMOOTH"
);
}
);
};
hints = (
{
horizontal = 1;
origin = "{0, 4}";
type = Anchor;
},
{
horizontal = 1;
origin = "{0, 1}";
type = Anchor;
},
{
horizontal = 1;
origin = "{0, 6}";
type = Anchor;
},
{
horizontal = 1;
origin = "{0, 12}";
type = Anchor;
},
{
horizontal = 1;
origin = "{0, 6}";
target = "{1, 8}";
type = TTStem;
options = 4;
},
{
horizontal = 1;
origin = "{0, 12}";
target = "{1, 2}";
type = TTStem;
options = 4;
}
);
layerId = "95FB0C11-C828-4064-8966-34220AA4D426";
paths = (
{
closed = 1;
nodes = (
"132 512 LINE",
"132 640 LINE",
"60 640 LINE",
"60 0 LINE",
"132 0 LINE",
"132 128 LINE",
"215 128 LINE SMOOTH",
"327 128 OFFCURVE",
"401 192 OFFCURVE",
"401 318 CURVE SMOOTH",
"401 443 OFFCURVE",
"327 512 OFFCURVE",
"215 512 CURVE SMOOTH"
);
},
{
closed = 1;
nodes = (
"132 192 LINE",
"132 448 LINE",
"208 448 LINE SMOOTH",
"301 448 OFFCURVE",
"327 399 OFFCURVE",
"327 318 CURVE SMOOTH",
"327 241 OFFCURVE",
"303 192 OFFCURVE",
"208 192 CURVE SMOOTH"
);
}
);
width = 448;
},
{
background = {
paths = (
{
closed = 1;
nodes = (
"50 0 LINE",
"162 0 LINE",
"162 640 LINE",
"50 640 LINE"
);
},
{
closed = 1;
nodes = (
"107 520 LINE",
"107 440 LINE",
"194 440 LINE SMOOTH",
"275 440 OFFCURVE",
"297 394 OFFCURVE",
"297 318 CURVE SMOOTH",
"297 246 OFFCURVE",
"276 200 OFFCURVE",
"194 200 CURVE SMOOTH",
"105 200 LINE",
"105 120 LINE",
"219 120 LINE SMOOTH",
"334 120 OFFCURVE",
"411 187 OFFCURVE",
"411 318 CURVE SMOOTH",
"411 448 OFFCURVE",
"334 520 OFFCURVE",
"219 520 CURVE SMOOTH"
);
}
);
};
layerId = "92967D72-867E-4A8B-929F-F44D834DD4C9";
paths = (
{
closed = 1;
nodes = (
"162 520 LINE",
"162 640 LINE",
"50 640 LINE",
"50 0 LINE",
"162 0 LINE",
"162 120 LINE",
"219 120 LINE SMOOTH",
"334 120 OFFCURVE",
"411 187 OFFCURVE",
"411 318 CURVE SMOOTH",
"411 448 OFFCURVE",
"334 520 OFFCURVE",
"219 520 CURVE SMOOTH"
);
},
{
closed = 1;
nodes = (
"162 200 LINE",
"162 440 LINE",
"194 440 LINE SMOOTH",
"275 440 OFFCURVE",
"297 394 OFFCURVE",
"297 318 CURVE SMOOTH",
"297 246 OFFCURVE",
"276 200 OFFCURVE",
"194 200 CURVE SMOOTH"
);
}
);
width = 448;
},
{
layerId = "7DDCEF54-C770-4FAD-B154-EE8058BAA7E5";
paths = (
{
closed = 1;
nodes = (
"114 507 LINE",
"114 640 LINE",
"66 640 LINE",
"66 0 LINE",
"114 0 LINE",
"114 133 LINE",
"213 133 LINE SMOOTH",
"323 133 OFFCURVE",
"395 195 OFFCURVE",
"395 318 CURVE SMOOTH",
"395 440 OFFCURVE",
"323 507 OFFCURVE",
"213 507 CURVE SMOOTH"
);
},
{
closed = 1;
nodes = (
"114 187 LINE",
"114 453 LINE",
"216 453 LINE SMOOTH",
"317 453 OFFCURVE",
"345 402 OFFCURVE",
"345 318 CURVE SMOOTH",
"345 238 OFFCURVE",
"319 187 OFFCURVE",
"216 187 CURVE SMOOTH"
);
}
);
width = 448;
}
);
unicode = 00DE;
},
{
color = 7;
glyphname = Q;
layers = (
{
background = {
components = (
{
name = O;
}
);
paths = (
{
closed = 1;
nodes = (
"415 -78 LINE",
"329 -72 OFFCURVE",
"291 -60 OFFCURVE",
"281 0 CURVE",
"206 0 LINE",
"222 -101 OFFCURVE",
"305 -137 OFFCURVE",
"405 -145 CURVE"
);
}
);
};
components = (
{
name = O;
}
);
layerId = "95FB0C11-C828-4064-8966-34220AA4D426";
paths = (
{
closed = 1;
nodes = (
"415 -78 LINE",
"329 -72 OFFCURVE",
"291 -60 OFFCURVE",
"281 0 CURVE",
"206 0 LINE",
"222 -101 OFFCURVE",
"305 -137 OFFCURVE",
"405 -145 CURVE"
);
}
);
width = 448;
},
{
background = {
components = (
{
name = O;
}
);
paths = (
{
closed = 1;
nodes = (
"424 -72 LINE",
"340 -63 OFFCURVE",
"301 -48 OFFCURVE",
"291 20 CURVE",
"176 20 LINE",
"195 -102 OFFCURVE",
"292 -146 OFFCURVE",
"413 -152 CURVE"
);
}
);
};
components = (
{
name = O;
}
);
layerId = "92967D72-867E-4A8B-929F-F44D834DD4C9";
paths = (
{
closed = 1;
nodes = (
"424 -72 LINE",
"340 -63 OFFCURVE",
"301 -48 OFFCURVE",
"291 20 CURVE",
"176 20 LINE",
"195 -102 OFFCURVE",
"292 -146 OFFCURVE",
"413 -152 CURVE"
);
}
);
width = 448;
},
{
components = (
{
name = O;
}
);
layerId = "7DDCEF54-C770-4FAD-B154-EE8058BAA7E5";
paths = (
{
closed = 1;
nodes = (
"410 -82 LINE",
"322 -77 OFFCURVE",
"285 -67 OFFCURVE",
"275 -12 CURVE",
"224 -12 LINE",
"238 -100 OFFCURVE",
"313 -132 OFFCURVE",
"400 -141 CURVE"
);
}
);
width = 448;
}
);
leftKerningGroup = O;
unicode = 0051;
},
{
glyphname = R;
layers = (
{
anchors = (
{
name = topUC;
position = "{224, 640}";
}
);
background = {
paths = (
{
closed = 1;
nodes = (
"60 0 LINE",
"132 0 LINE",
"132 640 LINE",
"60 640 LINE"
);
},
{
closed = 1;
nodes = (
"107 640 LINE",
"107 576 LINE",
"208 576 LINE SMOOTH",
"301 576 OFFCURVE",
"325 522 OFFCURVE",
"325 438 CURVE SMOOTH",
"325 359 OFFCURVE",
"303 305 OFFCURVE",
"208 305 CURVE SMOOTH",
"105 305 LINE",
"105 241 LINE",
"196 241 LINE",
"204 251 LINE",
"215 251 LINE SMOOTH",
"327 251 OFFCURVE",
"401 312 OFFCURVE",
"401 438 CURVE SMOOTH",
"401 568 OFFCURVE",
"327 640 OFFCURVE",
"215 640 CURVE SMOOTH"
);
},
{
closed = 1;
nodes = (
"411 2 LINE",
"396 166 OFFCURVE",
"311 271 OFFCURVE",
"176 271 CURVE",
"176 244 LINE",
"271 200 OFFCURVE",
"324 135 OFFCURVE",
"337 -5 CURVE"
);
}
);
};
hints = (
{
horizontal = 1;
origin = "{0, 2}";
type = Anchor;
},
{
horizontal = 1;
origin = "{2, 0}";
type = Anchor;
},
{
horizontal = 1;
origin = "{0, 12}";
target = "{1, 2}";
type = TTStem;
options = 4;
},
{
horizontal = 1;
origin = "{0, 3}";
type = Anchor;
},
{
horizontal = 1;
origin = "{0, 3}";
target = "{1, 0}";
type = TTStem;
options = 4;
},
{
horizontal = 1;
origin = "{0, 12}";
target = "{0, 3}";
other1 = "{0, 9, 2, 3}";
type = Interpolate;
options = 4;
}
);
layerId = "95FB0C11-C828-4064-8966-34220AA4D426";
paths = (
{
closed = 1;
nodes = (
"60 640 LINE",
"60 0 LINE",
"132 0 LINE",
"132 241 LINE",
"196 241 LINE",
"204 251 LINE",
"215 251 LINE SMOOTH",
"327 251 OFFCURVE",
"401 312 OFFCURVE",
"401 438 CURVE SMOOTH",
"401 568 OFFCURVE",
"327 640 OFFCURVE",
"215 640 CURVE SMOOTH"
);
},
{
closed = 1;
nodes = (
"132 305 LINE",
"132 576 LINE",
"208 576 LINE SMOOTH",
"301 576 OFFCURVE",
"325 522 OFFCURVE",
"325 438 CURVE SMOOTH",
"325 359 OFFCURVE",
"303 305 OFFCURVE",
"208 305 CURVE SMOOTH"
);
},
{
closed = 1;
nodes = (
"411 2 LINE",
"396 166 OFFCURVE",
"311 271 OFFCURVE",
"176 271 CURVE",
"176 244 LINE",
"271 200 OFFCURVE",
"324 135 OFFCURVE",
"337 -5 CURVE"
);
}
);
width = 448;
},
{
anchors = (
{
name = topUC;
position = "{224, 640}";
}
);
background = {
paths = (
{
closed = 1;
nodes = (
"50 0 LINE",
"162 0 LINE",
"162 640 LINE",
"50 640 LINE"
);
},
{
closed = 1;
nodes = (
"107 640 LINE",
"107 570 LINE",
"194 570 LINE SMOOTH",
"274 570 OFFCURVE",
"295 519 OFFCURVE",
"295 440 CURVE SMOOTH",
"295 367 OFFCURVE",
"276 313 OFFCURVE",
"194 313 CURVE SMOOTH",
"105 313 LINE",
"105 233 LINE",
"196 233 LINE",
"204 243 LINE",
"215 243 LINE SMOOTH",
"333 243 OFFCURVE",
"411 305 OFFCURVE",
"411 433 CURVE SMOOTH",
"411 566 OFFCURVE",
"335 640 OFFCURVE",
"218 640 CURVE SMOOTH"
);
},
{
closed = 1;
nodes = (
"421 2 LINE",
"406 172 OFFCURVE",
"316 279 OFFCURVE",
"176 279 CURVE",
"176 236 LINE",
"253 194 OFFCURVE",
"297 129 OFFCURVE",
"307 -5 CURVE"
);
}
);
};
layerId = "92967D72-867E-4A8B-929F-F44D834DD4C9";
paths = (
{
closed = 1;
nodes = (
"50 640 LINE",
"50 0 LINE",
"162 0 LINE",
"162 233 LINE",
"196 233 LINE",
"204 243 LINE",
"215 243 LINE SMOOTH",
"333 243 OFFCURVE",
"411 305 OFFCURVE",
"411 433 CURVE SMOOTH",
"411 566 OFFCURVE",
"335 640 OFFCURVE",
"218 640 CURVE SMOOTH"
);
},
{
closed = 1;
nodes = (
"162 313 LINE",
"162 570 LINE",
"194 570 LINE SMOOTH",
"274 570 OFFCURVE",
"295 519 OFFCURVE",
"295 440 CURVE SMOOTH",
"295 367 OFFCURVE",
"276 313 OFFCURVE",
"194 313 CURVE SMOOTH"
);
},
{
closed = 1;
nodes = (
"421 2 LINE",
"406 172 OFFCURVE",
"316 279 OFFCURVE",
"176 279 CURVE",
"176 236 LINE",
"253 194 OFFCURVE",
"297 129 OFFCURVE",
"307 -5 CURVE"
);
}
);
width = 448;
},
{
anchors = (
{
name = topUC;
position = "{224, 640}";
}
);
layerId = "7DDCEF54-C770-4FAD-B154-EE8058BAA7E5";
paths = (
{
closed = 1;
nodes = (
"66 640 LINE",
"66 0 LINE",
"114 0 LINE",
"114 246 LINE",
"196 246 LINE",
"204 256 LINE",
"215 256 LINE SMOOTH",
"323 256 OFFCURVE",
"395 316 OFFCURVE",
"395 441 CURVE SMOOTH",
"395 569 OFFCURVE",
"322 640 OFFCURVE",
"213 640 CURVE SMOOTH"
);
},
{
closed = 1;
nodes = (
"114 300 LINE",
"114 580 LINE",
"216 580 LINE SMOOTH",
"317 580 OFFCURVE",
"343 524 OFFCURVE",
"343 437 CURVE SMOOTH",
"343 354 OFFCURVE",
"319 300 OFFCURVE",
"216 300 CURVE SMOOTH"
);
},
{
closed = 1;
nodes = (
"405 2 LINE",
"390 162 OFFCURVE",
"308 266 OFFCURVE",
"176 266 CURVE",
"176 249 LINE",
"282 204 OFFCURVE",
"340 139 OFFCURVE",
"355 -5 CURVE"
);
}
);
width = 448;
}
);
unicode = 0052;
},
{
color = 3;
glyphname = S;
layers = (
{
anchors = (
{
name = bottom;
position = "{169, 20}";
},
{
name = topUC;
position = "{224, 640}";
}
);
background = {
paths = (
{
closed = 1;
nodes = (
"376 630 LINE",
"341 642 OFFCURVE",
"294 648 OFFCURVE",
"256 648 CURVE SMOOTH",
"125 648 OFFCURVE",
"59 572 OFFCURVE",
"59 465 CURVE SMOOTH",
"59 230 OFFCURVE",
"315 298 OFFCURVE",
"315 143 CURVE SMOOTH",
"315 95 OFFCURVE",
"290 58 OFFCURVE",
"198 58 CURVE SMOOTH",
"148 58 OFFCURVE",
"109 69 OFFCURVE",
"70 84 CURVE",
"51 18 LINE",
"96 1 OFFCURVE",
"149 -8 OFFCURVE",
"195 -8 CURVE SMOOTH",
"319 -8 OFFCURVE",
"391 42 OFFCURVE",
"391 149 CURVE SMOOTH",
"391 356 OFFCURVE",
"135 286 OFFCURVE",
"135 468 CURVE SMOOTH",
"135 532 OFFCURVE",
"155 582 OFFCURVE",
"256 582 CURVE SMOOTH",
"286 582 OFFCURVE",
"325 576 OFFCURVE",
"360 564 CURVE"
);
}
);
};
hints = (
{
horizontal = 1;
origin = "{0, 19}";
target = "{0, 12}";
type = TTStem;
options = 4;
},
{
horizontal = 1;
origin = "{0, 3}";
target = "{0, 28}";
type = TTStem;
options = 4;
},
{
horizontal = 1;
origin = "{0, 19}";
target = "{0, 28}";
other1 = "{0, 9, 0}";
type = Interpolate;
options = 4;
},
{
horizontal = 1;
origin = "{0, 12}";
target = "{0, 3}";
other1 = "{0, 25, 0}";
type = Interpolate;
options = 4;
}
);
layerId = "95FB0C11-C828-4064-8966-34220AA4D426";
paths = (
{
closed = 1;
nodes = (
"376 630 LINE",
"341 642 OFFCURVE",
"294 648 OFFCURVE",
"256 648 CURVE SMOOTH",
"125 648 OFFCURVE",
"59 572 OFFCURVE",
"59 465 CURVE SMOOTH",
"59 230 OFFCURVE",
"315 298 OFFCURVE",
"315 143 CURVE SMOOTH",
"315 95 OFFCURVE",
"290 58 OFFCURVE",
"198 58 CURVE SMOOTH",
"148 58 OFFCURVE",
"109 69 OFFCURVE",
"70 84 CURVE",
"51 18 LINE",
"96 1 OFFCURVE",
"149 -8 OFFCURVE",
"195 -8 CURVE SMOOTH",
"319 -8 OFFCURVE",
"391 42 OFFCURVE",
"391 149 CURVE SMOOTH",
"391 356 OFFCURVE",
"135 286 OFFCURVE",
"135 468 CURVE SMOOTH",
"135 532 OFFCURVE",
"155 582 OFFCURVE",
"256 582 CURVE SMOOTH",
"286 582 OFFCURVE",
"325 576 OFFCURVE",
"360 564 CURVE"
);
}
);
width = 448;
},
{
anchors = (
{
name = bottom;
position = "{169, 20}";
},
{
name = topUC;
position = "{224, 640}";
}
);
background = {
paths = (
{
closed = 1;
nodes = (
"390 626 LINE",
"353 640 OFFCURVE",
"305 648 OFFCURVE",
"259 648 CURVE SMOOTH",
"119 648 OFFCURVE",
"49 570 OFFCURVE",
"49 451 CURVE SMOOTH",
"49 219 OFFCURVE",
"285 279 OFFCURVE",
"285 152 CURVE SMOOTH",
"285 110 OFFCURVE",
"262 74 OFFCURVE",
"178 74 CURVE SMOOTH",
"132 74 OFFCURVE",
"94 86 OFFCURVE",
"61 98 CURVE",
"37 24 LINE",
"84 3 OFFCURVE",
"145 -8 OFFCURVE",
"197 -8 CURVE SMOOTH",
"325 -8 OFFCURVE",
"401 44 OFFCURVE",
"401 161 CURVE SMOOTH",
"401 370 OFFCURVE",
"165 306 OFFCURVE",
"165 460 CURVE SMOOTH",
"165 518 OFFCURVE",
"183 566 OFFCURVE",
"273 566 CURVE SMOOTH",
"303 566 OFFCURVE",
"341 558 OFFCURVE",
"370 549 CURVE"
);
}
);
};
layerId = "92967D72-867E-4A8B-929F-F44D834DD4C9";
paths = (
{
closed = 1;
nodes = (
"390 626 LINE",
"353 640 OFFCURVE",
"305 648 OFFCURVE",
"259 648 CURVE SMOOTH",
"119 648 OFFCURVE",
"49 570 OFFCURVE",
"49 451 CURVE SMOOTH",
"49 219 OFFCURVE",
"285 279 OFFCURVE",
"285 152 CURVE SMOOTH",
"285 110 OFFCURVE",
"262 74 OFFCURVE",
"178 74 CURVE SMOOTH",
"132 74 OFFCURVE",
"94 86 OFFCURVE",
"61 98 CURVE",
"37 24 LINE",
"84 3 OFFCURVE",
"145 -8 OFFCURVE",
"197 -8 CURVE SMOOTH",
"325 -8 OFFCURVE",
"401 44 OFFCURVE",
"401 161 CURVE SMOOTH",
"401 370 OFFCURVE",
"165 306 OFFCURVE",
"165 460 CURVE SMOOTH",
"165 518 OFFCURVE",
"183 566 OFFCURVE",
"273 566 CURVE SMOOTH",
"303 566 OFFCURVE",
"341 558 OFFCURVE",
"370 549 CURVE"
);
}
);
width = 448;
},
{
anchors = (
{
name = bottom;
position = "{169, 20}";
},
{
name = topUC;
position = "{224, 640}";
}
);
layerId = "7DDCEF54-C770-4FAD-B154-EE8058BAA7E5";
paths = (
{
closed = 1;
nodes = (
"367 630 LINE",
"339 639 OFFCURVE",
"295 648 OFFCURVE",
"254 648 CURVE SMOOTH",
"130 648 OFFCURVE",
"66 573 OFFCURVE",
"66 473 CURVE SMOOTH",
"66 237 OFFCURVE",
"334 309 OFFCURVE",
"334 140 CURVE SMOOTH",
"334 79 OFFCURVE",
"305 36 OFFCURVE",
"203 36 CURVE SMOOTH",
"150 36 OFFCURVE",
"112 45 OFFCURVE",
"72 57 CURVE",
"60 17 LINE",
"103 2 OFFCURVE",
"151 -8 OFFCURVE",
"208 -8 CURVE SMOOTH",
"315 -8 OFFCURVE",
"384 41 OFFCURVE",
"384 142 CURVE SMOOTH",
"384 348 OFFCURVE",
"116 274 OFFCURVE",
"116 475 CURVE SMOOTH",
"116 545 OFFCURVE",
"151 604 OFFCURVE",
"253 604 CURVE SMOOTH",
"293 604 OFFCURVE",
"325 598 OFFCURVE",
"357 590 CURVE"
);
}
);
width = 448;
}
);
unicode = 0053;
},
{
color = 1;
glyphname = Germandbls;
layers = (
{
background = {
paths = (
{
closed = 1;
nodes = (
"60 0 LINE",
"132 0 LINE",
"132 640 LINE",
"60 640 LINE"
);
},
{
closed = 1;
nodes = (
"189 285 LINE",
"303 245 OFFCURVE",
"329 196 OFFCURVE",
"329 148 CURVE SMOOTH",
"329 95 OFFCURVE",
"304 58 OFFCURVE",
"212 58 CURVE SMOOTH",
"192 58 LINE",
"185 -6 LINE",
"194 -7 OFFCURVE",
"205 -8 OFFCURVE",
"217 -8 CURVE SMOOTH",
"330 -8 OFFCURVE",
"405 44 OFFCURVE",
"405 145 CURVE SMOOTH",
"405 260 OFFCURVE",
"300 314 OFFCURVE",
"206 337 CURVE"
);
},
{
closed = 1;
nodes = (
"311 576 LINE",
"315 556 OFFCURVE",
"316 534 OFFCURVE",
"316 519 CURVE SMOOTH",
"316 434 OFFCURVE",
"285 370 OFFCURVE",
"243 317 CURVE",
"294 288 LINE",
"353 350 OFFCURVE",
"388 427 OFFCURVE",
"388 526 CURVE SMOOTH",
"388 562 OFFCURVE",
"381 609 OFFCURVE",
"374 640 CURVE",
"92 640 LINE",
"92 576 LINE"
);
}
);
};
hints = (
{
horizontal = 1;
origin = "{0, 2}";
type = Anchor;
},
{
horizontal = 1;
origin = "{0, 0}";
target = "{0, 3}";
type = TTStem;
options = 4;
},
{
horizontal = 1;
origin = "{1, 11}";
target = "{1, 6}";
type = TTStem;
options = 4;
},
{
horizontal = 1;
origin = "{0, 3}";
target = "{1, 11}";
other1 = "{1, 0}";
type = Interpolate;
options = 8;
},
{
horizontal = 1;
origin = "{1, 0}";
target = "{1, 17}";
type = TTStem;
options = 4;
},
{
horizontal = 1;
origin = "{1, 17}";
target = "{0, 14, 1, 17}";
type = Align;
options = 4;
}
);
layerId = "95FB0C11-C828-4064-8966-34220AA4D426";
paths = (
{
closed = 1;
nodes = (
"60 640 LINE",
"60 0 LINE",
"132 0 LINE",
"132 576 LINE",
"311 576 LINE",
"315 556 OFFCURVE",
"316 534 OFFCURVE",
"316 519 CURVE SMOOTH",
"316 434 OFFCURVE",
"285 370 OFFCURVE",
"243 317 CURVE",
"294 288 LINE",
"353 350 OFFCURVE",
"388 427 OFFCURVE",
"388 526 CURVE SMOOTH",
"388 562 OFFCURVE",
"381 609 OFFCURVE",
"374 640 CURVE"
);
},
{
closed = 1;
nodes = (
"189 285 LINE",
"303 245 OFFCURVE",
"329 196 OFFCURVE",
"329 148 CURVE SMOOTH",
"329 95 OFFCURVE",
"304 58 OFFCURVE",
"212 58 CURVE SMOOTH",
"192 58 LINE",
"185 -6 LINE",
"194 -7 OFFCURVE",
"205 -8 OFFCURVE",
"217 -8 CURVE SMOOTH",
"330 -8 OFFCURVE",
"405 44 OFFCURVE",
"405 145 CURVE SMOOTH",
"405 260 OFFCURVE",
"300 314 OFFCURVE",
"206 337 CURVE"
);
}
);
width = 448;
},
{
background = {
paths = (
{
closed = 1;
nodes = (
"60 0 LINE",
"132 0 LINE",
"132 640 LINE",
"60 640 LINE"
);
},
{
closed = 1;
nodes = (
"189 285 LINE",
"303 245 OFFCURVE",
"329 196 OFFCURVE",
"329 148 CURVE SMOOTH",
"329 95 OFFCURVE",
"304 58 OFFCURVE",
"212 58 CURVE SMOOTH",
"192 58 LINE",
"185 -6 LINE",
"194 -7 OFFCURVE",
"205 -8 OFFCURVE",
"217 -8 CURVE SMOOTH",
"330 -8 OFFCURVE",
"405 44 OFFCURVE",
"405 145 CURVE SMOOTH",
"405 260 OFFCURVE",
"300 314 OFFCURVE",
"206 337 CURVE"
);
},
{
closed = 1;
nodes = (
"311 576 LINE",
"315 556 OFFCURVE",
"316 534 OFFCURVE",
"316 519 CURVE SMOOTH",
"316 434 OFFCURVE",
"285 370 OFFCURVE",
"243 317 CURVE",
"294 288 LINE",
"353 350 OFFCURVE",
"388 427 OFFCURVE",
"388 526 CURVE SMOOTH",
"388 562 OFFCURVE",
"381 609 OFFCURVE",
"374 640 CURVE",
"92 640 LINE",
"92 576 LINE"
);
}
);
};
layerId = "92967D72-867E-4A8B-929F-F44D834DD4C9";
paths = (
{
closed = 1;
nodes = (
"60 640 LINE",
"60 0 LINE",
"132 0 LINE",
"132 576 LINE",
"311 576 LINE",
"315 556 OFFCURVE",
"316 534 OFFCURVE",
"316 519 CURVE SMOOTH",
"316 434 OFFCURVE",
"285 370 OFFCURVE",
"243 317 CURVE",
"294 288 LINE",
"353 350 OFFCURVE",
"388 427 OFFCURVE",
"388 526 CURVE SMOOTH",
"388 562 OFFCURVE",
"381 609 OFFCURVE",
"374 640 CURVE"
);
},
{
closed = 1;
nodes = (
"189 285 LINE",
"303 245 OFFCURVE",
"329 196 OFFCURVE",
"329 148 CURVE SMOOTH",
"329 95 OFFCURVE",
"304 58 OFFCURVE",
"212 58 CURVE SMOOTH",
"192 58 LINE",
"185 -6 LINE",
"194 -7 OFFCURVE",
"205 -8 OFFCURVE",
"217 -8 CURVE SMOOTH",
"330 -8 OFFCURVE",
"405 44 OFFCURVE",
"405 145 CURVE SMOOTH",
"405 260 OFFCURVE",
"300 314 OFFCURVE",
"206 337 CURVE"
);
}
);
width = 448;
},
{
layerId = "7DDCEF54-C770-4FAD-B154-EE8058BAA7E5";
paths = (
{
closed = 1;
nodes = (
"60 640 LINE",
"60 0 LINE",
"132 0 LINE",
"132 576 LINE",
"311 576 LINE",
"315 556 OFFCURVE",
"316 534 OFFCURVE",
"316 519 CURVE SMOOTH",
"316 434 OFFCURVE",
"285 370 OFFCURVE",
"243 317 CURVE",
"294 288 LINE",
"353 350 OFFCURVE",
"388 427 OFFCURVE",
"388 526 CURVE SMOOTH",
"388 562 OFFCURVE",
"381 609 OFFCURVE",
"374 640 CURVE"
);
},
{
closed = 1;
nodes = (
"189 285 LINE",
"303 245 OFFCURVE",
"329 196 OFFCURVE",
"329 148 CURVE SMOOTH",
"329 95 OFFCURVE",
"304 58 OFFCURVE",
"212 58 CURVE SMOOTH",
"192 58 LINE",
"185 -6 LINE",
"194 -7 OFFCURVE",
"205 -8 OFFCURVE",
"217 -8 CURVE SMOOTH",
"330 -8 OFFCURVE",
"405 44 OFFCURVE",
"405 145 CURVE SMOOTH",
"405 260 OFFCURVE",
"300 314 OFFCURVE",
"206 337 CURVE"
);
}
);
width = 448;
}
);
unicode = 1E9E;
},
{
color = 1;
glyphname = Schwa;
layers = (
{
background = {
paths = (
{
closed = 1;
nodes = (
"39 384 LINE",
"38 365 OFFCURVE",
"37 341 OFFCURVE",
"37 319 CURVE SMOOTH",
"37 102 OFFCURVE",
"98 -10 OFFCURVE",
"224 -10 CURVE SMOOTH",
"353 -10 OFFCURVE",
"411 102 OFFCURVE",
"411 319 CURVE SMOOTH",
"411 560 OFFCURVE",
"353 647 OFFCURVE",
"197 647 CURVE SMOOTH",
"164 647 OFFCURVE",
"118 642 OFFCURVE",
"80 632 CURVE",
"94 571 LINE",
"132 580 OFFCURVE",
"169 583 OFFCURVE",
"191 583 CURVE SMOOTH",
"322 583 OFFCURVE",
"335 507 OFFCURVE",
"335 319 CURVE SMOOTH",
"335 128 OFFCURVE",
"305 56 OFFCURVE",
"224 56 CURVE SMOOTH",
"143 56 OFFCURVE",
"113 128 OFFCURVE",
"113 320 CURVE",
"384 320 LINE",
"384 384 LINE"
);
}
);
};
hints = (
{
horizontal = 1;
origin = "{0, 6}";
target = "{0, 25}";
type = TTStem;
options = 4;
},
{
horizontal = 1;
origin = "{0, 12}";
target = "{0, 19}";
type = TTStem;
options = 4;
},
{
horizontal = 1;
origin = "{0, 6}";
target = "{0, 12}";
other1 = "{0, 22}";
type = Interpolate;
},
{
horizontal = 1;
origin = "{0, 22}";
target = "{0, 0, 0, 22}";
type = TTStem;
options = 4;
}
);
layerId = "95FB0C11-C828-4064-8966-34220AA4D426";
paths = (
{
closed = 1;
nodes = (
"39 384 LINE",
"38 365 OFFCURVE",
"37 341 OFFCURVE",
"37 319 CURVE SMOOTH",
"37 102 OFFCURVE",
"98 -10 OFFCURVE",
"224 -10 CURVE SMOOTH",
"353 -10 OFFCURVE",
"411 102 OFFCURVE",
"411 319 CURVE SMOOTH",
"411 560 OFFCURVE",
"353 647 OFFCURVE",
"197 647 CURVE SMOOTH",
"164 647 OFFCURVE",
"118 642 OFFCURVE",
"80 632 CURVE",
"94 571 LINE",
"132 580 OFFCURVE",
"169 583 OFFCURVE",
"191 583 CURVE SMOOTH",
"322 583 OFFCURVE",
"335 507 OFFCURVE",
"335 319 CURVE SMOOTH",
"335 128 OFFCURVE",
"305 56 OFFCURVE",
"224 56 CURVE SMOOTH",
"143 56 OFFCURVE",
"113 128 OFFCURVE",
"113 320 CURVE",
"384 320 LINE",
"384 384 LINE"
);
}
);
width = 448;
},
{
background = {
paths = (
{
closed = 1;
nodes = (
"39 384 LINE",
"38 365 OFFCURVE",
"37 341 OFFCURVE",
"37 319 CURVE SMOOTH",
"37 102 OFFCURVE",
"98 -10 OFFCURVE",
"224 -10 CURVE SMOOTH",
"353 -10 OFFCURVE",
"411 102 OFFCURVE",
"411 319 CURVE SMOOTH",
"411 560 OFFCURVE",
"353 647 OFFCURVE",
"197 647 CURVE SMOOTH",
"164 647 OFFCURVE",
"118 642 OFFCURVE",
"80 632 CURVE",
"94 571 LINE",
"132 580 OFFCURVE",
"169 583 OFFCURVE",
"191 583 CURVE SMOOTH",
"322 583 OFFCURVE",
"335 507 OFFCURVE",
"335 319 CURVE SMOOTH",
"335 128 OFFCURVE",
"305 56 OFFCURVE",
"224 56 CURVE SMOOTH",
"143 56 OFFCURVE",
"113 128 OFFCURVE",
"113 320 CURVE",
"384 320 LINE",
"384 384 LINE"
);
}
);
};
layerId = "92967D72-867E-4A8B-929F-F44D834DD4C9";
paths = (
{
closed = 1;
nodes = (
"39 384 LINE",
"38 365 OFFCURVE",
"37 341 OFFCURVE",
"37 319 CURVE SMOOTH",
"37 102 OFFCURVE",
"98 -10 OFFCURVE",
"224 -10 CURVE SMOOTH",
"353 -10 OFFCURVE",
"411 102 OFFCURVE",
"411 319 CURVE SMOOTH",
"411 560 OFFCURVE",
"353 647 OFFCURVE",
"197 647 CURVE SMOOTH",
"164 647 OFFCURVE",
"118 642 OFFCURVE",
"80 632 CURVE",
"94 571 LINE",
"132 580 OFFCURVE",
"169 583 OFFCURVE",
"191 583 CURVE SMOOTH",
"322 583 OFFCURVE",
"335 507 OFFCURVE",
"335 319 CURVE SMOOTH",
"335 128 OFFCURVE",
"305 56 OFFCURVE",
"224 56 CURVE SMOOTH",
"143 56 OFFCURVE",
"113 128 OFFCURVE",
"113 320 CURVE",
"384 320 LINE",
"384 384 LINE"
);
}
);
width = 448;
},
{
layerId = "7DDCEF54-C770-4FAD-B154-EE8058BAA7E5";
paths = (
{
closed = 1;
nodes = (
"39 384 LINE",
"38 365 OFFCURVE",
"37 341 OFFCURVE",
"37 319 CURVE SMOOTH",
"37 102 OFFCURVE",
"98 -10 OFFCURVE",
"224 -10 CURVE SMOOTH",
"353 -10 OFFCURVE",
"411 102 OFFCURVE",
"411 319 CURVE SMOOTH",
"411 560 OFFCURVE",
"353 647 OFFCURVE",
"197 647 CURVE SMOOTH",
"164 647 OFFCURVE",
"118 642 OFFCURVE",
"80 632 CURVE",
"94 571 LINE",
"132 580 OFFCURVE",
"169 583 OFFCURVE",
"191 583 CURVE SMOOTH",
"322 583 OFFCURVE",
"335 507 OFFCURVE",
"335 319 CURVE SMOOTH",
"335 128 OFFCURVE",
"305 56 OFFCURVE",
"224 56 CURVE SMOOTH",
"143 56 OFFCURVE",
"113 128 OFFCURVE",
"113 320 CURVE",
"384 320 LINE",
"384 384 LINE"
);
}
);
width = 448;
}
);
leftKerningGroup = O;
rightKerningGroup = O;
unicode = 018F;
},
{
color = 3;
glyphname = T;
layers = (
{
background = {
paths = (
{
closed = 1;
nodes = (
"404 640 LINE",
"44 640 LINE",
"44 576 LINE",
"188 576 LINE",
"188 0 LINE",
"260 0 LINE",
"260 576 LINE",
"404 576 LINE"
);
}
);
};
hints = (
{
horizontal = 1;
origin = "{0, 1}";
target = "{0, 3}";
type = TTStem;
options = 4;
},
{
horizontal = 1;
origin = "{0, 3}";
target = "{0, 6}";
type = Align;
options = 4;
},
{
horizontal = 1;
origin = "{0, 4}";
type = Anchor;
},
{
origin = "{0, 4}";
type = Anchor;
},
{
origin = "{0, 4}";
target = "{0, 5}";
type = TTStem;
options = 4;
}
);
layerId = "95FB0C11-C828-4064-8966-34220AA4D426";
paths = (
{
closed = 1;
nodes = (
"404 640 LINE",
"44 640 LINE",
"44 576 LINE",
"188 576 LINE",
"188 0 LINE",
"260 0 LINE",
"260 576 LINE",
"404 576 LINE"
);
}
);
width = 448;
},
{
background = {
paths = (
{
closed = 1;
nodes = (
"424 640 LINE",
"24 640 LINE",
"24 560 LINE",
"168 560 LINE",
"168 0 LINE",
"280 0 LINE",
"280 560 LINE",
"424 560 LINE"
);
}
);
};
layerId = "92967D72-867E-4A8B-929F-F44D834DD4C9";
paths = (
{
closed = 1;
nodes = (
"424 640 LINE",
"24 640 LINE",
"24 560 LINE",
"168 560 LINE",
"168 0 LINE",
"280 0 LINE",
"280 560 LINE",
"424 560 LINE"
);
}
);
width = 448;
},
{
layerId = "7DDCEF54-C770-4FAD-B154-EE8058BAA7E5";
paths = (
{
closed = 1;
nodes = (
"392 640 LINE",
"56 640 LINE",
"56 596 LINE",
"200 596 LINE",
"200 0 LINE",
"248 0 LINE",
"248 596 LINE",
"392 596 LINE"
);
}
);
width = 448;
}
);
leftKerningGroup = T;
rightKerningGroup = T;
unicode = 0054;
},
{
color = 7;
glyphname = Tbar;
layers = (
{
background = {
components = (
{
name = T;
}
);
paths = (
{
closed = 1;
nodes = (
"364 318 LINE",
"84 318 LINE",
"84 258 LINE",
"364 258 LINE"
);
}
);
};
components = (
{
name = T;
}
);
layerId = "95FB0C11-C828-4064-8966-34220AA4D426";
paths = (
{
closed = 1;
nodes = (
"364 318 LINE",
"84 318 LINE",
"84 258 LINE",
"364 258 LINE"
);
}
);
width = 448;
},
{
background = {
components = (
{
name = T;
}
);
paths = (
{
closed = 1;
nodes = (
"374 326 LINE",
"74 326 LINE",
"74 250 LINE",
"374 250 LINE"
);
}
);
};
components = (
{
name = T;
}
);
layerId = "92967D72-867E-4A8B-929F-F44D834DD4C9";
paths = (
{
closed = 1;
nodes = (
"374 326 LINE",
"74 326 LINE",
"74 250 LINE",
"374 250 LINE"
);
}
);
width = 448;
},
{
components = (
{
name = T;
}
);
layerId = "7DDCEF54-C770-4FAD-B154-EE8058BAA7E5";
paths = (
{
closed = 1;
nodes = (
"358 313 LINE",
"90 313 LINE",
"90 263 LINE",
"358 263 LINE"
);
}
);
width = 448;
}
);
leftKerningGroup = T;
rightKerningGroup = T;
unicode = 0166;
},
{
color = 3;
glyphname = U;
layers = (
{
background = {
paths = (
{
closed = 1;
nodes = (
"60 172 LINE SMOOTH",
"60 43 OFFCURVE",
"128 -8 OFFCURVE",
"224 -8 CURVE SMOOTH",
"320 -8 OFFCURVE",
"388 43 OFFCURVE",
"388 173 CURVE SMOOTH",
"388 640 LINE",
"316 640 LINE",
"316 169 LINE SMOOTH",
"316 100 OFFCURVE",
"297 56 OFFCURVE",
"224 56 CURVE SMOOTH",
"147 56 OFFCURVE",
"132 100 OFFCURVE",
"132 169 CURVE SMOOTH",
"132 640 LINE",
"60 640 LINE"
);
}
);
};
hints = (
{
horizontal = 1;
origin = "{0, 3}";
target = "{0, 12}";
type = TTStem;
options = 4;
},
{
horizontal = 1;
origin = "{0, 16}";
type = Anchor;
},
{
horizontal = 1;
origin = "{0, 8}";
type = Anchor;
}
);
layerId = "95FB0C11-C828-4064-8966-34220AA4D426";
paths = (
{
closed = 1;
nodes = (
"60 172 LINE SMOOTH",
"60 43 OFFCURVE",
"128 -8 OFFCURVE",
"224 -8 CURVE SMOOTH",
"320 -8 OFFCURVE",
"388 43 OFFCURVE",
"388 173 CURVE SMOOTH",
"388 640 LINE",
"316 640 LINE",
"316 169 LINE SMOOTH",
"316 100 OFFCURVE",
"297 56 OFFCURVE",
"224 56 CURVE SMOOTH",
"147 56 OFFCURVE",
"132 100 OFFCURVE",
"132 169 CURVE SMOOTH",
"132 640 LINE",
"60 640 LINE"
);
}
);
width = 448;
},
{
background = {
paths = (
{
closed = 1;
nodes = (
"50 187 LINE SMOOTH",
"50 45 OFFCURVE",
"122 -8 OFFCURVE",
"224 -8 CURVE SMOOTH",
"326 -8 OFFCURVE",
"398 45 OFFCURVE",
"398 187 CURVE SMOOTH",
"398 640 LINE",
"286 640 LINE",
"286 182 LINE SMOOTH",
"286 114 OFFCURVE",
"273 72 OFFCURVE",
"224 72 CURVE SMOOTH",
"172 72 OFFCURVE",
"162 114 OFFCURVE",
"162 182 CURVE SMOOTH",
"162 640 LINE",
"50 640 LINE"
);
}
);
};
layerId = "92967D72-867E-4A8B-929F-F44D834DD4C9";
paths = (
{
closed = 1;
nodes = (
"50 187 LINE SMOOTH",
"50 45 OFFCURVE",
"122 -8 OFFCURVE",
"224 -8 CURVE SMOOTH",
"326 -8 OFFCURVE",
"398 45 OFFCURVE",
"398 187 CURVE SMOOTH",
"398 640 LINE",
"286 640 LINE",
"286 182 LINE SMOOTH",
"286 114 OFFCURVE",
"273 72 OFFCURVE",
"224 72 CURVE SMOOTH",
"172 72 OFFCURVE",
"162 114 OFFCURVE",
"162 182 CURVE SMOOTH",
"162 640 LINE",
"50 640 LINE"
);
}
);
width = 448;
},
{
background = {
paths = (
{
closed = 1;
nodes = (
"66 163 LINE SMOOTH",
"66 42 OFFCURVE",
"132 -8 OFFCURVE",
"224 -8 CURVE SMOOTH",
"316 -8 OFFCURVE",
"382 42 OFFCURVE",
"382 165 CURVE SMOOTH",
"382 640 LINE",
"334 640 LINE",
"334 161 LINE SMOOTH",
"334 92 OFFCURVE",
"311 46 OFFCURVE",
"224 46 CURVE SMOOTH",
"132 46 OFFCURVE",
"114 92 OFFCURVE",
"114 161 CURVE SMOOTH",
"114 640 LINE",
"66 640 LINE"
);
}
);
};
layerId = "7DDCEF54-C770-4FAD-B154-EE8058BAA7E5";
paths = (
{
closed = 1;
nodes = (
"66 163 LINE SMOOTH",
"66 42 OFFCURVE",
"132 -8 OFFCURVE",
"224 -8 CURVE SMOOTH",
"316 -8 OFFCURVE",
"382 42 OFFCURVE",
"382 165 CURVE SMOOTH",
"382 640 LINE",
"334 640 LINE",
"334 161 LINE SMOOTH",
"334 92 OFFCURVE",
"309 36 OFFCURVE",
"224 36 CURVE SMOOTH",
"134 36 OFFCURVE",
"114 92 OFFCURVE",
"114 161 CURVE SMOOTH",
"114 640 LINE",
"66 640 LINE"
);
}
);
width = 448;
}
);
leftKerningGroup = U;
rightKerningGroup = U;
unicode = 0055;
},
{
glyphname = V;
layers = (
{
background = {
paths = (
{
closed = 1;
nodes = (
"56 396 OFFCURVE",
"109 164 OFFCURVE",
"192 -2 CURVE",
"256 -2 LINE",
"339 164 OFFCURVE",
"392 396 OFFCURVE",
"412 638 CURVE",
"338 643 LINE",
"317 404 OFFCURVE",
"273 202 OFFCURVE",
"213 64 CURVE",
"235 64 LINE",
"175 202 OFFCURVE",
"131 404 OFFCURVE",
"110 643 CURVE",
"36 638 LINE"
);
}
);
};
hints = (
{
horizontal = 1;
origin = "{0, 14}";
type = Anchor;
},
{
horizontal = 1;
origin = "{0, 7}";
type = Anchor;
},
{
horizontal = 1;
origin = "{0, 2}";
type = Anchor;
},
{
horizontal = 1;
origin = "{0, 14}";
target = "{0, 2}";
other1 = "{0, 10, 0, 14}";
type = Interpolate;
options = 4;
}
);
layerId = "95FB0C11-C828-4064-8966-34220AA4D426";
paths = (
{
closed = 1;
nodes = (
"56 396 OFFCURVE",
"109 164 OFFCURVE",
"192 -2 CURVE",
"256 -2 LINE",
"339 164 OFFCURVE",
"392 396 OFFCURVE",
"412 638 CURVE",
"338 643 LINE",
"317 404 OFFCURVE",
"273 202 OFFCURVE",
"213 64 CURVE",
"235 64 LINE",
"175 202 OFFCURVE",
"131 404 OFFCURVE",
"110 643 CURVE",
"36 638 LINE"
);
}
);
width = 448;
},
{
background = {
paths = (
{
closed = 1;
nodes = (
"45 396 OFFCURVE",
"94 164 OFFCURVE",
"172 -2 CURVE",
"276 -2 LINE",
"354 164 OFFCURVE",
"403 396 OFFCURVE",
"422 638 CURVE",
"308 643 LINE",
"290 404 OFFCURVE",
"254 202 OFFCURVE",
"205 64 CURVE",
"243 64 LINE",
"194 202 OFFCURVE",
"158 404 OFFCURVE",
"140 643 CURVE",
"26 638 LINE"
);
}
);
};
layerId = "92967D72-867E-4A8B-929F-F44D834DD4C9";
paths = (
{
closed = 1;
nodes = (
"45 396 OFFCURVE",
"94 164 OFFCURVE",
"172 -2 CURVE",
"276 -2 LINE",
"354 164 OFFCURVE",
"403 396 OFFCURVE",
"422 638 CURVE",
"308 643 LINE",
"290 404 OFFCURVE",
"254 202 OFFCURVE",
"205 64 CURVE",
"243 64 LINE",
"194 202 OFFCURVE",
"158 404 OFFCURVE",
"140 643 CURVE",
"26 638 LINE"
);
}
);
width = 448;
},
{
layerId = "7DDCEF54-C770-4FAD-B154-EE8058BAA7E5";
paths = (
{
closed = 1;
nodes = (
"63 396 OFFCURVE",
"118 164 OFFCURVE",
"204 -2 CURVE",
"244 -2 LINE",
"330 164 OFFCURVE",
"385 396 OFFCURVE",
"406 638 CURVE",
"356 643 LINE",
"333 404 OFFCURVE",
"284 202 OFFCURVE",
"218 64 CURVE",
"230 64 LINE",
"164 202 OFFCURVE",
"115 404 OFFCURVE",
"92 643 CURVE",
"42 638 LINE"
);
}
);
width = 448;
}
);
unicode = 0056;
},
{
glyphname = W;
layers = (
{
background = {
paths = (
{
closed = 1;
nodes = (
"165 0 LINE",
"121 214 OFFCURVE",
"116 384 OFFCURVE",
"114 640 CURVE",
"42 640 LINE",
"44 384 OFFCURVE",
"60 207 OFFCURVE",
"112 0 CURVE"
);
},
{
closed = 1;
nodes = (
"176 0 LINE",
"222 128 OFFCURVE",
"228 256 OFFCURVE",
"228 448 CURVE",
"192 448 LINE",
"192 296 OFFCURVE",
"170 160 OFFCURVE",
"131 0 CURVE"
);
},
{
closed = 1;
nodes = (
"336 0 LINE",
"388 207 OFFCURVE",
"404 383 OFFCURVE",
"406 639 CURVE",
"334 640 LINE",
"332 384 OFFCURVE",
"327 214 OFFCURVE",
"283 0 CURVE"
);
},
{
closed = 1;
nodes = (
"317 0 LINE",
"278 160 OFFCURVE",
"256 296 OFFCURVE",
"256 448 CURVE",
"220 448 LINE",
"220 256 OFFCURVE",
"226 128 OFFCURVE",
"272 0 CURVE"
);
}
);
};
hints = (
{
horizontal = 1;
origin = "{0, 7}";
type = Anchor;
},
{
horizontal = 1;
origin = "{3, 7}";
type = Anchor;
},
{
horizontal = 1;
origin = "{0, 4}";
type = Anchor;
},
{
horizontal = 1;
origin = "{2, 4}";
type = Anchor;
},
{
horizontal = 1;
origin = "{1, 4}";
type = Anchor;
},
{
horizontal = 1;
origin = "{0, 7}";
target = "{0, 4}";
other1 = "{0, 3, 1, 7}";
type = Interpolate;
options = 4;
},
{
horizontal = 1;
origin = "{0, 3, 1, 7}";
target = "{2, 7, 3, 3}";
type = Align;
options = 4;
}
);
layerId = "95FB0C11-C828-4064-8966-34220AA4D426";
paths = (
{
closed = 1;
nodes = (
"165 0 LINE",
"121 214 OFFCURVE",
"116 384 OFFCURVE",
"114 640 CURVE",
"42 640 LINE",
"44 384 OFFCURVE",
"60 207 OFFCURVE",
"112 0 CURVE"
);
},
{
closed = 1;
nodes = (
"176 0 LINE",
"222 128 OFFCURVE",
"228 256 OFFCURVE",
"228 448 CURVE",
"192 448 LINE",
"192 296 OFFCURVE",
"170 160 OFFCURVE",
"131 0 CURVE"
);
},
{
closed = 1;
nodes = (
"336 0 LINE",
"388 207 OFFCURVE",
"404 383 OFFCURVE",
"406 639 CURVE",
"334 640 LINE",
"332 384 OFFCURVE",
"327 214 OFFCURVE",
"283 0 CURVE"
);
},
{
closed = 1;
nodes = (
"317 0 LINE",
"278 160 OFFCURVE",
"256 296 OFFCURVE",
"256 448 CURVE",
"220 448 LINE",
"220 256 OFFCURVE",
"226 128 OFFCURVE",
"272 0 CURVE"
);
}
);
width = 448;
},
{
background = {
paths = (
{
closed = 1;
nodes = (
"181 0 LINE",
"139 214 OFFCURVE",
"136 384 OFFCURVE",
"134 640 CURVE",
"22 640 LINE",
"24 384 OFFCURVE",
"40 207 OFFCURVE",
"92 0 CURVE"
);
},
{
closed = 1;
nodes = (
"191 0 LINE",
"233 128 OFFCURVE",
"238 256 OFFCURVE",
"238 448 CURVE",
"182 448 LINE",
"182 296 OFFCURVE",
"170 160 OFFCURVE",
"131 0 CURVE"
);
},
{
closed = 1;
nodes = (
"356 0 LINE",
"408 207 OFFCURVE",
"424 383 OFFCURVE",
"426 639 CURVE",
"314 640 LINE",
"312 384 OFFCURVE",
"309 214 OFFCURVE",
"267 0 CURVE"
);
},
{
closed = 1;
nodes = (
"317 0 LINE",
"278 160 OFFCURVE",
"266 296 OFFCURVE",
"266 448 CURVE",
"210 448 LINE",
"210 256 OFFCURVE",
"215 128 OFFCURVE",
"257 0 CURVE"
);
}
);
};
layerId = "92967D72-867E-4A8B-929F-F44D834DD4C9";
paths = (
{
closed = 1;
nodes = (
"181 0 LINE",
"139 214 OFFCURVE",
"136 384 OFFCURVE",
"134 640 CURVE",
"22 640 LINE",
"24 384 OFFCURVE",
"40 207 OFFCURVE",
"92 0 CURVE"
);
},
{
closed = 1;
nodes = (
"191 0 LINE",
"233 128 OFFCURVE",
"238 256 OFFCURVE",
"238 448 CURVE",
"182 448 LINE",
"182 296 OFFCURVE",
"170 160 OFFCURVE",
"131 0 CURVE"
);
},
{
closed = 1;
nodes = (
"356 0 LINE",
"408 207 OFFCURVE",
"424 383 OFFCURVE",
"426 639 CURVE",
"314 640 LINE",
"312 384 OFFCURVE",
"309 214 OFFCURVE",
"267 0 CURVE"
);
},
{
closed = 1;
nodes = (
"317 0 LINE",
"278 160 OFFCURVE",
"266 296 OFFCURVE",
"266 448 CURVE",
"210 448 LINE",
"210 256 OFFCURVE",
"215 128 OFFCURVE",
"257 0 CURVE"
);
}
);
width = 448;
},
{
layerId = "7DDCEF54-C770-4FAD-B154-EE8058BAA7E5";
paths = (
{
closed = 1;
nodes = (
"155 0 LINE",
"110 214 OFFCURVE",
"104 384 OFFCURVE",
"102 640 CURVE",
"54 640 LINE",
"56 384 OFFCURVE",
"72 207 OFFCURVE",
"124 0 CURVE"
);
},
{
closed = 1;
nodes = (
"167 0 LINE",
"215 128 OFFCURVE",
"222 256 OFFCURVE",
"222 448 CURVE",
"198 448 LINE",
"198 296 OFFCURVE",
"170 160 OFFCURVE",
"131 0 CURVE"
);
},
{
closed = 1;
nodes = (
"324 0 LINE",
"376 207 OFFCURVE",
"392 383 OFFCURVE",
"394 639 CURVE",
"346 640 LINE",
"344 384 OFFCURVE",
"338 214 OFFCURVE",
"293 0 CURVE"
);
},
{
closed = 1;
nodes = (
"317 0 LINE",
"278 160 OFFCURVE",
"250 296 OFFCURVE",
"250 448 CURVE",
"226 448 LINE",
"226 256 OFFCURVE",
"233 128 OFFCURVE",
"281 0 CURVE"
);
}
);
width = 448;
}
);
leftKerningGroup = W;
rightKerningGroup = W;
unicode = 0057;
},
{
glyphname = X;
layers = (
{
background = {
paths = (
{
closed = 1;
nodes = (
"217 264 LINE",
"280 182 OFFCURVE",
"303 118 OFFCURVE",
"327 -7 CURVE",
"399 6 LINE",
"375 133 OFFCURVE",
"344 211 OFFCURVE",
"265 312 CURVE",
"232 337 LINE",
"165 410 OFFCURVE",
"142 485 OFFCURVE",
"128 643 CURVE",
"56 636 LINE",
"72 467 OFFCURVE",
"104 376 OFFCURVE",
"190 282 CURVE"
);
},
{
closed = 1;
nodes = (
"258 282 LINE",
"344 376 OFFCURVE",
"376 467 OFFCURVE",
"392 636 CURVE",
"320 643 LINE",
"306 485 OFFCURVE",
"283 410 OFFCURVE",
"216 337 CURVE",
"183 312 LINE",
"104 211 OFFCURVE",
"72 133 OFFCURVE",
"48 6 CURVE",
"120 -7 LINE",
"144 118 OFFCURVE",
"168 182 OFFCURVE",
"231 264 CURVE"
);
}
);
};
hints = (
{
horizontal = 1;
origin = "{1, 12}";
type = Anchor;
},
{
horizontal = 1;
origin = "{0, 3}";
type = Anchor;
},
{
horizontal = 1;
origin = "{1, 4}";
type = Anchor;
},
{
horizontal = 1;
origin = "{0, 11}";
type = Anchor;
}
);
layerId = "95FB0C11-C828-4064-8966-34220AA4D426";
paths = (
{
closed = 1;
nodes = (
"217 264 LINE",
"280 182 OFFCURVE",
"303 118 OFFCURVE",
"327 -7 CURVE",
"399 6 LINE",
"375 133 OFFCURVE",
"344 211 OFFCURVE",
"265 312 CURVE",
"232 337 LINE",
"165 410 OFFCURVE",
"142 485 OFFCURVE",
"128 643 CURVE",
"56 636 LINE",
"72 467 OFFCURVE",
"104 376 OFFCURVE",
"190 282 CURVE"
);
},
{
closed = 1;
nodes = (
"258 282 LINE",
"344 376 OFFCURVE",
"376 467 OFFCURVE",
"392 636 CURVE",
"320 643 LINE",
"306 485 OFFCURVE",
"283 410 OFFCURVE",
"216 337 CURVE",
"183 312 LINE",
"104 211 OFFCURVE",
"72 133 OFFCURVE",
"48 6 CURVE",
"120 -7 LINE",
"144 118 OFFCURVE",
"168 182 OFFCURVE",
"231 264 CURVE"
);
}
);
width = 448;
},
{
background = {
paths = (
{
closed = 1;
nodes = (
"195 264 LINE",
"253 182 OFFCURVE",
"275 118 OFFCURVE",
"297 -7 CURVE",
"409 6 LINE",
"387 133 OFFCURVE",
"358 211 OFFCURVE",
"285 312 CURVE",
"254 337 LINE",
"192 410 OFFCURVE",
"171 485 OFFCURVE",
"158 643 CURVE",
"46 636 LINE",
"61 467 OFFCURVE",
"90 376 OFFCURVE",
"170 282 CURVE"
);
},
{
closed = 1;
nodes = (
"278 282 LINE",
"358 376 OFFCURVE",
"387 467 OFFCURVE",
"402 636 CURVE",
"290 643 LINE",
"277 485 OFFCURVE",
"256 410 OFFCURVE",
"194 337 CURVE",
"163 312 LINE",
"90 211 OFFCURVE",
"60 133 OFFCURVE",
"38 6 CURVE",
"150 -7 LINE",
"172 118 OFFCURVE",
"194 182 OFFCURVE",
"253 264 CURVE"
);
}
);
};
layerId = "92967D72-867E-4A8B-929F-F44D834DD4C9";
paths = (
{
closed = 1;
nodes = (
"195 264 LINE",
"253 182 OFFCURVE",
"275 118 OFFCURVE",
"297 -7 CURVE",
"409 6 LINE",
"387 133 OFFCURVE",
"358 211 OFFCURVE",
"285 312 CURVE",
"254 337 LINE",
"192 410 OFFCURVE",
"171 485 OFFCURVE",
"158 643 CURVE",
"46 636 LINE",
"61 467 OFFCURVE",
"90 376 OFFCURVE",
"170 282 CURVE"
);
},
{
closed = 1;
nodes = (
"278 282 LINE",
"358 376 OFFCURVE",
"387 467 OFFCURVE",
"402 636 CURVE",
"290 643 LINE",
"277 485 OFFCURVE",
"256 410 OFFCURVE",
"194 337 CURVE",
"163 312 LINE",
"90 211 OFFCURVE",
"60 133 OFFCURVE",
"38 6 CURVE",
"150 -7 LINE",
"172 118 OFFCURVE",
"194 182 OFFCURVE",
"253 264 CURVE"
);
}
);
width = 448;
},
{
layerId = "7DDCEF54-C770-4FAD-B154-EE8058BAA7E5";
paths = (
{
closed = 1;
nodes = (
"230 264 LINE",
"296 182 OFFCURVE",
"320 118 OFFCURVE",
"345 -7 CURVE",
"393 6 LINE",
"368 133 OFFCURVE",
"336 211 OFFCURVE",
"253 312 CURVE",
"219 337 LINE",
"149 410 OFFCURVE",
"125 485 OFFCURVE",
"110 643 CURVE",
"62 636 LINE",
"79 467 OFFCURVE",
"112 376 OFFCURVE",
"202 282 CURVE"
);
},
{
closed = 1;
nodes = (
"246 282 LINE",
"336 376 OFFCURVE",
"369 467 OFFCURVE",
"386 636 CURVE",
"338 643 LINE",
"323 485 OFFCURVE",
"299 410 OFFCURVE",
"229 337 CURVE",
"195 312 LINE",
"112 211 OFFCURVE",
"79 133 OFFCURVE",
"54 6 CURVE",
"102 -7 LINE",
"127 118 OFFCURVE",
"152 182 OFFCURVE",
"218 264 CURVE"
);
}
);
width = 448;
}
);
unicode = 0058;
},
{
glyphname = Y;
layers = (
{
background = {
paths = (
{
closed = 1;
nodes = (
"188 0 LINE",
"260 0 LINE",
"260 202 LINE",
"188 202 LINE"
);
},
{
closed = 1;
nodes = (
"260 202 LINE",
"341 311 OFFCURVE",
"390 447 OFFCURVE",
"411 636 CURVE",
"340 643 LINE",
"318 458 OFFCURVE",
"282 349 OFFCURVE",
"192 202 CURVE"
);
},
{
closed = 1;
nodes = (
"256 202 LINE",
"166 349 OFFCURVE",
"130 458 OFFCURVE",
"108 643 CURVE",
"37 636 LINE",
"58 447 OFFCURVE",
"107 311 OFFCURVE",
"188 202 CURVE"
);
}
);
};
hints = (
{
horizontal = 1;
origin = "{2, 3}";
type = Anchor;
},
{
horizontal = 1;
origin = "{1, 4}";
type = Anchor;
},
{
horizontal = 1;
origin = "{0, 0}";
type = Anchor;
},
{
horizontal = 1;
origin = "{2, 3}";
target = "{0, 0}";
other1 = "{1, 7, 2, 3}";
type = Interpolate;
options = 4;
},
{
horizontal = 1;
origin = "{2, 3}";
target = "{0, 0}";
other1 = "{0, 3}";
type = Interpolate;
options = 4;
},
{
horizontal = 1;
origin = "{0, 3}";
target = "{0, 2}";
type = Align;
options = 4;
}
);
layerId = "95FB0C11-C828-4064-8966-34220AA4D426";
paths = (
{
closed = 1;
nodes = (
"188 0 LINE",
"260 0 LINE",
"260 202 LINE",
"188 202 LINE"
);
},
{
closed = 1;
nodes = (
"260 202 LINE",
"341 311 OFFCURVE",
"390 447 OFFCURVE",
"411 636 CURVE",
"340 643 LINE",
"318 458 OFFCURVE",
"282 349 OFFCURVE",
"192 202 CURVE"
);
},
{
closed = 1;
nodes = (
"256 202 LINE",
"166 349 OFFCURVE",
"130 458 OFFCURVE",
"108 643 CURVE",
"37 636 LINE",
"58 447 OFFCURVE",
"107 311 OFFCURVE",
"188 202 CURVE"
);
}
);
width = 448;
},
{
background = {
paths = (
{
closed = 1;
nodes = (
"168 0 LINE",
"280 0 LINE",
"280 202 LINE",
"168 202 LINE"
);
},
{
closed = 1;
nodes = (
"280 202 LINE",
"356 311 OFFCURVE",
"401 447 OFFCURVE",
"421 636 CURVE",
"310 643 LINE",
"301 451 OFFCURVE",
"271 359 OFFCURVE",
"185 202 CURVE"
);
},
{
closed = 1;
nodes = (
"263 202 LINE",
"177 359 OFFCURVE",
"147 451 OFFCURVE",
"138 643 CURVE",
"27 636 LINE",
"47 447 OFFCURVE",
"92 311 OFFCURVE",
"168 202 CURVE"
);
}
);
};
layerId = "92967D72-867E-4A8B-929F-F44D834DD4C9";
paths = (
{
closed = 1;
nodes = (
"168 0 LINE",
"280 0 LINE",
"280 202 LINE",
"168 202 LINE"
);
},
{
closed = 1;
nodes = (
"280 202 LINE",
"356 311 OFFCURVE",
"401 447 OFFCURVE",
"421 636 CURVE",
"310 643 LINE",
"301 451 OFFCURVE",
"271 359 OFFCURVE",
"185 202 CURVE"
);
},
{
closed = 1;
nodes = (
"263 202 LINE",
"177 359 OFFCURVE",
"147 451 OFFCURVE",
"138 643 CURVE",
"27 636 LINE",
"47 447 OFFCURVE",
"92 311 OFFCURVE",
"168 202 CURVE"
);
}
);
width = 448;
},
{
layerId = "7DDCEF54-C770-4FAD-B154-EE8058BAA7E5";
paths = (
{
closed = 1;
nodes = (
"200 0 LINE",
"248 0 LINE",
"248 202 LINE",
"200 202 LINE"
);
},
{
closed = 1;
nodes = (
"248 202 LINE",
"332 311 OFFCURVE",
"383 447 OFFCURVE",
"405 636 CURVE",
"358 643 LINE",
"328 462 OFFCURVE",
"289 343 OFFCURVE",
"196 202 CURVE"
);
},
{
closed = 1;
nodes = (
"252 202 LINE",
"159 343 OFFCURVE",
"120 462 OFFCURVE",
"90 643 CURVE",
"43 636 LINE",
"65 447 OFFCURVE",
"116 311 OFFCURVE",
"200 202 CURVE"
);
}
);
width = 448;
}
);
leftKerningGroup = Y;
rightKerningGroup = Y;
unicode = 0059;
},
{
color = 3;
glyphname = Z;
layers = (
{
background = {
paths = (
{
closed = 1;
nodes = (
"67 576 LINE",
"352 576 LINE",
"388 620 LINE",
"388 640 LINE",
"67 640 LINE"
);
},
{
closed = 1;
nodes = (
"55 0 LINE",
"388 0 LINE",
"388 64 LINE",
"91 64 LINE",
"55 16 LINE"
);
},
{
closed = 1;
nodes = (
"287 384 OFFCURVE",
"303 398 OFFCURVE",
"303 416 CURVE SMOOTH",
"303 434 OFFCURVE",
"287 448 OFFCURVE",
"267 448 CURVE SMOOTH",
"247 448 OFFCURVE",
"231 434 OFFCURVE",
"231 416 CURVE SMOOTH",
"231 398 OFFCURVE",
"247 384 OFFCURVE",
"267 384 CURVE SMOOTH"
);
}
);
};
hints = (
{
horizontal = 1;
origin = "{1, 4}";
target = "{0, 0, 1, 2}";
type = TTStem;
options = 4;
},
{
horizontal = 1;
origin = "{2, 2}";
target = "{0, 2, 2, 0}";
type = TTStem;
options = 4;
},
{
horizontal = 1;
origin = "{0, 2, 2, 0}";
target = "{0, 0}";
type = Align;
options = 4;
},
{
horizontal = 1;
origin = "{0, 0, 1, 2}";
target = "{0, 2}";
type = Align;
options = 4;
}
);
layerId = "95FB0C11-C828-4064-8966-34220AA4D426";
paths = (
{
closed = 1;
nodes = (
"388 588 LINE",
"310 588 LINE",
"55 52 LINE",
"133 52 LINE"
);
},
{
closed = 1;
nodes = (
"388 0 LINE",
"388 64 LINE",
"91 64 LINE",
"55 52 LINE",
"55 0 LINE"
);
},
{
closed = 1;
nodes = (
"352 576 LINE",
"388 588 LINE",
"388 640 LINE",
"67 640 LINE",
"67 576 LINE"
);
}
);
width = 448;
},
{
background = {
paths = (
{
closed = 1;
nodes = (
"311 406 OFFCURVE",
"336 424 OFFCURVE",
"336 446 CURVE SMOOTH",
"336 468 OFFCURVE",
"311 486 OFFCURVE",
"280 486 CURVE SMOOTH",
"249 486 OFFCURVE",
"224 468 OFFCURVE",
"224 446 CURVE SMOOTH",
"224 424 OFFCURVE",
"249 406 OFFCURVE",
"280 406 CURVE SMOOTH"
);
}
);
};
layerId = "92967D72-867E-4A8B-929F-F44D834DD4C9";
paths = (
{
closed = 1;
nodes = (
"398 580 LINE",
"280 580 LINE",
"45 60 LINE",
"163 60 LINE"
);
},
{
closed = 1;
nodes = (
"398 0 LINE",
"398 80 LINE",
"91 80 LINE",
"45 60 LINE",
"45 0 LINE"
);
},
{
closed = 1;
nodes = (
"352 560 LINE",
"398 580 LINE",
"398 640 LINE",
"57 640 LINE",
"57 560 LINE"
);
}
);
width = 448;
},
{
background = {
paths = (
{
closed = 1;
nodes = (
"237 304 OFFCURVE",
"248 314 OFFCURVE",
"248 326 CURVE SMOOTH",
"248 338 OFFCURVE",
"237 348 OFFCURVE",
"224 348 CURVE SMOOTH",
"211 348 OFFCURVE",
"200 338 OFFCURVE",
"200 326 CURVE SMOOTH",
"200 314 OFFCURVE",
"211 304 OFFCURVE",
"224 304 CURVE SMOOTH"
);
}
);
};
layerId = "7DDCEF54-C770-4FAD-B154-EE8058BAA7E5";
paths = (
{
closed = 1;
nodes = (
"382 603 LINE",
"329 603 LINE",
"61 37 LINE",
"114 37 LINE"
);
},
{
closed = 1;
nodes = (
"382 0 LINE",
"382 44 LINE",
"91 44 LINE",
"61 37 LINE",
"61 0 LINE"
);
},
{
closed = 1;
nodes = (
"352 596 LINE",
"382 603 LINE",
"382 640 LINE",
"73 640 LINE",
"73 596 LINE"
);
}
);
width = 448;
},
{
associatedMasterId = "95FB0C11-C828-4064-8966-34220AA4D426";
background = {
paths = (
{
closed = 1;
nodes = (
"67 576 LINE",
"352 576 LINE",
"388 620 LINE",
"388 640 LINE",
"67 640 LINE"
);
},
{
closed = 1;
nodes = (
"55 0 LINE",
"388 0 LINE",
"388 64 LINE",
"91 64 LINE",
"55 16 LINE"
);
},
{
closed = 1;
nodes = (
"127 10 LINE",
"127 114 OFFCURVE",
"183 186 OFFCURVE",
"266 279 CURVE SMOOTH",
"330 351 OFFCURVE",
"388 438 OFFCURVE",
"388 620 CURVE",
"316 620 LINE",
"316 477 OFFCURVE",
"281 403 OFFCURVE",
"203 317 CURVE SMOOTH",
"144 252 OFFCURVE",
"55 155 OFFCURVE",
"55 16 CURVE"
);
}
);
};
layerId = "1BF81CE7-B602-42F2-879C-1688460814A7";
name = "Dec 9 17, 22:03";
paths = (
{
closed = 1;
nodes = (
"67 576 LINE",
"352 576 LINE",
"388 620 LINE",
"388 640 LINE",
"67 640 LINE"
);
},
{
closed = 1;
nodes = (
"55 0 LINE",
"388 0 LINE",
"388 64 LINE",
"91 64 LINE",
"55 16 LINE"
);
},
{
closed = 1;
nodes = (
"127 10 LINE",
"127 114 OFFCURVE",
"183 186 OFFCURVE",
"266 279 CURVE SMOOTH",
"330 351 OFFCURVE",
"388 438 OFFCURVE",
"388 620 CURVE",
"316 620 LINE",
"316 477 OFFCURVE",
"281 403 OFFCURVE",
"203 317 CURVE SMOOTH",
"144 252 OFFCURVE",
"55 155 OFFCURVE",
"55 16 CURVE"
);
}
);
width = 448;
},
{
associatedMasterId = "92967D72-867E-4A8B-929F-F44D834DD4C9";
background = {
paths = (
{
closed = 1;
nodes = (
"57 560 LINE",
"352 560 LINE",
"398 620 LINE",
"398 640 LINE",
"57 640 LINE"
);
},
{
closed = 1;
nodes = (
"45 0 LINE",
"398 0 LINE",
"398 80 LINE",
"91 80 LINE",
"45 16 LINE"
);
},
{
closed = 1;
nodes = (
"157 10 LINE",
"157 121 OFFCURVE",
"210 180 OFFCURVE",
"286 272 CURVE SMOOTH",
"346 344 OFFCURVE",
"398 434 OFFCURVE",
"398 620 CURVE",
"286 620 LINE",
"286 475 OFFCURVE",
"253 410 OFFCURVE",
"183 326 CURVE SMOOTH",
"127 260 OFFCURVE",
"45 159 OFFCURVE",
"45 16 CURVE"
);
}
);
};
layerId = "31FD5FDE-BE78-481D-A20B-01CB5ADE6548";
name = "Dec 9 17, 22:03";
paths = (
{
closed = 1;
nodes = (
"57 560 LINE",
"352 560 LINE",
"398 620 LINE",
"398 640 LINE",
"57 640 LINE"
);
},
{
closed = 1;
nodes = (
"45 0 LINE",
"398 0 LINE",
"398 80 LINE",
"91 80 LINE",
"45 16 LINE"
);
},
{
closed = 1;
nodes = (
"157 10 LINE",
"157 121 OFFCURVE",
"210 180 OFFCURVE",
"286 272 CURVE SMOOTH",
"346 344 OFFCURVE",
"398 434 OFFCURVE",
"398 620 CURVE",
"286 620 LINE",
"286 475 OFFCURVE",
"253 410 OFFCURVE",
"183 326 CURVE SMOOTH",
"127 260 OFFCURVE",
"45 159 OFFCURVE",
"45 16 CURVE"
);
}
);
width = 448;
},
{
associatedMasterId = "7DDCEF54-C770-4FAD-B154-EE8058BAA7E5";
layerId = "BB6D759E-09E5-4837-9458-F3954C9C31E9";
name = "Dec 9 17, 22:03";
paths = (
{
closed = 1;
nodes = (
"73 586 LINE",
"352 586 LINE",
"382 620 LINE",
"382 640 LINE",
"73 640 LINE"
);
},
{
closed = 1;
nodes = (
"61 0 LINE",
"382 0 LINE",
"382 54 LINE",
"91 54 LINE",
"61 16 LINE"
);
},
{
closed = 1;
nodes = (
"109 10 LINE",
"109 110 OFFCURVE",
"167 190 OFFCURVE",
"254 283 CURVE SMOOTH",
"320 355 OFFCURVE",
"382 440 OFFCURVE",
"382 620 CURVE",
"334 620 LINE",
"334 478 OFFCURVE",
"298 399 OFFCURVE",
"215 312 CURVE SMOOTH",
"154 247 OFFCURVE",
"61 153 OFFCURVE",
"61 16 CURVE"
);
}
);
width = 448;
}
);
unicode = 005A;
},
{
export = 0;
glyphname = N.001;
layers = (
{
background = {
paths = (
{
closed = 1;
nodes = (
"60 0 LINE",
"132 0 LINE",
"132 608 LINE",
"121 640 LINE",
"60 640 LINE"
);
},
{
closed = 1;
nodes = (
"316 31 LINE",
"327 0 LINE",
"388 0 LINE",
"388 640 LINE",
"316 640 LINE"
);
},
{
closed = 1;
nodes = (
"327 0 LINE",
"386 43 LINE",
"121 640 LINE",
"61 599 LINE"
);
}
);
};
layerId = "95FB0C11-C828-4064-8966-34220AA4D426";
paths = (
{
closed = 1;
nodes = (
"60 0 LINE",
"132 0 LINE",
"132 608 LINE",
"121 640 LINE",
"60 640 LINE"
);
},
{
closed = 1;
nodes = (
"316 31 LINE",
"327 0 LINE",
"388 0 LINE",
"388 640 LINE",
"316 640 LINE"
);
},
{
closed = 1;
nodes = (
"327 0 LINE",
"386 43 LINE",
"121 640 LINE",
"61 599 LINE"
);
}
);
width = 448;
},
{
background = {
paths = (
{
closed = 1;
nodes = (
"60 0 LINE",
"132 0 LINE",
"132 608 LINE",
"121 640 LINE",
"60 640 LINE"
);
},
{
closed = 1;
nodes = (
"316 31 LINE",
"327 0 LINE",
"388 0 LINE",
"388 640 LINE",
"316 640 LINE"
);
},
{
closed = 1;
nodes = (
"327 0 LINE",
"386 43 LINE",
"121 640 LINE",
"61 599 LINE"
);
}
);
};
color = 1;
layerId = "92967D72-867E-4A8B-929F-F44D834DD4C9";
paths = (
{
closed = 1;
nodes = (
"60 0 LINE",
"132 0 LINE",
"132 608 LINE",
"121 640 LINE",
"60 640 LINE"
);
},
{
closed = 1;
nodes = (
"316 31 LINE",
"327 0 LINE",
"388 0 LINE",
"388 640 LINE",
"316 640 LINE"
);
},
{
closed = 1;
nodes = (
"327 0 LINE",
"386 43 LINE",
"121 640 LINE",
"61 599 LINE"
);
}
);
width = 448;
},
{
layerId = "7DDCEF54-C770-4FAD-B154-EE8058BAA7E5";
paths = (
{
closed = 1;
nodes = (
"60 0 LINE",
"132 0 LINE",
"132 608 LINE",
"121 640 LINE",
"60 640 LINE"
);
},
{
closed = 1;
nodes = (
"316 31 LINE",
"327 0 LINE",
"388 0 LINE",
"388 640 LINE",
"316 640 LINE"
);
},
{
closed = 1;
nodes = (
"327 0 LINE",
"386 43 LINE",
"121 640 LINE",
"61 599 LINE"
);
}
);
width = 448;
}
);
},
{
export = 0;
glyphname = K.orig;
layers = (
{
anchors = (
{
name = bottom;
position = "{224, 0}";
}
);
background = {
paths = (
{
closed = 1;
nodes = (
"60 0 LINE",
"132 0 LINE",
"132 640 LINE",
"60 640 LINE"
);
},
{
closed = 1;
nodes = (
"274 290 LINE",
"339 390 OFFCURVE",
"377 490 OFFCURVE",
"401 627 CURVE",
"325 643 LINE",
"302 508 OFFCURVE",
"273 417 OFFCURVE",
"213 320 CURVE"
);
},
{
closed = 1;
nodes = (
"325 -3 LINE",
"403 3 LINE",
"390 151 LINE SMOOTH",
"379 281 OFFCURVE",
"307 325 OFFCURVE",
"180 325 CURVE SMOOTH",
"121 325 LINE",
"121 261 LINE",
"185 261 LINE SMOOTH",
"286 261 OFFCURVE",
"311 233 OFFCURVE",
"316 146 CURVE SMOOTH"
);
}
);
};
hints = (
{
horizontal = 1;
origin = "{0, 7}";
target = "{0, 0}";
type = Anchor;
},
{
horizontal = 1;
origin = "{0, 4}";
target = "{0, 0}";
type = Anchor;
},
{
horizontal = 1;
origin = "{1, 4}";
target = "{0, 0}";
type = Anchor;
},
{
horizontal = 1;
origin = "{0, 13}";
target = "{0, 0}";
type = Anchor;
},
{
horizontal = 1;
origin = "{0, 9}";
target = "{0, 0}";
type = Anchor;
},
{
horizontal = 1;
origin = "{0, 9}";
target = "{0, 2}";
type = TTStem;
options = 4;
},
{
horizontal = 1;
origin = "{0, 9}";
target = "{0, 2}";
other1 = "{-1, 0}";
type = Interpolate;
options = 4;
}
);
layerId = "95FB0C11-C828-4064-8966-34220AA4D426";
paths = (
{
closed = 1;
nodes = (
"379 281 OFFCURVE",
"307 325 OFFCURVE",
"180 325 CURVE SMOOTH",
"132 325 LINE",
"132 640 LINE",
"60 640 LINE",
"60 0 LINE",
"132 0 LINE",
"132 261 LINE",
"185 261 LINE SMOOTH",
"286 261 OFFCURVE",
"311 233 OFFCURVE",
"316 146 CURVE SMOOTH",
"325 -3 LINE",
"403 3 LINE",
"390 151 LINE SMOOTH"
);
},
{
closed = 1;
nodes = (
"274 290 LINE",
"339 390 OFFCURVE",
"377 490 OFFCURVE",
"401 627 CURVE",
"325 643 LINE",
"302 508 OFFCURVE",
"273 417 OFFCURVE",
"213 320 CURVE"
);
}
);
width = 448;
},
{
anchors = (
{
name = bottom;
position = "{224, 0}";
}
);
background = {
paths = (
{
closed = 1;
nodes = (
"50 0 LINE",
"162 0 LINE",
"162 640 LINE",
"50 640 LINE"
);
},
{
closed = 1;
nodes = (
"284 282 LINE",
"352 387 OFFCURVE",
"386 484 OFFCURVE",
"411 627 CURVE",
"295 643 LINE",
"272 508 OFFCURVE",
"244 420 OFFCURVE",
"183 328 CURVE"
);
},
{
closed = 1;
nodes = (
"295 -5 LINE",
"413 3 LINE",
"399 155 LINE SMOOTH",
"388 288 OFFCURVE",
"313 333 OFFCURVE",
"180 333 CURVE SMOOTH",
"121 333 LINE",
"121 253 LINE",
"185 253 LINE SMOOTH",
"264 253 OFFCURVE",
"284 226 OFFCURVE",
"288 141 CURVE SMOOTH"
);
}
);
};
layerId = "92967D72-867E-4A8B-929F-F44D834DD4C9";
paths = (
{
closed = 1;
nodes = (
"388 288 OFFCURVE",
"313 333 OFFCURVE",
"180 333 CURVE SMOOTH",
"162 333 LINE",
"162 640 LINE",
"50 640 LINE",
"50 0 LINE",
"162 0 LINE",
"162 253 LINE",
"185 253 LINE SMOOTH",
"264 253 OFFCURVE",
"284 226 OFFCURVE",
"288 141 CURVE SMOOTH",
"295 -5 LINE",
"413 3 LINE",
"399 155 LINE SMOOTH"
);
},
{
closed = 1;
nodes = (
"284 282 LINE",
"352 387 OFFCURVE",
"386 484 OFFCURVE",
"411 627 CURVE",
"295 643 LINE",
"272 508 OFFCURVE",
"244 420 OFFCURVE",
"183 328 CURVE"
);
}
);
width = 448;
},
{
anchors = (
{
name = bottom;
position = "{224, 0}";
}
);
layerId = "7DDCEF54-C770-4FAD-B154-EE8058BAA7E5";
paths = (
{
closed = 1;
nodes = (
"374 277 OFFCURVE",
"303 320 OFFCURVE",
"180 320 CURVE SMOOTH",
"114 320 LINE",
"114 640 LINE",
"66 640 LINE",
"66 0 LINE",
"114 0 LINE",
"114 266 LINE",
"185 266 LINE SMOOTH",
"299 266 OFFCURVE",
"327 237 OFFCURVE",
"333 149 CURVE SMOOTH",
"343 -2 LINE",
"397 3 LINE",
"385 149 LINE SMOOTH"
);
},
{
closed = 1;
nodes = (
"268 295 LINE",
"331 392 OFFCURVE",
"372 494 OFFCURVE",
"395 627 CURVE",
"343 643 LINE",
"320 508 OFFCURVE",
"290 415 OFFCURVE",
"231 315 CURVE"
);
}
);
width = 448;
}
);
},
{
color = 3;
export = 0;
glyphname = I.ss20;
layers = (
{
background = {
paths = (
{
closed = 1;
nodes = (
"261 640 LINE",
"58 640 LINE",
"58 576 LINE",
"124 576 LINE",
"124 64 LINE",
"54 64 LINE",
"54 0 LINE",
"266 0 LINE",
"266 64 LINE",
"196 64 LINE",
"196 576 LINE",
"261 576 LINE"
);
}
);
};
hints = (
{
horizontal = 1;
origin = "{0, 11}";
target = "{0, 9}";
type = TTStem;
options = 4;
},
{
horizontal = 1;
origin = "{0, 9}";
target = "{0, 2}";
type = Align;
options = 4;
},
{
horizontal = 1;
origin = "{0, 6}";
target = "{0, 8}";
type = TTStem;
options = 4;
},
{
horizontal = 1;
origin = "{0, 8}";
target = "{0, 3}";
type = Align;
options = 4;
}
);
layerId = "95FB0C11-C828-4064-8966-34220AA4D426";
paths = (
{
closed = 1;
nodes = (
"266 0 LINE",
"266 60 LINE",
"196 64 LINE",
"196 576 LINE",
"261 580 LINE",
"261 640 LINE",
"58 640 LINE",
"58 580 LINE",
"124 576 LINE",
"124 64 LINE",
"54 60 LINE",
"54 0 LINE"
);
}
);
width = 320;
},
{
background = {
paths = (
{
closed = 1;
nodes = (
"271 640 LINE",
"48 640 LINE",
"48 560 LINE",
"104 560 LINE",
"104 80 LINE",
"44 80 LINE",
"44 0 LINE",
"276 0 LINE",
"276 80 LINE",
"216 80 LINE",
"216 560 LINE",
"271 560 LINE"
);
}
);
};
layerId = "92967D72-867E-4A8B-929F-F44D834DD4C9";
paths = (
{
closed = 1;
nodes = (
"276 0 LINE",
"276 76 LINE",
"216 80 LINE",
"216 560 LINE",
"271 564 LINE",
"271 640 LINE",
"48 640 LINE",
"48 564 LINE",
"104 560 LINE",
"104 80 LINE",
"44 76 LINE",
"44 0 LINE"
);
}
);
width = 320;
},
{
layerId = "7DDCEF54-C770-4FAD-B154-EE8058BAA7E5";
paths = (
{
closed = 1;
nodes = (
"260 0 LINE",
"260 38 LINE",
"184 42 LINE",
"184 598 LINE",
"255 602 LINE",
"255 640 LINE",
"64 640 LINE",
"64 602 LINE",
"136 598 LINE",
"136 42 LINE",
"60 38 LINE",
"60 0 LINE"
);
}
);
width = 320;
}
);
},
{
color = 1;
export = 0;
glyphname = M.ss20;
layers = (
{
layerId = "7DDCEF54-C770-4FAD-B154-EE8058BAA7E5";
paths = (
{
closed = 1;
nodes = (
"132 0 LINE",
"132 420 LINE",
"125 540 LINE",
"161 420 LINE",
"254 150 LINE",
"306 150 LINE",
"400 420 LINE",
"433 530 LINE",
"428 420 LINE",
"428 0 LINE",
"500 0 LINE",
"500 640 LINE",
"408 640 LINE",
"306 346 LINE",
"280 262 LINE",
"254 346 LINE",
"152 640 LINE",
"60 640 LINE",
"60 0 LINE"
);
}
);
width = 560;
},
{
hints = (
{
horizontal = 1;
origin = "{0, 17}";
type = Anchor;
},
{
horizontal = 1;
origin = "{0, 12}";
type = Anchor;
},
{
horizontal = 1;
origin = "{0, 0}";
type = Anchor;
},
{
horizontal = 1;
origin = "{0, 10}";
type = Anchor;
},
{
horizontal = 1;
origin = "{0, 4}";
type = Anchor;
},
{
horizontal = 1;
origin = "{0, 17}";
target = "{0, 0}";
other1 = "{0, 2}";
type = Interpolate;
options = 4;
},
{
horizontal = 1;
origin = "{0, 17}";
target = "{0, 4}";
other1 = "{0, 14}";
type = Interpolate;
options = 4;
},
{
horizontal = 1;
origin = "{0, 2}";
target = "{0, 7}";
type = Align;
options = 4;
}
);
layerId = "95FB0C11-C828-4064-8966-34220AA4D426";
paths = (
{
closed = 1;
nodes = (
"132 0 LINE",
"132 420 LINE",
"125 540 LINE",
"161 420 LINE",
"254 150 LINE",
"306 150 LINE",
"400 420 LINE",
"433 530 LINE",
"428 420 LINE",
"428 0 LINE",
"500 0 LINE",
"500 640 LINE",
"408 640 LINE",
"306 346 LINE",
"280 262 LINE",
"254 346 LINE",
"152 640 LINE",
"60 640 LINE",
"60 0 LINE"
);
}
);
width = 560;
},
{
layerId = "92967D72-867E-4A8B-929F-F44D834DD4C9";
paths = (
{
closed = 1;
nodes = (
"132 0 LINE",
"132 420 LINE",
"125 540 LINE",
"161 420 LINE",
"254 150 LINE",
"306 150 LINE",
"400 420 LINE",
"433 530 LINE",
"428 420 LINE",
"428 0 LINE",
"500 0 LINE",
"500 640 LINE",
"408 640 LINE",
"306 346 LINE",
"280 262 LINE",
"254 346 LINE",
"152 640 LINE",
"60 640 LINE",
"60 0 LINE"
);
}
);
width = 560;
}
);
},
{
color = 0;
export = 0;
glyphname = W.ss20;
layers = (
{
layerId = "7DDCEF54-C770-4FAD-B154-EE8058BAA7E5";
paths = (
{
closed = 1;
nodes = (
"155 0 LINE",
"110 214 OFFCURVE",
"104 384 OFFCURVE",
"102 640 CURVE",
"54 640 LINE",
"56 384 OFFCURVE",
"72 207 OFFCURVE",
"124 0 CURVE"
);
},
{
closed = 1;
nodes = (
"167 0 LINE",
"215 128 OFFCURVE",
"222 256 OFFCURVE",
"222 448 CURVE",
"198 448 LINE",
"198 296 OFFCURVE",
"170 160 OFFCURVE",
"131 0 CURVE"
);
},
{
closed = 1;
nodes = (
"324 0 LINE",
"376 207 OFFCURVE",
"392 383 OFFCURVE",
"394 639 CURVE",
"346 640 LINE",
"344 384 OFFCURVE",
"338 214 OFFCURVE",
"293 0 CURVE"
);
},
{
closed = 1;
nodes = (
"317 0 LINE",
"278 160 OFFCURVE",
"250 296 OFFCURVE",
"250 448 CURVE",
"226 448 LINE",
"226 256 OFFCURVE",
"233 128 OFFCURVE",
"281 0 CURVE"
);
}
);
width = 448;
},
{
hints = (
{
horizontal = 1;
origin = "{0, 7}";
type = Anchor;
},
{
horizontal = 1;
origin = "{3, 7}";
type = Anchor;
},
{
horizontal = 1;
origin = "{0, 4}";
type = Anchor;
},
{
horizontal = 1;
origin = "{2, 4}";
type = Anchor;
},
{
horizontal = 1;
origin = "{1, 4}";
type = Anchor;
},
{
horizontal = 1;
origin = "{0, 7}";
target = "{0, 4}";
other1 = "{0, 3, 1, 7}";
type = Interpolate;
options = 4;
},
{
horizontal = 1;
origin = "{0, 3, 1, 7}";
target = "{2, 7, 3, 3}";
type = Align;
options = 4;
}
);
layerId = "95FB0C11-C828-4064-8966-34220AA4D426";
paths = (
{
closed = 1;
nodes = (
"165 0 LINE",
"121 214 OFFCURVE",
"116 384 OFFCURVE",
"114 640 CURVE",
"42 640 LINE",
"44 384 OFFCURVE",
"60 207 OFFCURVE",
"112 0 CURVE"
);
},
{
closed = 1;
nodes = (
"176 0 LINE",
"222 128 OFFCURVE",
"228 256 OFFCURVE",
"228 448 CURVE",
"192 448 LINE",
"192 296 OFFCURVE",
"170 160 OFFCURVE",
"131 0 CURVE"
);
},
{
closed = 1;
nodes = (
"336 0 LINE",
"388 207 OFFCURVE",
"404 383 OFFCURVE",
"406 639 CURVE",
"334 640 LINE",
"332 384 OFFCURVE",
"327 214 OFFCURVE",
"283 0 CURVE"
);
},
{
closed = 1;
nodes = (
"317 0 LINE",
"278 160 OFFCURVE",
"256 296 OFFCURVE",
"256 448 CURVE",
"220 448 LINE",
"220 256 OFFCURVE",
"226 128 OFFCURVE",
"272 0 CURVE"
);
}
);
width = 448;
},
{
layerId = "92967D72-867E-4A8B-929F-F44D834DD4C9";
paths = (
{
closed = 1;
nodes = (
"181 0 LINE",
"139 214 OFFCURVE",
"136 384 OFFCURVE",
"134 640 CURVE",
"22 640 LINE",
"24 384 OFFCURVE",
"40 207 OFFCURVE",
"92 0 CURVE"
);
},
{
closed = 1;
nodes = (
"191 0 LINE",
"233 128 OFFCURVE",
"238 256 OFFCURVE",
"238 448 CURVE",
"182 448 LINE",
"182 296 OFFCURVE",
"170 160 OFFCURVE",
"131 0 CURVE"
);
},
{
closed = 1;
nodes = (
"356 0 LINE",
"408 207 OFFCURVE",
"424 383 OFFCURVE",
"426 639 CURVE",
"314 640 LINE",
"312 384 OFFCURVE",
"309 214 OFFCURVE",
"267 0 CURVE"
);
},
{
closed = 1;
nodes = (
"317 0 LINE",
"278 160 OFFCURVE",
"266 296 OFFCURVE",
"266 448 CURVE",
"210 448 LINE",
"210 256 OFFCURVE",
"215 128 OFFCURVE",
"257 0 CURVE"
);
}
);
width = 448;
}
);
},
{
color = 1;
export = 0;
glyphname = I.ss02.ss20;
layers = (
{
background = {
paths = (
{
closed = 1;
nodes = (
"60 0 LINE",
"132 0 LINE",
"132 640 LINE",
"60 640 LINE"
);
}
);
};
hints = (
{
horizontal = 1;
origin = "{0, 0}";
type = Anchor;
},
{
horizontal = 1;
origin = "{0, 3}";
type = Anchor;
}
);
layerId = "95FB0C11-C828-4064-8966-34220AA4D426";
paths = (
{
closed = 1;
nodes = (
"60 0 LINE",
"132 0 LINE",
"132 640 LINE",
"60 640 LINE"
);
}
);
width = 192;
},
{
background = {
paths = (
{
closed = 1;
nodes = (
"60 0 LINE",
"132 0 LINE",
"132 640 LINE",
"60 640 LINE"
);
}
);
};
layerId = "92967D72-867E-4A8B-929F-F44D834DD4C9";
paths = (
{
closed = 1;
nodes = (
"60 0 LINE",
"132 0 LINE",
"132 640 LINE",
"60 640 LINE"
);
}
);
width = 192;
},
{
layerId = "7DDCEF54-C770-4FAD-B154-EE8058BAA7E5";
paths = (
{
closed = 1;
nodes = (
"60 0 LINE",
"132 0 LINE",
"132 640 LINE",
"60 640 LINE"
);
}
);
width = 192;
}
);
},
{
export = 0;
glyphname = M.wide;
layers = (
{
layerId = "7DDCEF54-C770-4FAD-B154-EE8058BAA7E5";
paths = (
{
closed = 1;
nodes = (
"169 385 LINE",
"260 0 LINE",
"323 0 LINE",
"270 256 LINE",
"177 640 LINE",
"110 640 LINE"
);
},
{
closed = 1;
nodes = (
"474 300 LINE",
"474 0 LINE",
"546 0 LINE",
"546 640 LINE",
"480 640 LINE"
);
},
{
closed = 1;
nodes = (
"54 0 LINE",
"126 0 LINE",
"126 300 LINE",
"122 640 LINE",
"54 640 LINE"
);
},
{
closed = 1;
nodes = (
"423 640 LINE",
"332 256 LINE",
"281 0 LINE",
"344 0 LINE",
"433 384 LINE",
"491 640 LINE"
);
}
);
width = 600;
},
{
hints = (
{
horizontal = 1;
origin = "{2, 4}";
type = Anchor;
},
{
horizontal = 1;
origin = "{2, 1}";
type = Anchor;
},
{
horizontal = 1;
origin = "{0, 1}";
type = Anchor;
},
{
horizontal = 1;
origin = "{1, 1}";
type = Anchor;
},
{
horizontal = 1;
origin = "{3, 0}";
type = Anchor;
},
{
horizontal = 1;
origin = "{2, 4}";
target = "{2, 1}";
other1 = "{0, 0, 2, 3}";
type = Interpolate;
options = 4;
},
{
horizontal = 1;
origin = "{0, 0, 2, 3}";
target = "{1, 0, 3, 5}";
type = Align;
options = 4;
},
{
horizontal = 1;
origin = "{2, 4}";
target = "{2, 1}";
other1 = "{0, 3, 3, 2}";
type = Interpolate;
options = 4;
}
);
layerId = "95FB0C11-C828-4064-8966-34220AA4D426";
paths = (
{
closed = 1;
nodes = (
"169 385 LINE",
"260 0 LINE",
"323 0 LINE",
"270 256 LINE",
"177 640 LINE",
"110 640 LINE"
);
},
{
closed = 1;
nodes = (
"474 300 LINE",
"474 0 LINE",
"546 0 LINE",
"546 640 LINE",
"480 640 LINE"
);
},
{
closed = 1;
nodes = (
"54 0 LINE",
"126 0 LINE",
"126 300 LINE",
"122 640 LINE",
"54 640 LINE"
);
},
{
closed = 1;
nodes = (
"423 640 LINE",
"332 256 LINE",
"281 0 LINE",
"344 0 LINE",
"433 384 LINE",
"491 640 LINE"
);
}
);
width = 600;
},
{
layerId = "92967D72-867E-4A8B-929F-F44D834DD4C9";
paths = (
{
closed = 1;
nodes = (
"169 385 LINE",
"260 0 LINE",
"323 0 LINE",
"270 256 LINE",
"177 640 LINE",
"110 640 LINE"
);
},
{
closed = 1;
nodes = (
"474 300 LINE",
"474 0 LINE",
"546 0 LINE",
"546 640 LINE",
"480 640 LINE"
);
},
{
closed = 1;
nodes = (
"54 0 LINE",
"126 0 LINE",
"126 300 LINE",
"122 640 LINE",
"54 640 LINE"
);
},
{
closed = 1;
nodes = (
"423 640 LINE",
"332 256 LINE",
"281 0 LINE",
"344 0 LINE",
"433 384 LINE",
"491 640 LINE"
);
}
);
width = 600;
}
);
},
{
color = 3;
glyphname = a;
layers = (
{
anchors = (
{
name = bottomAttach;
position = "{347, 0}";
},
{
name = topLC;
position = "{224, 448}";
}
);
background = {
paths = (
{
closed = 1;
nodes = (
"316 64 LINE",
"324 0 LINE",
"392 0 LINE",
"388 64 LINE",
"388 299 LINE SMOOTH",
"388 413 OFFCURVE",
"331 452 OFFCURVE",
"234 452 CURVE SMOOTH",
"189 452 OFFCURVE",
"141 446 OFFCURVE",
"93 431 CURVE",
"109 369 LINE",
"151 380 OFFCURVE",
"186 388 OFFCURVE",
"225 388 CURVE SMOOTH",
"296 388 OFFCURVE",
"316 363 OFFCURVE",
"316 285 CURVE SMOOTH"
);
},
{
closed = 1;
nodes = (
"349 269 LINE",
"234 258 LINE SMOOTH",
"107 246 OFFCURVE",
"58 192 OFFCURVE",
"58 117 CURVE SMOOTH",
"58 37 OFFCURVE",
"117 -4 OFFCURVE",
"184 -4 CURVE SMOOTH",
"252 -4 OFFCURVE",
"306 30 OFFCURVE",
"353 59 CURVE",
"337 111 LINE",
"289 85 OFFCURVE",
"244 60 OFFCURVE",
"199 60 CURVE SMOOTH",
"153 60 OFFCURVE",
"134 86 OFFCURVE",
"134 121 CURVE SMOOTH",
"134 166 OFFCURVE",
"166 190 OFFCURVE",
"250 197 CURVE SMOOTH",
"349 205 LINE"
);
}
);
};
hints = (
{
horizontal = 1;
origin = "{0, 1}";
type = Anchor;
},
{
horizontal = 1;
origin = "{1, 6}";
target = "{1, 13}";
type = TTStem;
options = 4;
},
{
horizontal = 1;
origin = "{0, 7}";
target = "{0, 14}";
type = TTStem;
options = 4;
},
{
horizontal = 1;
origin = "{1, 6}";
target = "{0, 7}";
other1 = "{0, 0, 1, 19}";
type = Interpolate;
},
{
horizontal = 1;
origin = "{0, 0, 1, 19}";
target = "{0, 0, 1, 3}";
type = TTStem;
options = 4;
},
{
origin = "{1, 3}";
type = Anchor;
},
{
origin = "{1, 3}";
target = "{1, 16}";
type = TTStem;
options = 4;
},
{
origin = "{1, 3}";
target = "{0, 10}";
type = Align;
options = 4;
},
{
origin = "{0, 4}";
type = Anchor;
},
{
origin = "{0, 4}";
target = "{0, 17}";
type = TTStem;
options = 4;
},
{
origin = "{0, 17}";
target = "{0, 0, 1, 19}";
type = Align;
options = 4;
},
{
origin = "{0, 0, 1, 19}";
target = "{0, 1, 1, 9}";
type = Align;
options = 4;
}
);
layerId = "95FB0C11-C828-4064-8966-34220AA4D426";
paths = (
{
closed = 1;
nodes = (
"308 64 LINE",
"316 0 LINE",
"384 0 LINE",
"380 64 LINE",
"380 299 LINE SMOOTH",
"380 409 OFFCURVE",
"321 453 OFFCURVE",
"221 453 CURVE SMOOTH",
"164 453 OFFCURVE",
"113 437 OFFCURVE",
"73 419 CURVE",
"94 361 LINE",
"131 375 OFFCURVE",
"175 388 OFFCURVE",
"216 388 CURVE SMOOTH",
"283 388 OFFCURVE",
"308 363 OFFCURVE",
"308 285 CURVE SMOOTH"
);
},
{
closed = 1;
nodes = (
"341 268 LINE",
"129 268 OFFCURVE",
"50 216 OFFCURVE",
"50 119 CURVE SMOOTH",
"50 37 OFFCURVE",
"109 -4 OFFCURVE",
"176 -4 CURVE SMOOTH",
"244 -4 OFFCURVE",
"298 30 OFFCURVE",
"345 59 CURVE",
"329 111 LINE",
"281 85 OFFCURVE",
"236 60 OFFCURVE",
"191 60 CURVE SMOOTH",
"145 60 OFFCURVE",
"126 86 OFFCURVE",
"126 123 CURVE SMOOTH",
"126 178 OFFCURVE",
"178 206 OFFCURVE",
"341 206 CURVE"
);
}
);
width = 448;
},
{
anchors = (
{
name = bottomAttach;
position = "{343, 0}";
},
{
name = topLC;
position = "{224, 448}";
}
);
background = {
paths = (
{
closed = 1;
nodes = (
"286 85 LINE",
"305 0 LINE",
"400 0 LINE",
"398 64 LINE",
"398 299 LINE SMOOTH",
"398 407 OFFCURVE",
"341 452 OFFCURVE",
"234 452 CURVE SMOOTH",
"185 452 OFFCURVE",
"128 443 OFFCURVE",
"78 428 CURVE",
"93 358 LINE",
"132 367 OFFCURVE",
"166 372 OFFCURVE",
"200 372 CURVE SMOOTH",
"268 372 OFFCURVE",
"286 350 OFFCURVE",
"286 285 CURVE SMOOTH"
);
},
{
closed = 1;
nodes = (
"349 276 LINE",
"230 266 LINE SMOOTH",
"98 255 OFFCURVE",
"48 204 OFFCURVE",
"48 123 CURVE SMOOTH",
"48 39 OFFCURVE",
"103 -4 OFFCURVE",
"180 -4 CURVE SMOOTH",
"256 -4 OFFCURVE",
"309 33 OFFCURVE",
"363 75 CURVE",
"336 130 LINE",
"281 91 OFFCURVE",
"249 76 OFFCURVE",
"217 76 CURVE SMOOTH",
"180 76 OFFCURVE",
"164 98 OFFCURVE",
"164 128 CURVE SMOOTH",
"164 167 OFFCURVE",
"192 194 OFFCURVE",
"264 200 CURVE SMOOTH",
"349 207 LINE"
);
}
);
};
layerId = "92967D72-867E-4A8B-929F-F44D834DD4C9";
paths = (
{
closed = 1;
nodes = (
"276 85 LINE",
"295 0 LINE",
"390 0 LINE",
"388 64 LINE",
"388 299 LINE SMOOTH",
"388 407 OFFCURVE",
"331 454 OFFCURVE",
"220 454 CURVE SMOOTH",
"151 454 OFFCURVE",
"94 437 OFFCURVE",
"56 423 CURVE",
"74 344 LINE",
"106 354 OFFCURVE",
"151 366 OFFCURVE",
"196 366 CURVE SMOOTH",
"256 366 OFFCURVE",
"276 346 OFFCURVE",
"276 285 CURVE SMOOTH"
);
},
{
closed = 1;
nodes = (
"339 276 LINE",
"124 276 OFFCURVE",
"38 228 OFFCURVE",
"38 123 CURVE SMOOTH",
"38 39 OFFCURVE",
"93 -4 OFFCURVE",
"170 -4 CURVE SMOOTH",
"246 -4 OFFCURVE",
"299 33 OFFCURVE",
"353 75 CURVE",
"326 130 LINE",
"271 91 OFFCURVE",
"239 76 OFFCURVE",
"207 76 CURVE SMOOTH",
"170 76 OFFCURVE",
"154 98 OFFCURVE",
"154 128 CURVE SMOOTH",
"154 176 OFFCURVE",
"198 207 OFFCURVE",
"339 207 CURVE"
);
}
);
width = 448;
},
{
anchors = (
{
name = bottomAttach;
position = "{355, 0}";
},
{
name = topLC;
position = "{224, 448}";
}
);
background = {
paths = (
{
closed = 1;
nodes = (
"320 71 LINE",
"327 0 LINE",
"373 0 LINE",
"368 64 LINE",
"368 312 LINE SMOOTH",
"368 415 OFFCURVE",
"311 452 OFFCURVE",
"226 452 CURVE SMOOTH",
"170 452 OFFCURVE",
"114 432 OFFCURVE",
"75 413 CURVE",
"90 376 LINE",
"134 395 OFFCURVE",
"177 407 OFFCURVE",
"224 407 CURVE SMOOTH",
"289 407 OFFCURVE",
"320 382 OFFCURVE",
"320 298 CURVE SMOOTH"
);
},
{
closed = 1;
nodes = (
"335 258 LINE",
"228 249 LINE SMOOTH",
"101 238 OFFCURVE",
"50 180 OFFCURVE",
"50 113 CURVE SMOOTH",
"50 35 OFFCURVE",
"108 -4 OFFCURVE",
"172 -4 CURVE SMOOTH",
"236 -4 OFFCURVE",
"283 30 OFFCURVE",
"338 71 CURVE",
"324 107 LINE",
"268 65 OFFCURVE",
"227 41 OFFCURVE",
"174 41 CURVE SMOOTH",
"128 41 OFFCURVE",
"102 70 OFFCURVE",
"102 115 CURVE SMOOTH",
"102 168 OFFCURVE",
"145 200 OFFCURVE",
"234 207 CURVE SMOOTH",
"335 215 LINE"
);
}
);
};
layerId = "7DDCEF54-C770-4FAD-B154-EE8058BAA7E5";
paths = (
{
closed = 1;
nodes = (
"320 71 LINE",
"327 0 LINE",
"373 0 LINE",
"368 64 LINE",
"368 312 LINE SMOOTH",
"368 415 OFFCURVE",
"311 452 OFFCURVE",
"226 452 CURVE SMOOTH",
"166 452 OFFCURVE",
"108 433 OFFCURVE",
"70 417 CURVE",
"82 379 LINE",
"128 395 OFFCURVE",
"173 407 OFFCURVE",
"222 407 CURVE SMOOTH",
"291 407 OFFCURVE",
"320 382 OFFCURVE",
"320 298 CURVE SMOOTH"
);
},
{
closed = 1;
nodes = (
"335 258 LINE",
"138 258 OFFCURVE",
"50 204 OFFCURVE",
"50 113 CURVE SMOOTH",
"50 35 OFFCURVE",
"108 -4 OFFCURVE",
"172 -4 CURVE SMOOTH",
"236 -4 OFFCURVE",
"283 30 OFFCURVE",
"338 71 CURVE",
"324 107 LINE",
"268 65 OFFCURVE",
"227 41 OFFCURVE",
"174 41 CURVE SMOOTH",
"128 41 OFFCURVE",
"102 70 OFFCURVE",
"102 115 CURVE SMOOTH",
"102 180 OFFCURVE",
"165 217 OFFCURVE",
"335 217 CURVE"
);
}
);
width = 448;
}
);
unicode = 0061;
},
{
color = 0;
glyphname = ae;
layers = (
{
background = {
paths = (
{
closed = 1;
nodes = (
"192 320 LINE",
"256 320 LINE",
"256 384 LINE",
"192 384 LINE"
);
},
{
closed = 1;
nodes = (
"192 256 LINE",
"256 256 LINE",
"256 320 LINE",
"192 320 LINE"
);
},
{
closed = 1;
nodes = (
"192 192 LINE",
"256 192 LINE",
"256 256 LINE",
"192 256 LINE"
);
},
{
closed = 1;
nodes = (
"192 128 LINE",
"256 128 LINE",
"256 192 LINE",
"192 192 LINE"
);
},
{
closed = 1;
nodes = (
"192 64 LINE",
"256 64 LINE",
"256 128 LINE",
"192 128 LINE"
);
},
{
closed = 1;
nodes = (
"192 0 LINE",
"256 0 LINE",
"256 64 LINE",
"192 64 LINE"
);
},
{
closed = 1;
nodes = (
"128 0 LINE",
"192 0 LINE",
"192 64 LINE",
"128 64 LINE"
);
},
{
closed = 1;
nodes = (
"64 64 LINE",
"128 64 LINE",
"128 128 LINE",
"64 128 LINE"
);
},
{
closed = 1;
nodes = (
"64 128 LINE",
"128 128 LINE",
"128 192 LINE",
"64 192 LINE"
);
},
{
closed = 1;
nodes = (
"128 192 LINE",
"192 192 LINE",
"192 256 LINE",
"128 256 LINE"
);
},
{
closed = 1;
nodes = (
"128 384 LINE",
"192 384 LINE",
"192 448 LINE",
"128 448 LINE"
);
},
{
closed = 1;
nodes = (
"256 384 LINE",
"320 384 LINE",
"320 448 LINE",
"256 448 LINE"
);
},
{
closed = 1;
nodes = (
"320 320 LINE",
"384 320 LINE",
"384 384 LINE",
"320 384 LINE"
);
},
{
closed = 1;
nodes = (
"320 256 LINE",
"384 256 LINE",
"384 320 LINE",
"320 320 LINE"
);
},
{
closed = 1;
nodes = (
"320 192 LINE",
"384 192 LINE",
"384 256 LINE",
"320 256 LINE"
);
},
{
closed = 1;
nodes = (
"256 192 LINE",
"320 192 LINE",
"320 256 LINE",
"256 256 LINE"
);
},
{
closed = 1;
nodes = (
"320 0 LINE",
"384 0 LINE",
"384 64 LINE",
"320 64 LINE"
);
},
{
closed = 1;
nodes = (
"256 0 LINE",
"320 0 LINE",
"320 64 LINE",
"256 64 LINE"
);
},
{
closed = 1;
nodes = (
"192 384 LINE",
"256 384 LINE",
"256 448 LINE",
"192 448 LINE"
);
}
);
};
layerId = "95FB0C11-C828-4064-8966-34220AA4D426";
paths = (
{
closed = 1;
nodes = (
"192 320 LINE",
"256 320 LINE",
"256 384 LINE",
"192 384 LINE"
);
},
{
closed = 1;
nodes = (
"192 256 LINE",
"256 256 LINE",
"256 320 LINE",
"192 320 LINE"
);
},
{
closed = 1;
nodes = (
"192 192 LINE",
"256 192 LINE",
"256 256 LINE",
"192 256 LINE"
);
},
{
closed = 1;
nodes = (
"192 128 LINE",
"256 128 LINE",
"256 192 LINE",
"192 192 LINE"
);
},
{
closed = 1;
nodes = (
"192 64 LINE",
"256 64 LINE",
"256 128 LINE",
"192 128 LINE"
);
},
{
closed = 1;
nodes = (
"192 0 LINE",
"256 0 LINE",
"256 64 LINE",
"192 64 LINE"
);
},
{
closed = 1;
nodes = (
"128 0 LINE",
"192 0 LINE",
"192 64 LINE",
"128 64 LINE"
);
},
{
closed = 1;
nodes = (
"64 64 LINE",
"128 64 LINE",
"128 128 LINE",
"64 128 LINE"
);
},
{
closed = 1;
nodes = (
"64 128 LINE",
"128 128 LINE",
"128 192 LINE",
"64 192 LINE"
);
},
{
closed = 1;
nodes = (
"128 192 LINE",
"192 192 LINE",
"192 256 LINE",
"128 256 LINE"
);
},
{
closed = 1;
nodes = (
"128 384 LINE",
"192 384 LINE",
"192 448 LINE",
"128 448 LINE"
);
},
{
closed = 1;
nodes = (
"256 384 LINE",
"320 384 LINE",
"320 448 LINE",
"256 448 LINE"
);
},
{
closed = 1;
nodes = (
"320 320 LINE",
"384 320 LINE",
"384 384 LINE",
"320 384 LINE"
);
},
{
closed = 1;
nodes = (
"320 256 LINE",
"384 256 LINE",
"384 320 LINE",
"320 320 LINE"
);
},
{
closed = 1;
nodes = (
"320 192 LINE",
"384 192 LINE",
"384 256 LINE",
"320 256 LINE"
);
},
{
closed = 1;
nodes = (
"256 192 LINE",
"320 192 LINE",
"320 256 LINE",
"256 256 LINE"
);
},
{
closed = 1;
nodes = (
"320 0 LINE",
"384 0 LINE",
"384 64 LINE",
"320 64 LINE"
);
},
{
closed = 1;
nodes = (
"256 0 LINE",
"320 0 LINE",
"320 64 LINE",
"256 64 LINE"
);
},
{
closed = 1;
nodes = (
"192 384 LINE",
"256 384 LINE",
"256 448 LINE",
"192 448 LINE"
);
}
);
width = 448;
},
{
background = {
paths = (
{
closed = 1;
nodes = (
"192 320 LINE",
"256 320 LINE",
"256 384 LINE",
"192 384 LINE"
);
},
{
closed = 1;
nodes = (
"192 256 LINE",
"256 256 LINE",
"256 320 LINE",
"192 320 LINE"
);
},
{
closed = 1;
nodes = (
"192 192 LINE",
"256 192 LINE",
"256 256 LINE",
"192 256 LINE"
);
},
{
closed = 1;
nodes = (
"192 128 LINE",
"256 128 LINE",
"256 192 LINE",
"192 192 LINE"
);
},
{
closed = 1;
nodes = (
"192 64 LINE",
"256 64 LINE",
"256 128 LINE",
"192 128 LINE"
);
},
{
closed = 1;
nodes = (
"192 0 LINE",
"256 0 LINE",
"256 64 LINE",
"192 64 LINE"
);
},
{
closed = 1;
nodes = (
"128 0 LINE",
"192 0 LINE",
"192 64 LINE",
"128 64 LINE"
);
},
{
closed = 1;
nodes = (
"64 64 LINE",
"128 64 LINE",
"128 128 LINE",
"64 128 LINE"
);
},
{
closed = 1;
nodes = (
"64 128 LINE",
"128 128 LINE",
"128 192 LINE",
"64 192 LINE"
);
},
{
closed = 1;
nodes = (
"128 192 LINE",
"192 192 LINE",
"192 256 LINE",
"128 256 LINE"
);
},
{
closed = 1;
nodes = (
"128 384 LINE",
"192 384 LINE",
"192 448 LINE",
"128 448 LINE"
);
},
{
closed = 1;
nodes = (
"256 384 LINE",
"320 384 LINE",
"320 448 LINE",
"256 448 LINE"
);
},
{
closed = 1;
nodes = (
"320 320 LINE",
"384 320 LINE",
"384 384 LINE",
"320 384 LINE"
);
},
{
closed = 1;
nodes = (
"320 256 LINE",
"384 256 LINE",
"384 320 LINE",
"320 320 LINE"
);
},
{
closed = 1;
nodes = (
"320 192 LINE",
"384 192 LINE",
"384 256 LINE",
"320 256 LINE"
);
},
{
closed = 1;
nodes = (
"256 192 LINE",
"320 192 LINE",
"320 256 LINE",
"256 256 LINE"
);
},
{
closed = 1;
nodes = (
"320 0 LINE",
"384 0 LINE",
"384 64 LINE",
"320 64 LINE"
);
},
{
closed = 1;
nodes = (
"256 0 LINE",
"320 0 LINE",
"320 64 LINE",
"256 64 LINE"
);
},
{
closed = 1;
nodes = (
"192 384 LINE",
"256 384 LINE",
"256 448 LINE",
"192 448 LINE"
);
}
);
};
layerId = "92967D72-867E-4A8B-929F-F44D834DD4C9";
paths = (
{
closed = 1;
nodes = (
"192 320 LINE",
"256 320 LINE",
"256 384 LINE",
"192 384 LINE"
);
},
{
closed = 1;
nodes = (
"192 256 LINE",
"256 256 LINE",
"256 320 LINE",
"192 320 LINE"
);
},
{
closed = 1;
nodes = (
"192 192 LINE",
"256 192 LINE",
"256 256 LINE",
"192 256 LINE"
);
},
{
closed = 1;
nodes = (
"192 128 LINE",
"256 128 LINE",
"256 192 LINE",
"192 192 LINE"
);
},
{
closed = 1;
nodes = (
"192 64 LINE",
"256 64 LINE",
"256 128 LINE",
"192 128 LINE"
);
},
{
closed = 1;
nodes = (
"192 0 LINE",
"256 0 LINE",
"256 64 LINE",
"192 64 LINE"
);
},
{
closed = 1;
nodes = (
"128 0 LINE",
"192 0 LINE",
"192 64 LINE",
"128 64 LINE"
);
},
{
closed = 1;
nodes = (
"64 64 LINE",
"128 64 LINE",
"128 128 LINE",
"64 128 LINE"
);
},
{
closed = 1;
nodes = (
"64 128 LINE",
"128 128 LINE",
"128 192 LINE",
"64 192 LINE"
);
},
{
closed = 1;
nodes = (
"128 192 LINE",
"192 192 LINE",
"192 256 LINE",
"128 256 LINE"
);
},
{
closed = 1;
nodes = (
"128 384 LINE",
"192 384 LINE",
"192 448 LINE",
"128 448 LINE"
);
},
{
closed = 1;
nodes = (
"256 384 LINE",
"320 384 LINE",
"320 448 LINE",
"256 448 LINE"
);
},
{
closed = 1;
nodes = (
"320 320 LINE",
"384 320 LINE",
"384 384 LINE",
"320 384 LINE"
);
},
{
closed = 1;
nodes = (
"320 256 LINE",
"384 256 LINE",
"384 320 LINE",
"320 320 LINE"
);
},
{
closed = 1;
nodes = (
"320 192 LINE",
"384 192 LINE",
"384 256 LINE",
"320 256 LINE"
);
},
{
closed = 1;
nodes = (
"256 192 LINE",
"320 192 LINE",
"320 256 LINE",
"256 256 LINE"
);
},
{
closed = 1;
nodes = (
"320 0 LINE",
"384 0 LINE",
"384 64 LINE",
"320 64 LINE"
);
},
{
closed = 1;
nodes = (
"256 0 LINE",
"320 0 LINE",
"320 64 LINE",
"256 64 LINE"
);
},
{
closed = 1;
nodes = (
"192 384 LINE",
"256 384 LINE",
"256 448 LINE",
"192 448 LINE"
);
}
);
width = 448;
},
{
layerId = "7DDCEF54-C770-4FAD-B154-EE8058BAA7E5";
paths = (
{
closed = 1;
nodes = (
"192 320 LINE",
"256 320 LINE",
"256 384 LINE",
"192 384 LINE"
);
},
{
closed = 1;
nodes = (
"192 256 LINE",
"256 256 LINE",
"256 320 LINE",
"192 320 LINE"
);
},
{
closed = 1;
nodes = (
"192 192 LINE",
"256 192 LINE",
"256 256 LINE",
"192 256 LINE"
);
},
{
closed = 1;
nodes = (
"192 128 LINE",
"256 128 LINE",
"256 192 LINE",
"192 192 LINE"
);
},
{
closed = 1;
nodes = (
"192 64 LINE",
"256 64 LINE",
"256 128 LINE",
"192 128 LINE"
);
},
{
closed = 1;
nodes = (
"192 0 LINE",
"256 0 LINE",
"256 64 LINE",
"192 64 LINE"
);
},
{
closed = 1;
nodes = (
"128 0 LINE",
"192 0 LINE",
"192 64 LINE",
"128 64 LINE"
);
},
{
closed = 1;
nodes = (
"64 64 LINE",
"128 64 LINE",
"128 128 LINE",
"64 128 LINE"
);
},
{
closed = 1;
nodes = (
"64 128 LINE",
"128 128 LINE",
"128 192 LINE",
"64 192 LINE"
);
},
{
closed = 1;
nodes = (
"128 192 LINE",
"192 192 LINE",
"192 256 LINE",
"128 256 LINE"
);
},
{
closed = 1;
nodes = (
"128 384 LINE",
"192 384 LINE",
"192 448 LINE",
"128 448 LINE"
);
},
{
closed = 1;
nodes = (
"256 384 LINE",
"320 384 LINE",
"320 448 LINE",
"256 448 LINE"
);
},
{
closed = 1;
nodes = (
"320 320 LINE",
"384 320 LINE",
"384 384 LINE",
"320 384 LINE"
);
},
{
closed = 1;
nodes = (
"320 256 LINE",
"384 256 LINE",
"384 320 LINE",
"320 320 LINE"
);
},
{
closed = 1;
nodes = (
"320 192 LINE",
"384 192 LINE",
"384 256 LINE",
"320 256 LINE"
);
},
{
closed = 1;
nodes = (
"256 192 LINE",
"320 192 LINE",
"320 256 LINE",
"256 256 LINE"
);
},
{
closed = 1;
nodes = (
"320 0 LINE",
"384 0 LINE",
"384 64 LINE",
"320 64 LINE"
);
},
{
closed = 1;
nodes = (
"256 0 LINE",
"320 0 LINE",
"320 64 LINE",
"256 64 LINE"
);
},
{
closed = 1;
nodes = (
"192 384 LINE",
"256 384 LINE",
"256 448 LINE",
"192 448 LINE"
);
}
);
width = 448;
}
);
unicode = 00E6;
},
{
color = 3;
glyphname = b;
layers = (
{
background = {
paths = (
{
closed = 1;
nodes = (
"75 224 CURVE SMOOTH",
"75 82 OFFCURVE",
"118 -8 OFFCURVE",
"233 -8 CURVE SMOOTH",
"347 -8 OFFCURVE",
"397 93 OFFCURVE",
"397 224 CURVE SMOOTH",
"397 355 OFFCURVE",
"347 456 OFFCURVE",
"232 456 CURVE SMOOTH",
"118 456 OFFCURVE",
"75 371 OFFCURVE"
);
},
{
closed = 1;
nodes = (
"104 224 CURVE SMOOTH",
"104 353 OFFCURVE",
"152 392 OFFCURVE",
"224 392 CURVE SMOOTH",
"293 392 OFFCURVE",
"319 353 OFFCURVE",
"319 224 CURVE SMOOTH",
"319 97 OFFCURVE",
"293 56 OFFCURVE",
"224 56 CURVE SMOOTH",
"152 56 OFFCURVE",
"104 97 OFFCURVE"
);
},
{
closed = 1;
nodes = (
"60 64 LINE",
"58 0 LINE",
"119 0 LINE",
"128 65 LINE",
"132 81 LINE",
"132 640 LINE",
"60 640 LINE"
);
}
);
};
hints = (
{
horizontal = 1;
origin = "{1, 3}";
type = Anchor;
},
{
horizontal = 1;
origin = "{1, 6}";
type = Anchor;
},
{
horizontal = 1;
origin = "{0, 25}";
target = "{0, 18}";
type = TTStem;
options = 4;
},
{
horizontal = 1;
origin = "{0, 5}";
target = "{0, 12}";
type = TTStem;
options = 4;
},
{
origin = "{1, 4}";
type = Anchor;
},
{
origin = "{1, 4}";
target = "{1, 3}";
type = TTStem;
options = 4;
},
{
origin = "{0, 15}";
type = Anchor;
},
{
origin = "{0, 15}";
target = "{0, 2}";
type = TTStem;
options = 4;
},
{
origin = "{1, 3}";
target = "{0, 12, 1, 3}";
type = Align;
options = 4;
},
{
origin = "{0, 25, 1, 1}";
target = "{0, 12, 1, 3}";
type = Align;
options = 4;
}
);
layerId = "95FB0C11-C828-4064-8966-34220AA4D426";
paths = (
{
closed = 1;
nodes = (
"347 -8 OFFCURVE",
"397 93 OFFCURVE",
"397 224 CURVE SMOOTH",
"397 355 OFFCURVE",
"347 456 OFFCURVE",
"232 456 CURVE SMOOTH",
"144 456 OFFCURVE",
"98 405 OFFCURVE",
"82 315 CURVE",
"112 302 LINE",
"128 370 OFFCURVE",
"169 392 OFFCURVE",
"224 392 CURVE SMOOTH",
"293 392 OFFCURVE",
"319 353 OFFCURVE",
"319 224 CURVE SMOOTH",
"319 97 OFFCURVE",
"293 56 OFFCURVE",
"224 56 CURVE SMOOTH",
"170 56 OFFCURVE",
"129 79 OFFCURVE",
"112 145 CURVE",
"83 132 LINE",
"99 44 OFFCURVE",
"145 -8 OFFCURVE",
"233 -8 CURVE SMOOTH"
);
},
{
closed = 1;
nodes = (
"119 0 LINE",
"128 65 LINE",
"132 81 LINE",
"132 640 LINE",
"60 640 LINE",
"60 64 LINE",
"58 0 LINE"
);
}
);
width = 448;
},
{
background = {
paths = (
{
closed = 1;
nodes = (
"289 224 CURVE SMOOTH",
"289 107 OFFCURVE",
"268 72 OFFCURVE",
"227 72 CURVE SMOOTH",
"190 72 OFFCURVE",
"158 104 OFFCURVE",
"137 156 CURVE",
"79 131 LINE",
"124 17 OFFCURVE",
"184 -8 OFFCURVE",
"244 -8 CURVE SMOOTH",
"336 -8 OFFCURVE",
"407 51 OFFCURVE",
"407 224 CURVE SMOOTH",
"407 397 OFFCURVE",
"334 456 OFFCURVE",
"251 456 CURVE SMOOTH",
"190 456 OFFCURVE",
"135 425 OFFCURVE",
"90 311 CURVE",
"137 292 LINE",
"158 344 OFFCURVE",
"190 374 OFFCURVE",
"227 374 CURVE SMOOTH",
"268 374 OFFCURVE",
"289 340 OFFCURVE"
);
},
{
closed = 1;
nodes = (
"50 65 LINE",
"48 0 LINE",
"136 0 LINE",
"152 92 LINE",
"162 92 LINE",
"162 640 LINE",
"50 640 LINE"
);
}
);
};
layerId = "92967D72-867E-4A8B-929F-F44D834DD4C9";
paths = (
{
closed = 1;
nodes = (
"336 -8 OFFCURVE",
"407 51 OFFCURVE",
"407 224 CURVE SMOOTH",
"407 397 OFFCURVE",
"334 456 OFFCURVE",
"251 456 CURVE SMOOTH",
"190 456 OFFCURVE",
"135 425 OFFCURVE",
"90 311 CURVE",
"137 292 LINE",
"158 344 OFFCURVE",
"190 374 OFFCURVE",
"227 374 CURVE SMOOTH",
"268 374 OFFCURVE",
"289 340 OFFCURVE",
"289 224 CURVE SMOOTH",
"289 107 OFFCURVE",
"268 72 OFFCURVE",
"227 72 CURVE SMOOTH",
"190 72 OFFCURVE",
"158 104 OFFCURVE",
"137 156 CURVE",
"79 131 LINE",
"124 17 OFFCURVE",
"184 -8 OFFCURVE",
"244 -8 CURVE SMOOTH"
);
},
{
closed = 1;
nodes = (
"136 0 LINE",
"152 92 LINE",
"162 92 LINE",
"162 640 LINE",
"50 640 LINE",
"50 65 LINE",
"48 0 LINE"
);
}
);
width = 448;
},
{
background = {
paths = (
{
closed = 1;
nodes = (
"354 -8 OFFCURVE",
"391 118 OFFCURVE",
"391 224 CURVE SMOOTH",
"391 330 OFFCURVE",
"355 456 OFFCURVE",
"221 456 CURVE SMOOTH",
"116 456 OFFCURVE",
"76 393 OFFCURVE",
"77 317 CURVE",
"97 308 LINE",
"110 386 OFFCURVE",
"156 403 OFFCURVE",
"222 403 CURVE SMOOTH",
"308 403 OFFCURVE",
"337 361 OFFCURVE",
"337 224 CURVE SMOOTH",
"337 91 OFFCURVE",
"308 46 OFFCURVE",
"222 46 CURVE SMOOTH",
"158 46 OFFCURVE",
"112 64 OFFCURVE",
"97 138 CURVE",
"85 133 LINE",
"84 60 OFFCURVE",
"122 -8 OFFCURVE",
"226 -8 CURVE SMOOTH"
);
}
);
};
layerId = "7DDCEF54-C770-4FAD-B154-EE8058BAA7E5";
paths = (
{
closed = 1;
nodes = (
"355 -8 OFFCURVE",
"391 118 OFFCURVE",
"391 224 CURVE SMOOTH",
"391 330 OFFCURVE",
"356 456 OFFCURVE",
"221 456 CURVE SMOOTH",
"163 456 OFFCURVE",
"126 429 OFFCURVE",
"86 390 CURVE",
"107 365 LINE",
"141 395 OFFCURVE",
"177 414 OFFCURVE",
"221 414 CURVE SMOOTH",
"303 414 OFFCURVE",
"337 347 OFFCURVE",
"337 224 CURVE SMOOTH",
"337 101 OFFCURVE",
"304 34 OFFCURVE",
"217 34 CURVE SMOOTH",
"175 34 OFFCURVE",
"140 53 OFFCURVE",
"107 83 CURVE",
"86 58 LINE",
"125 19 OFFCURVE",
"161 -8 OFFCURVE",
"221 -8 CURVE SMOOTH"
);
},
{
closed = 1;
nodes = (
"109 0 LINE",
"114 49 LINE",
"114 74 LINE",
"114 640 LINE",
"66 640 LINE",
"66 63 LINE",
"64 0 LINE"
);
}
);
width = 448;
}
);
unicode = 0062;
},
{
color = 3;
glyphname = c;
layers = (
{
anchors = (
{
name = bottom;
position = "{202, 0}";
},
{
name = topLC;
position = "{240, 448}";
}
);
background = {
paths = (
{
closed = 1;
nodes = (
"358 436 LINE",
"317 450 OFFCURVE",
"276 455 OFFCURVE",
"238 455 CURVE SMOOTH",
"94 455 OFFCURVE",
"50 352 OFFCURVE",
"50 224 CURVE SMOOTH",
"50 96 OFFCURVE",
"94 -7 OFFCURVE",
"238 -7 CURVE SMOOTH",
"276 -7 OFFCURVE",
"317 -2 OFFCURVE",
"358 12 CURVE",
"345 72 LINE",
"309 62 OFFCURVE",
"278 57 OFFCURVE",
"242 57 CURVE SMOOTH",
"155 57 OFFCURVE",
"126 99 OFFCURVE",
"126 224 CURVE SMOOTH",
"126 349 OFFCURVE",
"155 391 OFFCURVE",
"242 391 CURVE SMOOTH",
"278 391 OFFCURVE",
"309 386 OFFCURVE",
"345 376 CURVE"
);
}
);
};
hints = (
{
horizontal = 1;
origin = "{0, 3}";
target = "{0, 22}";
type = TTStem;
options = 4;
},
{
horizontal = 1;
origin = "{0, 9}";
target = "{0, 16}";
type = TTStem;
options = 4;
},
{
origin = "{0, 6}";
type = Anchor;
},
{
origin = "{0, 6}";
target = "{0, 19}";
type = TTStem;
options = 4;
},
{
origin = "{0, 0}";
type = Anchor;
},
{
origin = "{0, 0}";
target = "{0, 12}";
type = Align;
options = 4;
}
);
layerId = "95FB0C11-C828-4064-8966-34220AA4D426";
paths = (
{
closed = 1;
nodes = (
"358 436 LINE",
"317 450 OFFCURVE",
"276 455 OFFCURVE",
"238 455 CURVE SMOOTH",
"94 455 OFFCURVE",
"50 352 OFFCURVE",
"50 224 CURVE SMOOTH",
"50 96 OFFCURVE",
"94 -7 OFFCURVE",
"238 -7 CURVE SMOOTH",
"276 -7 OFFCURVE",
"317 -2 OFFCURVE",
"358 12 CURVE",
"345 72 LINE",
"309 62 OFFCURVE",
"278 57 OFFCURVE",
"242 57 CURVE SMOOTH",
"155 57 OFFCURVE",
"126 99 OFFCURVE",
"126 224 CURVE SMOOTH",
"126 349 OFFCURVE",
"155 391 OFFCURVE",
"242 391 CURVE SMOOTH",
"278 391 OFFCURVE",
"309 386 OFFCURVE",
"345 376 CURVE"
);
}
);
width = 448;
},
{
anchors = (
{
name = bottom;
position = "{202, 0}";
},
{
name = topLC;
position = "{240, 448}";
}
);
background = {
paths = (
{
closed = 1;
nodes = (
"378 431 LINE",
"334 449 OFFCURVE",
"290 455 OFFCURVE",
"249 455 CURVE SMOOTH",
"93 455 OFFCURVE",
"50 352 OFFCURVE",
"50 224 CURVE SMOOTH",
"50 96 OFFCURVE",
"93 -7 OFFCURVE",
"249 -7 CURVE SMOOTH",
"290 -7 OFFCURVE",
"334 -1 OFFCURVE",
"378 17 CURVE",
"361 91 LINE",
"332 83 OFFCURVE",
"301 77 OFFCURVE",
"271 77 CURVE SMOOTH",
"192 77 OFFCURVE",
"166 114 OFFCURVE",
"166 224 CURVE SMOOTH",
"166 334 OFFCURVE",
"192 371 OFFCURVE",
"271 371 CURVE SMOOTH",
"304 371 OFFCURVE",
"337 365 OFFCURVE",
"361 357 CURVE"
);
}
);
};
layerId = "92967D72-867E-4A8B-929F-F44D834DD4C9";
paths = (
{
closed = 1;
nodes = (
"378 431 LINE",
"334 449 OFFCURVE",
"290 455 OFFCURVE",
"249 455 CURVE SMOOTH",
"93 455 OFFCURVE",
"50 352 OFFCURVE",
"50 224 CURVE SMOOTH",
"50 96 OFFCURVE",
"93 -7 OFFCURVE",
"249 -7 CURVE SMOOTH",
"290 -7 OFFCURVE",
"334 -1 OFFCURVE",
"378 17 CURVE",
"361 91 LINE",
"332 83 OFFCURVE",
"301 77 OFFCURVE",
"271 77 CURVE SMOOTH",
"192 77 OFFCURVE",
"166 114 OFFCURVE",
"166 224 CURVE SMOOTH",
"166 334 OFFCURVE",
"192 371 OFFCURVE",
"271 371 CURVE SMOOTH",
"304 371 OFFCURVE",
"337 365 OFFCURVE",
"361 357 CURVE"
);
}
);
width = 448;
},
{
anchors = (
{
name = bottom;
position = "{202, 0}";
},
{
name = topLC;
position = "{240, 448}";
}
);
background = {
paths = (
{
closed = 1;
nodes = (
"346 439 LINE",
"307 451 OFFCURVE",
"268 455 OFFCURVE",
"231 455 CURVE SMOOTH",
"95 455 OFFCURVE",
"50 352 OFFCURVE",
"50 224 CURVE SMOOTH",
"50 96 OFFCURVE",
"95 -7 OFFCURVE",
"231 -7 CURVE SMOOTH",
"268 -7 OFFCURVE",
"307 -3 OFFCURVE",
"346 9 CURVE",
"335 61 LINE",
"295 49 OFFCURVE",
"264 45 OFFCURVE",
"225 45 CURVE SMOOTH",
"133 45 OFFCURVE",
"102 90 OFFCURVE",
"102 224 CURVE SMOOTH",
"102 358 OFFCURVE",
"133 403 OFFCURVE",
"225 403 CURVE SMOOTH",
"262 403 OFFCURVE",
"292 399 OFFCURVE",
"335 387 CURVE"
);
}
);
};
layerId = "7DDCEF54-C770-4FAD-B154-EE8058BAA7E5";
paths = (
{
closed = 1;
nodes = (
"349 437 LINE",
"313 449 OFFCURVE",
"268 455 OFFCURVE",
"229 455 CURVE SMOOTH",
"95 455 OFFCURVE",
"50 352 OFFCURVE",
"50 224 CURVE SMOOTH",
"50 96 OFFCURVE",
"95 -7 OFFCURVE",
"228 -7 CURVE SMOOTH",
"270 -7 OFFCURVE",
"310 1 OFFCURVE",
"349 13 CURVE",
"340 53 LINE",
"300 41 OFFCURVE",
"264 36 OFFCURVE",
"234 36 CURVE SMOOTH",
"140 36 OFFCURVE",
"102 99 OFFCURVE",
"102 224 CURVE SMOOTH",
"102 348 OFFCURVE",
"134 413 OFFCURVE",
"233 413 CURVE SMOOTH",
"264 413 OFFCURVE",
"297 409 OFFCURVE",
"340 397 CURVE"
);
}
);
width = 448;
}
);
unicode = 0063;
},
{
color = 3;
glyphname = d;
layers = (
{
background = {
paths = (
{
closed = 1;
nodes = (
"373 224 CURVE SMOOTH",
"373 371 OFFCURVE",
"330 456 OFFCURVE",
"216 456 CURVE SMOOTH",
"101 456 OFFCURVE",
"51 355 OFFCURVE",
"51 224 CURVE SMOOTH",
"51 93 OFFCURVE",
"101 -8 OFFCURVE",
"215 -8 CURVE SMOOTH",
"330 -8 OFFCURVE",
"373 82 OFFCURVE"
);
},
{
closed = 1;
nodes = (
"344 224 CURVE SMOOTH",
"344 97 OFFCURVE",
"296 56 OFFCURVE",
"224 56 CURVE SMOOTH",
"155 56 OFFCURVE",
"129 97 OFFCURVE",
"129 224 CURVE SMOOTH",
"129 353 OFFCURVE",
"155 392 OFFCURVE",
"224 392 CURVE SMOOTH",
"296 392 OFFCURVE",
"344 353 OFFCURVE"
);
},
{
closed = 1;
nodes = (
"388 640 LINE",
"316 640 LINE",
"316 81 LINE",
"320 65 LINE",
"329 0 LINE",
"390 0 LINE",
"388 64 LINE"
);
}
);
};
hints = (
{
horizontal = 1;
origin = "{0, 19}";
target = "{0, 12}";
type = TTStem;
options = 4;
},
{
horizontal = 1;
origin = "{0, 25}";
target = "{0, 6}";
type = TTStem;
options = 4;
},
{
horizontal = 1;
origin = "{1, 0}";
type = Anchor;
},
{
horizontal = 1;
origin = "{1, 2}";
type = Anchor;
},
{
origin = "{0, 22}";
type = Anchor;
},
{
origin = "{0, 22}";
target = "{0, 9}";
type = TTStem;
options = 4;
},
{
origin = "{1, 2}";
type = Anchor;
},
{
origin = "{1, 2}";
target = "{1, 3}";
type = TTStem;
options = 4;
},
{
origin = "{1, 3}";
target = "{0, 15, 1, 4}";
type = Align;
options = 4;
},
{
origin = "{0, 15, 1, 4}";
target = "{0, 2, 1, 6}";
type = Align;
options = 4;
}
);
layerId = "95FB0C11-C828-4064-8966-34220AA4D426";
paths = (
{
closed = 1;
nodes = (
"303 -8 OFFCURVE",
"349 44 OFFCURVE",
"365 132 CURVE",
"336 145 LINE",
"319 79 OFFCURVE",
"278 56 OFFCURVE",
"224 56 CURVE SMOOTH",
"155 56 OFFCURVE",
"129 97 OFFCURVE",
"129 224 CURVE SMOOTH",
"129 353 OFFCURVE",
"155 392 OFFCURVE",
"224 392 CURVE SMOOTH",
"279 392 OFFCURVE",
"320 370 OFFCURVE",
"336 302 CURVE",
"366 315 LINE",
"350 405 OFFCURVE",
"304 456 OFFCURVE",
"216 456 CURVE SMOOTH",
"101 456 OFFCURVE",
"51 355 OFFCURVE",
"51 224 CURVE SMOOTH",
"51 93 OFFCURVE",
"101 -8 OFFCURVE",
"215 -8 CURVE SMOOTH"
);
},
{
closed = 1;
nodes = (
"390 0 LINE",
"388 64 LINE",
"388 640 LINE",
"316 640 LINE",
"316 81 LINE",
"320 65 LINE",
"329 0 LINE"
);
}
);
width = 448;
},
{
background = {
paths = (
{
closed = 1;
nodes = (
"159 224 CURVE",
"159 340 OFFCURVE",
"180 374 OFFCURVE",
"221 374 CURVE SMOOTH",
"258 374 OFFCURVE",
"290 344 OFFCURVE",
"311 292 CURVE",
"358 311 LINE",
"313 425 OFFCURVE",
"258 456 OFFCURVE",
"197 456 CURVE SMOOTH",
"114 456 OFFCURVE",
"41 397 OFFCURVE",
"41 224 CURVE SMOOTH",
"41 51 OFFCURVE",
"112 -8 OFFCURVE",
"204 -8 CURVE SMOOTH",
"264 -8 OFFCURVE",
"324 17 OFFCURVE",
"369 131 CURVE",
"311 156 LINE",
"290 104 OFFCURVE",
"258 72 OFFCURVE",
"221 72 CURVE SMOOTH",
"180 72 OFFCURVE",
"159 107 OFFCURVE"
);
},
{
closed = 1;
nodes = (
"398 640 LINE",
"286 640 LINE",
"286 92 LINE",
"296 92 LINE",
"312 0 LINE",
"400 0 LINE",
"398 65 LINE"
);
}
);
};
layerId = "92967D72-867E-4A8B-929F-F44D834DD4C9";
paths = (
{
closed = 1;
nodes = (
"264 -8 OFFCURVE",
"324 17 OFFCURVE",
"369 131 CURVE",
"311 156 LINE",
"290 104 OFFCURVE",
"258 72 OFFCURVE",
"221 72 CURVE SMOOTH",
"180 72 OFFCURVE",
"159 107 OFFCURVE",
"159 224 CURVE",
"159 340 OFFCURVE",
"180 374 OFFCURVE",
"221 374 CURVE SMOOTH",
"258 374 OFFCURVE",
"290 344 OFFCURVE",
"311 292 CURVE",
"358 311 LINE",
"313 425 OFFCURVE",
"258 456 OFFCURVE",
"197 456 CURVE SMOOTH",
"114 456 OFFCURVE",
"41 397 OFFCURVE",
"41 224 CURVE SMOOTH",
"41 51 OFFCURVE",
"112 -8 OFFCURVE",
"204 -8 CURVE SMOOTH"
);
},
{
closed = 1;
nodes = (
"400 0 LINE",
"398 65 LINE",
"398 640 LINE",
"286 640 LINE",
"286 92 LINE",
"296 92 LINE",
"312 0 LINE"
);
}
);
width = 448;
},
{
background = {
paths = (
{
closed = 1;
nodes = (
"326 -8 OFFCURVE",
"364 60 OFFCURVE",
"363 133 CURVE",
"351 138 LINE",
"336 64 OFFCURVE",
"290 46 OFFCURVE",
"226 46 CURVE SMOOTH",
"140 46 OFFCURVE",
"111 91 OFFCURVE",
"111 224 CURVE SMOOTH",
"111 361 OFFCURVE",
"140 403 OFFCURVE",
"226 403 CURVE SMOOTH",
"292 403 OFFCURVE",
"338 386 OFFCURVE",
"351 308 CURVE",
"371 317 LINE",
"372 393 OFFCURVE",
"332 456 OFFCURVE",
"227 456 CURVE SMOOTH",
"93 456 OFFCURVE",
"57 330 OFFCURVE",
"57 224 CURVE SMOOTH",
"57 118 OFFCURVE",
"94 -8 OFFCURVE",
"222 -8 CURVE SMOOTH"
);
},
{
closed = 1;
nodes = (
"384 0 LINE",
"382 63 LINE",
"382 640 LINE",
"334 640 LINE",
"334 74 LINE",
"334 49 LINE",
"339 0 LINE"
);
}
);
};
layerId = "7DDCEF54-C770-4FAD-B154-EE8058BAA7E5";
paths = (
{
closed = 1;
nodes = (
"288 -8 OFFCURVE",
"324 19 OFFCURVE",
"363 58 CURVE",
"342 83 LINE",
"309 53 OFFCURVE",
"274 34 OFFCURVE",
"232 34 CURVE SMOOTH",
"145 34 OFFCURVE",
"112 101 OFFCURVE",
"112 224 CURVE SMOOTH",
"112 347 OFFCURVE",
"145 414 OFFCURVE",
"232 414 CURVE SMOOTH",
"274 414 OFFCURVE",
"309 395 OFFCURVE",
"342 365 CURVE",
"363 390 LINE",
"324 429 OFFCURVE",
"288 456 OFFCURVE",
"232 456 CURVE SMOOTH",
"92 456 OFFCURVE",
"58 330 OFFCURVE",
"58 224 CURVE SMOOTH",
"58 118 OFFCURVE",
"92 -8 OFFCURVE",
"232 -8 CURVE SMOOTH"
);
},
{
closed = 1;
nodes = (
"384 0 LINE",
"382 63 LINE",
"382 640 LINE",
"334 640 LINE",
"334 74 LINE",
"334 49 LINE",
"339 0 LINE"
);
}
);
width = 448;
}
);
unicode = 0064;
},
{
color = 1;
glyphname = eth;
layers = (
{
background = {
paths = (
{
closed = 1;
nodes = (
"132 596 LINE",
"286 491 OFFCURVE",
"327 389 OFFCURVE",
"327 247 CURVE SMOOTH",
"327 135 OFFCURVE",
"307 56 OFFCURVE",
"224 56 CURVE SMOOTH",
"145 56 OFFCURVE",
"121 121 OFFCURVE",
"121 203 CURVE SMOOTH",
"121 280 OFFCURVE",
"140 350 OFFCURVE",
"223 350 CURVE SMOOTH",
"263 350 OFFCURVE",
"305 334 OFFCURVE",
"335 311 CURVE",
"362 351 LINE",
"320 391 OFFCURVE",
"269 414 OFFCURVE",
"215 414 CURVE SMOOTH",
"122 414 OFFCURVE",
"47 338 OFFCURVE",
"47 203 CURVE SMOOTH",
"47 74 OFFCURVE",
"115 -8 OFFCURVE",
"221 -8 CURVE SMOOTH",
"336 -8 OFFCURVE",
"400 80 OFFCURVE",
"400 252 CURVE SMOOTH",
"400 412 OFFCURVE",
"330 542 OFFCURVE",
"168 648 CURVE"
);
},
{
closed = 1;
nodes = (
"154 461 LINE",
"341 591 LINE",
"310 635 LINE",
"123 505 LINE"
);
}
);
};
hints = (
{
horizontal = 1;
origin = "{0, 25}";
target = "{0, 6}";
type = TTStem;
options = 4;
},
{
horizontal = 1;
origin = "{0, 31}";
type = Anchor;
},
{
horizontal = 1;
origin = "{0, 19}";
type = Anchor;
},
{
horizontal = 1;
origin = "{0, 19}";
target = "{0, 12}";
type = TTStem;
options = 4;
},
{
origin = "{0, 22}";
type = Anchor;
},
{
origin = "{0, 22}";
target = "{0, 9}";
type = TTStem;
options = 4;
},
{
origin = "{0, 28}";
type = Anchor;
},
{
origin = "{0, 28}";
target = "{0, 3}";
type = TTStem;
options = 4;
}
);
layerId = "95FB0C11-C828-4064-8966-34220AA4D426";
paths = (
{
closed = 1;
nodes = (
"132 596 LINE",
"286 491 OFFCURVE",
"327 389 OFFCURVE",
"327 247 CURVE SMOOTH",
"327 135 OFFCURVE",
"307 56 OFFCURVE",
"224 56 CURVE SMOOTH",
"145 56 OFFCURVE",
"121 121 OFFCURVE",
"121 203 CURVE SMOOTH",
"121 280 OFFCURVE",
"140 350 OFFCURVE",
"223 350 CURVE SMOOTH",
"263 350 OFFCURVE",
"305 334 OFFCURVE",
"335 311 CURVE",
"362 351 LINE",
"320 391 OFFCURVE",
"269 414 OFFCURVE",
"215 414 CURVE SMOOTH",
"122 414 OFFCURVE",
"47 338 OFFCURVE",
"47 203 CURVE SMOOTH",
"47 74 OFFCURVE",
"115 -8 OFFCURVE",
"221 -8 CURVE SMOOTH",
"336 -8 OFFCURVE",
"400 80 OFFCURVE",
"400 252 CURVE SMOOTH",
"400 412 OFFCURVE",
"330 542 OFFCURVE",
"168 648 CURVE"
);
},
{
closed = 1;
nodes = (
"154 461 LINE",
"341 591 LINE",
"310 635 LINE",
"123 505 LINE"
);
}
);
width = 448;
},
{
background = {
paths = (
{
closed = 1;
nodes = (
"132 596 LINE",
"286 491 OFFCURVE",
"327 389 OFFCURVE",
"327 247 CURVE SMOOTH",
"327 135 OFFCURVE",
"307 56 OFFCURVE",
"224 56 CURVE SMOOTH",
"145 56 OFFCURVE",
"121 121 OFFCURVE",
"121 203 CURVE SMOOTH",
"121 280 OFFCURVE",
"140 350 OFFCURVE",
"223 350 CURVE SMOOTH",
"263 350 OFFCURVE",
"305 334 OFFCURVE",
"335 311 CURVE",
"362 351 LINE",
"320 391 OFFCURVE",
"269 414 OFFCURVE",
"215 414 CURVE SMOOTH",
"122 414 OFFCURVE",
"47 338 OFFCURVE",
"47 203 CURVE SMOOTH",
"47 74 OFFCURVE",
"115 -8 OFFCURVE",
"221 -8 CURVE SMOOTH",
"336 -8 OFFCURVE",
"400 80 OFFCURVE",
"400 252 CURVE SMOOTH",
"400 412 OFFCURVE",
"330 542 OFFCURVE",
"168 648 CURVE"
);
},
{
closed = 1;
nodes = (
"154 461 LINE",
"341 591 LINE",
"310 635 LINE",
"123 505 LINE"
);
}
);
};
color = 1;
layerId = "92967D72-867E-4A8B-929F-F44D834DD4C9";
paths = (
{
closed = 1;
nodes = (
"132 596 LINE",
"286 491 OFFCURVE",
"327 389 OFFCURVE",
"327 247 CURVE SMOOTH",
"327 135 OFFCURVE",
"307 56 OFFCURVE",
"224 56 CURVE SMOOTH",
"145 56 OFFCURVE",
"121 121 OFFCURVE",
"121 203 CURVE SMOOTH",
"121 280 OFFCURVE",
"140 350 OFFCURVE",
"223 350 CURVE SMOOTH",
"263 350 OFFCURVE",
"305 334 OFFCURVE",
"335 311 CURVE",
"362 351 LINE",
"320 391 OFFCURVE",
"269 414 OFFCURVE",
"215 414 CURVE SMOOTH",
"122 414 OFFCURVE",
"47 338 OFFCURVE",
"47 203 CURVE SMOOTH",
"47 74 OFFCURVE",
"115 -8 OFFCURVE",
"221 -8 CURVE SMOOTH",
"336 -8 OFFCURVE",
"400 80 OFFCURVE",
"400 252 CURVE SMOOTH",
"400 412 OFFCURVE",
"330 542 OFFCURVE",
"168 648 CURVE"
);
},
{
closed = 1;
nodes = (
"154 461 LINE",
"341 591 LINE",
"310 635 LINE",
"123 505 LINE"
);
}
);
width = 448;
},
{
layerId = "7DDCEF54-C770-4FAD-B154-EE8058BAA7E5";
paths = (
{
closed = 1;
nodes = (
"132 596 LINE",
"286 491 OFFCURVE",
"327 389 OFFCURVE",
"327 247 CURVE SMOOTH",
"327 135 OFFCURVE",
"307 56 OFFCURVE",
"224 56 CURVE SMOOTH",
"145 56 OFFCURVE",
"121 121 OFFCURVE",
"121 203 CURVE SMOOTH",
"121 280 OFFCURVE",
"140 350 OFFCURVE",
"223 350 CURVE SMOOTH",
"263 350 OFFCURVE",
"305 334 OFFCURVE",
"335 311 CURVE",
"362 351 LINE",
"320 391 OFFCURVE",
"269 414 OFFCURVE",
"215 414 CURVE SMOOTH",
"122 414 OFFCURVE",
"47 338 OFFCURVE",
"47 203 CURVE SMOOTH",
"47 74 OFFCURVE",
"115 -8 OFFCURVE",
"221 -8 CURVE SMOOTH",
"336 -8 OFFCURVE",
"400 80 OFFCURVE",
"400 252 CURVE SMOOTH",
"400 412 OFFCURVE",
"330 542 OFFCURVE",
"168 648 CURVE"
);
},
{
closed = 1;
nodes = (
"154 461 LINE",
"341 591 LINE",
"310 635 LINE",
"123 505 LINE"
);
}
);
width = 448;
}
);
unicode = 00F0;
},
{
color = 3;
glyphname = e;
layers = (
{
anchors = (
{
name = bottomAttach;
position = "{306, 0}";
},
{
name = topLC;
position = "{224, 448}";
}
);
background = {
paths = (
{
closed = 1;
nodes = (
"50 93 OFFCURVE",
"94 -13 OFFCURVE",
"238 -13 CURVE SMOOTH",
"276 -13 OFFCURVE",
"317 -8 OFFCURVE",
"358 6 CURVE",
"345 66 LINE",
"309 56 OFFCURVE",
"278 51 OFFCURVE",
"242 51 CURVE SMOOTH",
"155 51 OFFCURVE",
"126 95 OFFCURVE",
"126 224 CURVE SMOOTH",
"126 351 OFFCURVE",
"155 397 OFFCURVE",
"224 397 CURVE SMOOTH",
"293 397 OFFCURVE",
"322 351 OFFCURVE",
"322 224 CURVE",
"360 251 LINE",
"92 251 LINE",
"92 187 LINE",
"398 187 LINE",
"398 224 LINE SMOOTH",
"398 355 OFFCURVE",
"353 461 OFFCURVE",
"224 461 CURVE SMOOTH",
"95 461 OFFCURVE",
"50 355 OFFCURVE",
"50 224 CURVE SMOOTH"
);
}
);
};
hints = (
{
horizontal = 1;
origin = "{0, 2}";
target = "{0, 9}";
type = TTStem;
options = 4;
},
{
horizontal = 1;
origin = "{0, 25}";
target = "{0, 15}";
type = TTStem;
options = 4;
},
{
horizontal = 1;
origin = "{0, 2}";
target = "{0, 25}";
other1 = "{0, 12, 0, 22}";
type = Interpolate;
},
{
horizontal = 1;
origin = "{0, 12, 0, 22}";
target = "{0, 15, 0, 20}";
type = TTStem;
options = 4;
},
{
origin = "{0, 28}";
type = Anchor;
},
{
origin = "{0, 22}";
type = Anchor;
},
{
origin = "{0, 22}";
target = "{0, 18, 0, 20}";
type = TTStem;
options = 4;
},
{
origin = "{0, 22}";
target = "{0, 5}";
type = Align;
options = 4;
},
{
origin = "{0, 28}";
target = "{0, 12, 0, 22}";
type = TTStem;
options = 4;
},
{
origin = "{0, 12, 0, 22}";
target = "{0, 15, 0, 20}";
type = Align;
options = 4;
}
);
layerId = "95FB0C11-C828-4064-8966-34220AA4D426";
paths = (
{
closed = 1;
nodes = (
"50 93 OFFCURVE",
"95 -13 OFFCURVE",
"242 -13 CURVE SMOOTH",
"285 -13 OFFCURVE",
"330 -4 OFFCURVE",
"375 16 CURVE",
"361 74 LINE",
"323 61 OFFCURVE",
"286 51 OFFCURVE",
"246 51 CURVE SMOOTH",
"156 51 OFFCURVE",
"126 95 OFFCURVE",
"126 224 CURVE SMOOTH",
"126 351 OFFCURVE",
"155 397 OFFCURVE",
"224 397 CURVE SMOOTH",
"294 397 OFFCURVE",
"326 343 OFFCURVE",
"320 224 CURVE",
"360 263 LINE",
"92 263 LINE",
"92 201 LINE",
"395 201 LINE",
"407 360 OFFCURVE",
"346 461 OFFCURVE",
"224 461 CURVE SMOOTH",
"95 461 OFFCURVE",
"50 355 OFFCURVE",
"50 224 CURVE SMOOTH"
);
}
);
width = 448;
},
{
anchors = (
{
name = bottomAttach;
position = "{313, 0}";
},
{
name = topLC;
position = "{224, 448}";
}
);
background = {
paths = (
{
closed = 1;
nodes = (
"40 93 OFFCURVE",
"87 -13 OFFCURVE",
"238 -13 CURVE SMOOTH",
"289 -13 OFFCURVE",
"337 -4 OFFCURVE",
"381 13 CURVE",
"366 83 LINE",
"330 74 OFFCURVE",
"293 67 OFFCURVE",
"262 67 CURVE SMOOTH",
"183 67 OFFCURVE",
"156 107 OFFCURVE",
"156 224 CURVE SMOOTH",
"156 339 OFFCURVE",
"176 381 OFFCURVE",
"224 381 CURVE SMOOTH",
"272 381 OFFCURVE",
"292 339 OFFCURVE",
"292 224 CURVE",
"330 266 LINE",
"102 266 LINE",
"102 188 LINE",
"406 188 LINE",
"407 204 OFFCURVE",
"408 221 OFFCURVE",
"408 237 CURVE SMOOTH",
"408 351 OFFCURVE",
"361 461 OFFCURVE",
"224 461 CURVE SMOOTH",
"87 461 OFFCURVE",
"40 355 OFFCURVE",
"40 224 CURVE SMOOTH"
);
}
);
};
layerId = "92967D72-867E-4A8B-929F-F44D834DD4C9";
paths = (
{
closed = 1;
nodes = (
"40 93 OFFCURVE",
"87 -13 OFFCURVE",
"242 -13 CURVE SMOOTH",
"293 -13 OFFCURVE",
"343 1 OFFCURVE",
"389 20 CURVE",
"371 92 LINE",
"333 79 OFFCURVE",
"291 67 OFFCURVE",
"258 67 CURVE SMOOTH",
"183 67 OFFCURVE",
"156 107 OFFCURVE",
"156 224 CURVE SMOOTH",
"156 339 OFFCURVE",
"176 381 OFFCURVE",
"224 381 CURVE SMOOTH",
"272 381 OFFCURVE",
"298 331 OFFCURVE",
"290 224 CURVE",
"330 266 LINE",
"102 266 LINE",
"102 188 LINE",
"403 188 LINE",
"423 341 OFFCURVE",
"364 461 OFFCURVE",
"224 461 CURVE SMOOTH",
"87 461 OFFCURVE",
"40 355 OFFCURVE",
"40 224 CURVE SMOOTH"
);
}
);
width = 448;
},
{
anchors = (
{
name = bottomAttach;
position = "{302, 0}";
},
{
name = topLC;
position = "{224, 448}";
}
);
background = {
paths = (
{
closed = 1;
nodes = (
"56 93 OFFCURVE",
"100 -13 OFFCURVE",
"242 -13 CURVE SMOOTH",
"280 -13 OFFCURVE",
"322 -7 OFFCURVE",
"367 14 CURVE",
"355 53 LINE",
"317 40 OFFCURVE",
"283 31 OFFCURVE",
"239 31 CURVE SMOOTH",
"140 31 OFFCURVE",
"108 88 OFFCURVE",
"108 224 CURVE SMOOTH",
"108 358 OFFCURVE",
"142 417 OFFCURVE",
"224 417 CURVE SMOOTH",
"307 417 OFFCURVE",
"343 350 OFFCURVE",
"338 224 CURVE",
"378 256 LINE",
"86 256 LINE",
"86 214 LINE",
"390 214 LINE",
"397 373 OFFCURVE",
"335 461 OFFCURVE",
"224 461 CURVE SMOOTH",
"100 461 OFFCURVE",
"56 355 OFFCURVE",
"56 224 CURVE SMOOTH"
);
}
);
};
layerId = "7DDCEF54-C770-4FAD-B154-EE8058BAA7E5";
paths = (
{
closed = 1;
nodes = (
"56 93 OFFCURVE",
"100 -13 OFFCURVE",
"242 -13 CURVE SMOOTH",
"289 -13 OFFCURVE",
"333 -5 OFFCURVE",
"372 10 CURVE",
"363 47 LINE",
"325 36 OFFCURVE",
"286 29 OFFCURVE",
"251 29 CURVE SMOOTH",
"140 29 OFFCURVE",
"108 103 OFFCURVE",
"108 224 CURVE SMOOTH",
"108 356 OFFCURVE",
"142 417 OFFCURVE",
"224 417 CURVE SMOOTH",
"307 417 OFFCURVE",
"344 346 OFFCURVE",
"338 224 CURVE",
"378 257 LINE",
"86 257 LINE",
"86 213 LINE",
"390 213 LINE",
"397 372 OFFCURVE",
"335 461 OFFCURVE",
"224 461 CURVE SMOOTH",
"100 461 OFFCURVE",
"56 355 OFFCURVE",
"56 224 CURVE SMOOTH"
);
}
);
width = 448;
}
);
unicode = 0065;
},
{
color = 3;
glyphname = f;
layers = (
{
background = {
paths = (
{
closed = 1;
nodes = (
"124 0 LINE",
"196 0 LINE",
"196 384 LINE",
"340 384 LINE",
"340 448 LINE",
"196 448 LINE",
"196 509 LINE SMOOTH",
"196 549 OFFCURVE",
"211 584 OFFCURVE",
"264 584 CURVE SMOOTH",
"294 584 OFFCURVE",
"324 580 OFFCURVE",
"357 575 CURVE",
"368 638 LINE",
"330 645 OFFCURVE",
"294 648 OFFCURVE",
"260 648 CURVE SMOOTH",
"182 648 OFFCURVE",
"124 605 OFFCURVE",
"124 504 CURVE SMOOTH",
"124 448 LINE",
"49 448 LINE",
"49 386 LINE",
"124 383 LINE"
);
}
);
};
hints = (
{
horizontal = 1;
origin = "{0, 16}";
target = "{0, 9}";
type = TTStem;
options = 4;
},
{
horizontal = 1;
origin = "{0, 5}";
target = "{0, 2}";
type = TTStem;
options = 4;
},
{
horizontal = 1;
origin = "{0, 1}";
type = Anchor;
},
{
horizontal = 1;
origin = "{0, 5}";
target = "{0, 20}";
type = Align;
options = 4;
},
{
horizontal = 1;
origin = "{0, 2}";
target = "{0, 23}";
type = Align;
options = 4;
},
{
origin = "{0, 2}";
type = Anchor;
},
{
origin = "{0, 2}";
target = "{0, 23}";
type = TTStem;
options = 4;
},
{
origin = "{0, 2}";
target = "{0, 5}";
type = Align;
options = 4;
},
{
origin = "{0, 23}";
target = "{0, 20}";
type = Align;
options = 4;
}
);
layerId = "95FB0C11-C828-4064-8966-34220AA4D426";
paths = (
{
closed = 1;
nodes = (
"134 0 LINE",
"206 0 LINE",
"206 384 LINE",
"350 384 LINE",
"350 448 LINE",
"206 448 LINE",
"206 509 LINE SMOOTH",
"206 549 OFFCURVE",
"221 584 OFFCURVE",
"274 584 CURVE SMOOTH",
"304 584 OFFCURVE",
"334 580 OFFCURVE",
"367 575 CURVE",
"378 638 LINE",
"340 645 OFFCURVE",
"304 648 OFFCURVE",
"270 648 CURVE SMOOTH",
"192 648 OFFCURVE",
"134 605 OFFCURVE",
"134 504 CURVE SMOOTH",
"134 448 LINE",
"59 448 LINE",
"59 386 LINE",
"134 383 LINE"
);
}
);
width = 448;
},
{
background = {
paths = (
{
closed = 1;
nodes = (
"124 0 LINE",
"236 0 LINE",
"236 364 LINE",
"360 364 LINE",
"360 448 LINE",
"236 448 LINE",
"236 506 LINE SMOOTH",
"236 540 OFFCURVE",
"251 568 OFFCURVE",
"306 568 CURVE SMOOTH",
"333 568 OFFCURVE",
"361 565 OFFCURVE",
"385 561 CURVE",
"397 633 LINE",
"365 641 OFFCURVE",
"313 648 OFFCURVE",
"278 648 CURVE SMOOTH",
"187 648 OFFCURVE",
"124 605 OFFCURVE",
"124 504 CURVE SMOOTH",
"124 448 LINE",
"49 448 LINE",
"49 366 LINE",
"124 363 LINE"
);
}
);
};
layerId = "92967D72-867E-4A8B-929F-F44D834DD4C9";
paths = (
{
closed = 1;
nodes = (
"134 0 LINE",
"246 0 LINE",
"246 364 LINE",
"370 364 LINE",
"370 448 LINE",
"246 448 LINE",
"246 506 LINE SMOOTH",
"246 540 OFFCURVE",
"261 568 OFFCURVE",
"316 568 CURVE SMOOTH",
"343 568 OFFCURVE",
"371 565 OFFCURVE",
"395 561 CURVE",
"407 633 LINE",
"375 641 OFFCURVE",
"323 648 OFFCURVE",
"288 648 CURVE SMOOTH",
"197 648 OFFCURVE",
"134 605 OFFCURVE",
"134 504 CURVE SMOOTH",
"134 448 LINE",
"59 448 LINE",
"59 366 LINE",
"134 363 LINE"
);
}
);
width = 448;
},
{
background = {
paths = (
{
closed = 1;
nodes = (
"172 -192 LINE",
"172 -132 OFFCURVE",
"172 -72 OFFCURVE",
"172 -12 CURVE",
"172 511 LINE SMOOTH",
"172 559 OFFCURVE",
"192 604 OFFCURVE",
"258 604 CURVE SMOOTH",
"285 604 OFFCURVE",
"319 600 OFFCURVE",
"350 593 CURVE",
"359 635 LINE",
"328 642 OFFCURVE",
"293 648 OFFCURVE",
"254 648 CURVE SMOOTH",
"179 648 OFFCURVE",
"124 605 OFFCURVE",
"124 504 CURVE SMOOTH",
"124 -12.004 LINE",
"124 -72.002 OFFCURVE",
"124 -132.001 OFFCURVE",
"124 -192 CURVE"
);
}
);
};
layerId = "7DDCEF54-C770-4FAD-B154-EE8058BAA7E5";
paths = (
{
closed = 1;
nodes = (
"134 0 LINE",
"182 0 LINE",
"182 406 LINE",
"338 406 LINE",
"338 448 LINE",
"182 448 LINE",
"182 511 LINE SMOOTH",
"182 559 OFFCURVE",
"202 604 OFFCURVE",
"268 604 CURVE SMOOTH",
"295 604 OFFCURVE",
"329 600 OFFCURVE",
"360 593 CURVE",
"369 635 LINE",
"338 642 OFFCURVE",
"303 648 OFFCURVE",
"259 648 CURVE SMOOTH",
"189 648 OFFCURVE",
"134 605 OFFCURVE",
"134 504 CURVE SMOOTH",
"134 448 LINE",
"59 448 LINE",
"59 408 LINE",
"134 405 LINE"
);
}
);
width = 448;
}
);
unicode = 0066;
},
{
color = 3;
glyphname = g;
layers = (
{
background = {
paths = (
{
closed = 1;
nodes = (
"387 384 LINE",
"389 448 LINE",
"329 448 LINE",
"320 383 LINE",
"317 367 LINE",
"317 -49 LINE SMOOTH",
"317 -105 OFFCURVE",
"298 -132 OFFCURVE",
"222 -132 CURVE SMOOTH",
"189 -132 OFFCURVE",
"151 -131 OFFCURVE",
"112 -123 CURVE",
"102 -181 LINE",
"142 -191 OFFCURVE",
"183 -196 OFFCURVE",
"223 -196 CURVE SMOOTH",
"319 -196 OFFCURVE",
"387 -154 OFFCURVE",
"387 -36 CURVE SMOOTH"
);
},
{
closed = 1;
nodes = (
"371 224 CURVE SMOOTH",
"371 371 OFFCURVE",
"328 456 OFFCURVE",
"214 456 CURVE SMOOTH",
"99 456 OFFCURVE",
"49 355 OFFCURVE",
"49 224 CURVE SMOOTH",
"49 93 OFFCURVE",
"99 -8 OFFCURVE",
"213 -8 CURVE SMOOTH",
"328 -8 OFFCURVE",
"371 82 OFFCURVE"
);
},
{
closed = 1;
nodes = (
"342 224 CURVE SMOOTH",
"342 97 OFFCURVE",
"294 56 OFFCURVE",
"222 56 CURVE SMOOTH",
"153 56 OFFCURVE",
"127 97 OFFCURVE",
"127 224 CURVE SMOOTH",
"127 353 OFFCURVE",
"153 392 OFFCURVE",
"222 392 CURVE SMOOTH",
"294 392 OFFCURVE",
"342 353 OFFCURVE"
);
}
);
};
hints = (
{
horizontal = 1;
origin = "{0, 4}";
type = Anchor;
},
{
horizontal = 1;
origin = "{1, 25}";
target = "{1, 6}";
type = TTStem;
options = 4;
},
{
horizontal = 1;
origin = "{1, 19}";
target = "{1, 12}";
type = TTStem;
options = 4;
},
{
horizontal = 1;
origin = "{0, 18}";
target = "{0, 11}";
type = TTStem;
options = 4;
},
{
origin = "{1, 22}";
type = Anchor;
},
{
origin = "{1, 22}";
target = "{1, 9}";
type = TTStem;
options = 4;
},
{
origin = "{0, 3}";
type = Anchor;
},
{
origin = "{0, 3}";
target = "{0, 8, 1, 15}";
type = TTStem;
options = 4;
},
{
origin = "{0, 8, 1, 15}";
target = "{0, 6, 1, 19}";
type = Align;
options = 4;
},
{
origin = "{0, 8, 1, 15}";
target = "{0, 8, 1, 2}";
type = Align;
options = 4;
},
{
origin = "{1, 22}";
target = "{0, 15}";
type = Align;
options = 4;
}
);
layerId = "95FB0C11-C828-4064-8966-34220AA4D426";
paths = (
{
closed = 1;
nodes = (
"319 -196 OFFCURVE",
"388 -154 OFFCURVE",
"388 -36 CURVE SMOOTH",
"388 384 LINE",
"390 448 LINE",
"329 448 LINE",
"320 383 LINE",
"316 367 LINE",
"316 -49 LINE SMOOTH",
"316 -105 OFFCURVE",
"298 -132 OFFCURVE",
"222 -132 CURVE SMOOTH",
"189 -132 OFFCURVE",
"151 -131 OFFCURVE",
"112 -123 CURVE",
"102 -181 LINE",
"142 -191 OFFCURVE",
"183 -196 OFFCURVE",
"223 -196 CURVE SMOOTH"
);
},
{
closed = 1;
nodes = (
"303 -8 OFFCURVE",
"349 44 OFFCURVE",
"365 132 CURVE",
"336 145 LINE",
"319 79 OFFCURVE",
"278 56 OFFCURVE",
"224 56 CURVE SMOOTH",
"155 56 OFFCURVE",
"129 97 OFFCURVE",
"129 224 CURVE SMOOTH",
"129 353 OFFCURVE",
"155 392 OFFCURVE",
"224 392 CURVE SMOOTH",
"279 392 OFFCURVE",
"320 370 OFFCURVE",
"336 302 CURVE",
"366 315 LINE",
"350 405 OFFCURVE",
"304 456 OFFCURVE",
"216 456 CURVE SMOOTH",
"101 456 OFFCURVE",
"51 355 OFFCURVE",
"51 224 CURVE SMOOTH",
"51 93 OFFCURVE",
"101 -8 OFFCURVE",
"215 -8 CURVE SMOOTH"
);
}
);
width = 448;
},
{
background = {
paths = (
{
closed = 1;
nodes = (
"397 384 LINE",
"399 448 LINE",
"311 448 LINE",
"295 356 LINE",
"285 356 LINE",
"285 -49 LINE SMOOTH",
"285 -94 OFFCURVE",
"269 -116 OFFCURVE",
"199 -116 CURVE SMOOTH",
"171 -116 OFFCURVE",
"128 -111 OFFCURVE",
"89 -105 CURVE",
"78 -179 LINE",
"123 -189 OFFCURVE",
"179 -196 OFFCURVE",
"219 -196 CURVE SMOOTH",
"324 -196 OFFCURVE",
"397 -154 OFFCURVE",
"397 -36 CURVE SMOOTH"
);
},
{
closed = 1;
nodes = (
"157 224 CURVE SMOOTH",
"157 341 OFFCURVE",
"178 376 OFFCURVE",
"219 376 CURVE SMOOTH",
"256 376 OFFCURVE",
"288 344 OFFCURVE",
"309 292 CURVE",
"367 317 LINE",
"322 431 OFFCURVE",
"262 456 OFFCURVE",
"202 456 CURVE SMOOTH",
"110 456 OFFCURVE",
"39 397 OFFCURVE",
"39 224 CURVE SMOOTH",
"39 51 OFFCURVE",
"112 -8 OFFCURVE",
"195 -8 CURVE SMOOTH",
"256 -8 OFFCURVE",
"311 23 OFFCURVE",
"356 137 CURVE",
"309 156 LINE",
"288 104 OFFCURVE",
"256 72 OFFCURVE",
"219 72 CURVE SMOOTH",
"178 72 OFFCURVE",
"157 107 OFFCURVE"
);
}
);
};
layerId = "92967D72-867E-4A8B-929F-F44D834DD4C9";
paths = (
{
closed = 1;
nodes = (
"324 -196 OFFCURVE",
"397 -154 OFFCURVE",
"397 -36 CURVE SMOOTH",
"397 384 LINE",
"399 448 LINE",
"311 448 LINE",
"295 356 LINE",
"285 356 LINE",
"285 -49 LINE SMOOTH",
"285 -94 OFFCURVE",
"269 -116 OFFCURVE",
"199 -116 CURVE SMOOTH",
"171 -116 OFFCURVE",
"128 -111 OFFCURVE",
"89 -105 CURVE",
"78 -179 LINE",
"123 -189 OFFCURVE",
"179 -196 OFFCURVE",
"219 -196 CURVE SMOOTH"
);
},
{
closed = 1;
nodes = (
"256 -8 OFFCURVE",
"311 23 OFFCURVE",
"356 137 CURVE",
"309 156 LINE",
"288 104 OFFCURVE",
"256 72 OFFCURVE",
"219 72 CURVE SMOOTH",
"178 72 OFFCURVE",
"157 107 OFFCURVE",
"157 224 CURVE SMOOTH",
"157 341 OFFCURVE",
"178 376 OFFCURVE",
"219 376 CURVE SMOOTH",
"256 376 OFFCURVE",
"288 344 OFFCURVE",
"309 292 CURVE",
"367 317 LINE",
"322 431 OFFCURVE",
"262 456 OFFCURVE",
"202 456 CURVE SMOOTH",
"110 456 OFFCURVE",
"39 397 OFFCURVE",
"39 224 CURVE SMOOTH",
"39 51 OFFCURVE",
"112 -8 OFFCURVE",
"195 -8 CURVE SMOOTH"
);
}
);
width = 448;
},
{
background = {
paths = (
{
closed = 1;
nodes = (
"92 456 OFFCURVE",
"58 330 OFFCURVE",
"58 224 CURVE SMOOTH",
"58 118 OFFCURVE",
"96 -8 OFFCURVE",
"226 -8 CURVE SMOOTH",
"329 -8 OFFCURVE",
"343 64 OFFCURVE",
"366 121 CURVE",
"342 134 LINE",
"316 72 OFFCURVE",
"293 34 OFFCURVE",
"230 34 CURVE SMOOTH",
"143 34 OFFCURVE",
"112 98 OFFCURVE",
"112 224 CURVE SMOOTH",
"112 347 OFFCURVE",
"145 414 OFFCURVE",
"232 414 CURVE SMOOTH",
"274 414 OFFCURVE",
"309 395 OFFCURVE",
"342 365 CURVE",
"363 390 LINE",
"324 429 OFFCURVE",
"288 456 OFFCURVE",
"232 456 CURVE SMOOTH"
);
}
);
};
layerId = "7DDCEF54-C770-4FAD-B154-EE8058BAA7E5";
paths = (
{
closed = 1;
nodes = (
"323 -196 OFFCURVE",
"381 -151 OFFCURVE",
"381 -49 CURVE SMOOTH",
"381 384 LINE",
"383 448 LINE",
"340 448 LINE",
"335 399 LINE",
"336 374 LINE",
"336 -46 LINE SMOOTH",
"336 -123 OFFCURVE",
"306 -154 OFFCURVE",
"220 -154 CURVE SMOOTH",
"189 -154 OFFCURVE",
"153 -149 OFFCURVE",
"120 -142 CURVE",
"116 -182 LINE",
"153 -192 OFFCURVE",
"185 -196 OFFCURVE",
"225 -196 CURVE SMOOTH"
);
},
{
closed = 1;
nodes = (
"288 -8 OFFCURVE",
"324 19 OFFCURVE",
"363 58 CURVE",
"342 83 LINE",
"309 53 OFFCURVE",
"274 34 OFFCURVE",
"232 34 CURVE SMOOTH",
"145 34 OFFCURVE",
"112 101 OFFCURVE",
"112 224 CURVE SMOOTH",
"112 347 OFFCURVE",
"145 414 OFFCURVE",
"232 414 CURVE SMOOTH",
"274 414 OFFCURVE",
"309 395 OFFCURVE",
"342 365 CURVE",
"363 390 LINE",
"324 429 OFFCURVE",
"288 456 OFFCURVE",
"232 456 CURVE SMOOTH",
"92 456 OFFCURVE",
"58 330 OFFCURVE",
"58 224 CURVE SMOOTH",
"58 118 OFFCURVE",
"92 -8 OFFCURVE",
"232 -8 CURVE SMOOTH"
);
}
);
width = 448;
}
);
unicode = 0067;
},
{
color = 3;
glyphname = h;
layers = (
{
background = {
paths = (
{
closed = 1;
nodes = (
"60 0 LINE",
"132 0 LINE",
"132 640 LINE",
"60 640 LINE"
);
},
{
closed = 1;
nodes = (
"316 0 LINE",
"388 0 LINE",
"388 297 LINE SMOOTH",
"388 419 OFFCURVE",
"327 452 OFFCURVE",
"261 452 CURVE SMOOTH",
"186 452 OFFCURVE",
"115 399 OFFCURVE",
"81 345 CURVE",
"117 314 LINE",
"152 354 OFFCURVE",
"199 388 OFFCURVE",
"247 388 CURVE SMOOTH",
"300 388 OFFCURVE",
"316 358 OFFCURVE",
"316 289 CURVE SMOOTH"
);
}
);
};
hints = (
{
horizontal = 1;
origin = "{0, 0}";
type = Anchor;
},
{
horizontal = 1;
origin = "{1, 15}";
type = Anchor;
},
{
horizontal = 1;
origin = "{0, 1}";
type = Anchor;
},
{
horizontal = 1;
origin = "{1, 4}";
target = "{1, 11}";
type = TTStem;
options = 4;
},
{
origin = "{0, 3}";
type = Anchor;
},
{
origin = "{1, 1}";
type = Anchor;
},
{
origin = "{1, 1}";
target = "{1, 14}";
type = TTStem;
options = 4;
},
{
origin = "{0, 3}";
target = "{0, 0}";
type = TTStem;
options = 4;
},
{
origin = "{0, 0}";
target = "{0, 1, 1, 7}";
type = Align;
options = 4;
}
);
layerId = "95FB0C11-C828-4064-8966-34220AA4D426";
paths = (
{
closed = 1;
nodes = (
"132 0 LINE",
"132 640 LINE",
"60 640 LINE",
"60 0 LINE"
);
},
{
closed = 1;
nodes = (
"388 0 LINE",
"388 297 LINE SMOOTH",
"388 419 OFFCURVE",
"327 452 OFFCURVE",
"261 452 CURVE SMOOTH",
"186 452 OFFCURVE",
"115 399 OFFCURVE",
"81 345 CURVE",
"117 314 LINE",
"152 354 OFFCURVE",
"199 388 OFFCURVE",
"247 388 CURVE SMOOTH",
"300 388 OFFCURVE",
"316 358 OFFCURVE",
"316 289 CURVE SMOOTH",
"316 0 LINE"
);
}
);
width = 448;
},
{
background = {
paths = (
{
closed = 1;
nodes = (
"50 0 LINE",
"162 0 LINE",
"162 640 LINE",
"50 640 LINE"
);
},
{
closed = 1;
nodes = (
"286 0 LINE",
"398 0 LINE",
"398 297 LINE SMOOTH",
"398 419 OFFCURVE",
"346 452 OFFCURVE",
"270 452 CURVE SMOOTH",
"191 452 OFFCURVE",
"125 410 OFFCURVE",
"81 345 CURVE",
"125 307 LINE",
"161 351 OFFCURVE",
"202 372 OFFCURVE",
"235 372 CURVE SMOOTH",
"278 372 OFFCURVE",
"286 343 OFFCURVE",
"286 289 CURVE SMOOTH"
);
}
);
};
layerId = "92967D72-867E-4A8B-929F-F44D834DD4C9";
paths = (
{
closed = 1;
nodes = (
"162 0 LINE",
"162 640 LINE",
"50 640 LINE",
"50 0 LINE"
);
},
{
closed = 1;
nodes = (
"398 0 LINE",
"398 297 LINE SMOOTH",
"398 419 OFFCURVE",
"346 452 OFFCURVE",
"270 452 CURVE SMOOTH",
"191 452 OFFCURVE",
"125 410 OFFCURVE",
"81 345 CURVE",
"125 307 LINE",
"161 351 OFFCURVE",
"202 372 OFFCURVE",
"235 372 CURVE SMOOTH",
"278 372 OFFCURVE",
"286 343 OFFCURVE",
"286 289 CURVE SMOOTH",
"286 0 LINE"
);
}
);
width = 448;
},
{
layerId = "7DDCEF54-C770-4FAD-B154-EE8058BAA7E5";
paths = (
{
closed = 1;
nodes = (
"114 0 LINE",
"114 640 LINE",
"66 640 LINE",
"66 0 LINE"
);
},
{
closed = 1;
nodes = (
"382 0 LINE",
"382 309 LINE SMOOTH",
"382 422 OFFCURVE",
"323 452 OFFCURVE",
"261 452 CURVE SMOOTH",
"188 452 OFFCURVE",
"120 394 OFFCURVE",
"83 345 CURVE",
"103 328 LINE",
"150 373 OFFCURVE",
"197 408 OFFCURVE",
"252 408 CURVE SMOOTH",
"311 408 OFFCURVE",
"334 379 OFFCURVE",
"334 305 CURVE SMOOTH",
"334 0 LINE"
);
}
);
width = 448;
}
);
unicode = 0068;
},
{
color = 3;
glyphname = idotless;
layers = (
{
anchors = (
{
name = topLC;
position = "{230, 448}";
}
);
background = {
paths = (
{
closed = 1;
nodes = (
"64 390 LINE",
"188 382 LINE",
"188 0 LINE",
"260 0 LINE",
"260 448 LINE",
"64 448 LINE"
);
}
);
};
hints = (
{
horizontal = 1;
origin = "{0, 1}";
target = "{0, 4}";
type = TTStem;
options = 4;
},
{
horizontal = 1;
origin = "{0, 5}";
type = Anchor;
},
{
origin = "{0, 4}";
type = Anchor;
},
{
origin = "{0, 4}";
target = "{0, 1}";
type = TTStem;
options = 4;
}
);
layerId = "95FB0C11-C828-4064-8966-34220AA4D426";
paths = (
{
closed = 1;
nodes = (
"270 0 LINE",
"270 448 LINE",
"74 448 LINE",
"74 390 LINE",
"198 382 LINE",
"198 0 LINE"
);
}
);
width = 448;
},
{
anchors = (
{
name = topLC;
position = "{236, 448}";
}
);
background = {
paths = (
{
closed = 1;
nodes = (
"52 374 LINE",
"176 366 LINE",
"176 0 LINE",
"288 0 LINE",
"288 448 LINE",
"52 448 LINE"
);
}
);
};
layerId = "92967D72-867E-4A8B-929F-F44D834DD4C9";
paths = (
{
closed = 1;
nodes = (
"296 0 LINE",
"296 448 LINE",
"60 448 LINE",
"60 374 LINE",
"184 366 LINE",
"184 0 LINE"
);
}
);
width = 448;
},
{
anchors = (
{
name = topLC;
position = "{226, 448}";
}
);
hints = (
{
horizontal = 1;
origin = "{0, 4}";
target = "{0, 1}";
type = TTStem;
options = 4;
},
{
horizontal = 1;
origin = "{0, 2}";
type = Anchor;
}
);
layerId = "7DDCEF54-C770-4FAD-B154-EE8058BAA7E5";
paths = (
{
closed = 1;
nodes = (
"254 0 LINE",
"254 448 LINE",
"82 448 LINE",
"82 410 LINE",
"206 402 LINE",
"206 0 LINE"
);
}
);
width = 448;
}
);
unicode = 0131;
},
{
color = 1;
glyphname = ij;
layers = (
{
background = {
paths = (
{
closed = 1;
nodes = (
"77 591 CURVE SMOOTH",
"77 552 OFFCURVE",
"104 532 OFFCURVE",
"136 532 CURVE SMOOTH",
"168 532 OFFCURVE",
"195 552 OFFCURVE",
"195 591 CURVE SMOOTH",
"195 629 OFFCURVE",
"168 650 OFFCURVE",
"136 650 CURVE SMOOTH",
"104 650 OFFCURVE",
"77 629 OFFCURVE"
);
},
{
closed = 1;
nodes = (
"44 386 LINE",
"104 382 LINE",
"104 0 LINE",
"176 0 LINE",
"176 448 LINE",
"44 448 LINE"
);
},
{
closed = 1;
nodes = (
"368 448 LINE",
"236 448 LINE",
"236 386 LINE",
"296 382 LINE",
"296 -49 LINE SMOOTH",
"296 -109 OFFCURVE",
"277 -140 OFFCURVE",
"213 -140 CURVE SMOOTH",
"185 -140 OFFCURVE",
"165 -138 OFFCURVE",
"144 -136 CURVE",
"138 -194 LINE",
"167 -198 OFFCURVE",
"189 -200 OFFCURVE",
"219 -200 CURVE SMOOTH",
"308 -200 OFFCURVE",
"368 -162 OFFCURVE",
"368 -45 CURVE SMOOTH"
);
},
{
closed = 1;
nodes = (
"269 591 CURVE SMOOTH",
"269 552 OFFCURVE",
"296 532 OFFCURVE",
"328 532 CURVE SMOOTH",
"360 532 OFFCURVE",
"387 552 OFFCURVE",
"387 591 CURVE SMOOTH",
"387 629 OFFCURVE",
"360 650 OFFCURVE",
"328 650 CURVE SMOOTH",
"296 650 OFFCURVE",
"269 629 OFFCURVE"
);
}
);
};
hints = (
{
horizontal = 1;
origin = "{1, 4}";
target = "{1, 1}";
type = TTStem;
options = 4;
},
{
horizontal = 1;
origin = "{1, 4}";
target = "{2, 1}";
type = Align;
options = 4;
},
{
horizontal = 1;
origin = "{1, 1}";
target = "{2, 3}";
type = Align;
options = 4;
},
{
horizontal = 1;
origin = "{2, 14}";
target = "{2, 7}";
type = TTStem;
options = 4;
},
{
horizontal = 1;
origin = "{1, 3}";
type = Anchor;
},
{
horizontal = 1;
origin = "{0, 3}";
target = "{3, 3}";
type = Align;
options = 4;
},
{
horizontal = 1;
origin = "{3, 3}";
target = "{3, 9}";
type = TTStem;
stem = -1;
},
{
horizontal = 1;
origin = "{3, 9}";
target = "{0, 9}";
type = Align;
options = 4;
}
);
layerId = "95FB0C11-C828-4064-8966-34220AA4D426";
paths = (
{
closed = 1;
nodes = (
"77 591 CURVE SMOOTH",
"77 552 OFFCURVE",
"104 532 OFFCURVE",
"136 532 CURVE SMOOTH",
"168 532 OFFCURVE",
"195 552 OFFCURVE",
"195 591 CURVE SMOOTH",
"195 629 OFFCURVE",
"168 650 OFFCURVE",
"136 650 CURVE SMOOTH",
"104 650 OFFCURVE",
"77 629 OFFCURVE"
);
},
{
closed = 1;
nodes = (
"44 386 LINE",
"104 382 LINE",
"104 0 LINE",
"176 0 LINE",
"176 448 LINE",
"44 448 LINE"
);
},
{
closed = 1;
nodes = (
"368 448 LINE",
"236 448 LINE",
"236 386 LINE",
"296 382 LINE",
"296 -49 LINE SMOOTH",
"296 -109 OFFCURVE",
"277 -140 OFFCURVE",
"213 -140 CURVE SMOOTH",
"185 -140 OFFCURVE",
"165 -138 OFFCURVE",
"144 -136 CURVE",
"138 -194 LINE",
"167 -198 OFFCURVE",
"189 -200 OFFCURVE",
"219 -200 CURVE SMOOTH",
"308 -200 OFFCURVE",
"368 -162 OFFCURVE",
"368 -45 CURVE SMOOTH"
);
},
{
closed = 1;
nodes = (
"269 591 CURVE SMOOTH",
"269 552 OFFCURVE",
"296 532 OFFCURVE",
"328 532 CURVE SMOOTH",
"360 532 OFFCURVE",
"387 552 OFFCURVE",
"387 591 CURVE SMOOTH",
"387 629 OFFCURVE",
"360 650 OFFCURVE",
"328 650 CURVE SMOOTH",
"296 650 OFFCURVE",
"269 629 OFFCURVE"
);
}
);
width = 448;
},
{
background = {
paths = (
{
closed = 1;
nodes = (
"77 591 CURVE SMOOTH",
"77 552 OFFCURVE",
"104 532 OFFCURVE",
"136 532 CURVE SMOOTH",
"168 532 OFFCURVE",
"195 552 OFFCURVE",
"195 591 CURVE SMOOTH",
"195 629 OFFCURVE",
"168 650 OFFCURVE",
"136 650 CURVE SMOOTH",
"104 650 OFFCURVE",
"77 629 OFFCURVE"
);
},
{
closed = 1;
nodes = (
"44 386 LINE",
"104 382 LINE",
"104 0 LINE",
"176 0 LINE",
"176 448 LINE",
"44 448 LINE"
);
},
{
closed = 1;
nodes = (
"368 448 LINE",
"236 448 LINE",
"236 386 LINE",
"296 382 LINE",
"296 -49 LINE SMOOTH",
"296 -109 OFFCURVE",
"277 -140 OFFCURVE",
"213 -140 CURVE SMOOTH",
"185 -140 OFFCURVE",
"165 -138 OFFCURVE",
"144 -136 CURVE",
"138 -194 LINE",
"167 -198 OFFCURVE",
"189 -200 OFFCURVE",
"219 -200 CURVE SMOOTH",
"308 -200 OFFCURVE",
"368 -162 OFFCURVE",
"368 -45 CURVE SMOOTH"
);
},
{
closed = 1;
nodes = (
"269 591 CURVE SMOOTH",
"269 552 OFFCURVE",
"296 532 OFFCURVE",
"328 532 CURVE SMOOTH",
"360 532 OFFCURVE",
"387 552 OFFCURVE",
"387 591 CURVE SMOOTH",
"387 629 OFFCURVE",
"360 650 OFFCURVE",
"328 650 CURVE SMOOTH",
"296 650 OFFCURVE",
"269 629 OFFCURVE"
);
}
);
};
layerId = "92967D72-867E-4A8B-929F-F44D834DD4C9";
paths = (
{
closed = 1;
nodes = (
"77 591 CURVE SMOOTH",
"77 552 OFFCURVE",
"104 532 OFFCURVE",
"136 532 CURVE SMOOTH",
"168 532 OFFCURVE",
"195 552 OFFCURVE",
"195 591 CURVE SMOOTH",
"195 629 OFFCURVE",
"168 650 OFFCURVE",
"136 650 CURVE SMOOTH",
"104 650 OFFCURVE",
"77 629 OFFCURVE"
);
},
{
closed = 1;
nodes = (
"44 386 LINE",
"104 382 LINE",
"104 0 LINE",
"176 0 LINE",
"176 448 LINE",
"44 448 LINE"
);
},
{
closed = 1;
nodes = (
"368 448 LINE",
"236 448 LINE",
"236 386 LINE",
"296 382 LINE",
"296 -49 LINE SMOOTH",
"296 -109 OFFCURVE",
"277 -140 OFFCURVE",
"213 -140 CURVE SMOOTH",
"185 -140 OFFCURVE",
"165 -138 OFFCURVE",
"144 -136 CURVE",
"138 -194 LINE",
"167 -198 OFFCURVE",
"189 -200 OFFCURVE",
"219 -200 CURVE SMOOTH",
"308 -200 OFFCURVE",
"368 -162 OFFCURVE",
"368 -45 CURVE SMOOTH"
);
},
{
closed = 1;
nodes = (
"269 591 CURVE SMOOTH",
"269 552 OFFCURVE",
"296 532 OFFCURVE",
"328 532 CURVE SMOOTH",
"360 532 OFFCURVE",
"387 552 OFFCURVE",
"387 591 CURVE SMOOTH",
"387 629 OFFCURVE",
"360 650 OFFCURVE",
"328 650 CURVE SMOOTH",
"296 650 OFFCURVE",
"269 629 OFFCURVE"
);
}
);
width = 448;
},
{
layerId = "7DDCEF54-C770-4FAD-B154-EE8058BAA7E5";
paths = (
{
closed = 1;
nodes = (
"77 591 CURVE SMOOTH",
"77 552 OFFCURVE",
"104 532 OFFCURVE",
"136 532 CURVE SMOOTH",
"168 532 OFFCURVE",
"195 552 OFFCURVE",
"195 591 CURVE SMOOTH",
"195 629 OFFCURVE",
"168 650 OFFCURVE",
"136 650 CURVE SMOOTH",
"104 650 OFFCURVE",
"77 629 OFFCURVE"
);
},
{
closed = 1;
nodes = (
"44 386 LINE",
"104 382 LINE",
"104 0 LINE",
"176 0 LINE",
"176 448 LINE",
"44 448 LINE"
);
},
{
closed = 1;
nodes = (
"368 448 LINE",
"236 448 LINE",
"236 386 LINE",
"296 382 LINE",
"296 -49 LINE SMOOTH",
"296 -109 OFFCURVE",
"277 -140 OFFCURVE",
"213 -140 CURVE SMOOTH",
"185 -140 OFFCURVE",
"165 -138 OFFCURVE",
"144 -136 CURVE",
"138 -194 LINE",
"167 -198 OFFCURVE",
"189 -200 OFFCURVE",
"219 -200 CURVE SMOOTH",
"308 -200 OFFCURVE",
"368 -162 OFFCURVE",
"368 -45 CURVE SMOOTH"
);
},
{
closed = 1;
nodes = (
"269 591 CURVE SMOOTH",
"269 552 OFFCURVE",
"296 532 OFFCURVE",
"328 532 CURVE SMOOTH",
"360 532 OFFCURVE",
"387 552 OFFCURVE",
"387 591 CURVE SMOOTH",
"387 629 OFFCURVE",
"360 650 OFFCURVE",
"328 650 CURVE SMOOTH",
"296 650 OFFCURVE",
"269 629 OFFCURVE"
);
}
);
width = 448;
}
);
unicode = 0133;
},
{
color = 3;
glyphname = jdotless;
layers = (
{
anchors = (
{
name = topLC;
position = "{220, 448}";
}
);
background = {
paths = (
{
closed = 1;
nodes = (
"260 448 LINE",
"64 448 LINE",
"64 390 LINE",
"188 382 LINE",
"188 -49 LINE SMOOTH",
"188 -109 OFFCURVE",
"169 -140 OFFCURVE",
"105 -140 CURVE SMOOTH",
"77 -140 OFFCURVE",
"57 -138 OFFCURVE",
"36 -136 CURVE",
"30 -194 LINE",
"59 -198 OFFCURVE",
"81 -200 OFFCURVE",
"111 -200 CURVE SMOOTH",
"200 -200 OFFCURVE",
"260 -162 OFFCURVE",
"260 -45 CURVE SMOOTH"
);
}
);
};
hints = (
{
horizontal = 1;
origin = "{0, 0}";
target = "{0, 3}";
type = TTStem;
options = 4;
},
{
horizontal = 1;
origin = "{0, 14}";
target = "{0, 7}";
type = TTStem;
options = 4;
},
{
origin = "{0, 3}";
target = "{0, 0}";
type = TTStem;
options = 4;
},
{
origin = "{0, 3}";
type = Anchor;
}
);
layerId = "95FB0C11-C828-4064-8966-34220AA4D426";
paths = (
{
closed = 1;
nodes = (
"260 448 LINE",
"64 448 LINE",
"64 390 LINE",
"188 382 LINE",
"188 -49 LINE SMOOTH",
"188 -109 OFFCURVE",
"169 -140 OFFCURVE",
"105 -140 CURVE SMOOTH",
"77 -140 OFFCURVE",
"57 -138 OFFCURVE",
"36 -136 CURVE",
"30 -194 LINE",
"59 -198 OFFCURVE",
"81 -200 OFFCURVE",
"111 -200 CURVE SMOOTH",
"200 -200 OFFCURVE",
"260 -162 OFFCURVE",
"260 -45 CURVE SMOOTH"
);
}
);
width = 448;
},
{
anchors = (
{
name = topLC;
position = "{236, 448}";
}
);
background = {
paths = (
{
closed = 1;
nodes = (
"290 448 LINE",
"74 448 LINE",
"74 374 LINE",
"178 365 LINE",
"178 -49 LINE SMOOTH",
"178 -98 OFFCURVE",
"161 -124 OFFCURVE",
"106 -124 CURVE SMOOTH",
"82 -124 OFFCURVE",
"64 -122 OFFCURVE",
"46 -120 CURVE",
"40 -193 LINE",
"71 -198 OFFCURVE",
"95 -200 OFFCURVE",
"128 -200 CURVE SMOOTH",
"225 -200 OFFCURVE",
"290 -162 OFFCURVE",
"290 -45 CURVE SMOOTH"
);
}
);
};
layerId = "92967D72-867E-4A8B-929F-F44D834DD4C9";
paths = (
{
closed = 1;
nodes = (
"290 448 LINE",
"74 448 LINE",
"74 374 LINE",
"178 365 LINE",
"178 -49 LINE SMOOTH",
"178 -98 OFFCURVE",
"161 -124 OFFCURVE",
"106 -124 CURVE SMOOTH",
"82 -124 OFFCURVE",
"64 -122 OFFCURVE",
"46 -120 CURVE",
"40 -193 LINE",
"71 -198 OFFCURVE",
"95 -200 OFFCURVE",
"128 -200 CURVE SMOOTH",
"225 -200 OFFCURVE",
"290 -162 OFFCURVE",
"290 -45 CURVE SMOOTH"
);
}
);
width = 448;
},
{
anchors = (
{
name = topLC;
position = "{210, 448}";
}
);
background = {
paths = (
{
closed = 1;
nodes = (
"242 448 LINE",
"58 448 LINE",
"58 410 LINE",
"194 402 LINE",
"194 -49 LINE SMOOTH",
"194 -116 OFFCURVE",
"174 -150 OFFCURVE",
"104 -150 CURVE SMOOTH",
"74 -150 OFFCURVE",
"53 -148 OFFCURVE",
"30 -146 CURVE",
"24 -195 LINE",
"52 -198 OFFCURVE",
"73 -200 OFFCURVE",
"101 -200 CURVE SMOOTH",
"185 -200 OFFCURVE",
"242 -162 OFFCURVE",
"242 -45 CURVE SMOOTH"
);
}
);
};
layerId = "7DDCEF54-C770-4FAD-B154-EE8058BAA7E5";
paths = (
{
closed = 1;
nodes = (
"242 448 LINE",
"58 448 LINE",
"58 410 LINE",
"194 402 LINE",
"194 -49 LINE SMOOTH",
"194 -130 OFFCURVE",
"163 -160 OFFCURVE",
"97 -160 CURVE SMOOTH",
"74 -160 OFFCURVE",
"48 -158 OFFCURVE",
"25 -155 CURVE",
"21 -192 LINE",
"49 -198 OFFCURVE",
"73 -200 OFFCURVE",
"101 -200 CURVE SMOOTH",
"185 -200 OFFCURVE",
"242 -162 OFFCURVE",
"242 -45 CURVE SMOOTH"
);
}
);
width = 448;
}
);
unicode = 0237;
},
